<svg width="21" height="15" viewBox="0 0 21 15" fill="none" xmlns="http://www.w3.org/2000/svg">
<mask id="mask0_124_4199" style="mask-type:alpha" maskUnits="userSpaceOnUse" x="0" y="0" width="21" height="15">
<path d="M19 0H2C0.89543 0 0 0.89543 0 2V13C0 14.1046 0.89543 15 2 15H19C20.1046 15 21 14.1046 21 13V2C21 0.89543 20.1046 0 19 0Z" fill="white"/>
</mask>
<g mask="url(#mask0_124_4199)">
<path d="M19 0H2C0.89543 0 0 0.89543 0 2V13C0 14.1046 0.89543 15 2 15H19C20.1046 15 21 14.1046 21 13V2C21 0.89543 20.1046 0 19 0Z" fill="#DE0F09"/>
<path fill-rule="evenodd" clip-rule="evenodd" d="M6 10H21V15H6V10Z" fill="#008100"/>
<path fill-rule="evenodd" clip-rule="evenodd" d="M6.00002 0H21V5H6.00002V0ZM4.57602 3.903C4.52102 3.986 4.45802 4.063 4.38602 4.136C3.79902 4.722 2.84902 4.722 2.26402 4.136C1.67802 3.551 1.67802 2.601 2.26402 2.016C2.33602 1.942 2.41402 1.879 2.49702 1.824C2.27202 2.244 2.45702 2.916 2.97102 3.429C3.48502 3.941 4.15602 4.127 4.57702 3.902L4.57602 3.903Z" fill="white"/>
<path fill-rule="evenodd" clip-rule="evenodd" d="M2.42397 3.90301C2.47897 3.98601 2.54197 4.06301 2.61397 4.13601C3.20097 4.72201 4.15097 4.72201 4.73597 4.13601C5.32197 3.55101 5.32197 2.60101 4.73597 2.01601C4.66397 1.94201 4.58597 1.87901 4.50297 1.82401C4.72797 2.24401 4.54297 2.91601 4.02897 3.42901C3.51497 3.94101 2.84397 4.12701 2.42297 3.90201L2.42397 3.90301Z" fill="white"/>
<path d="M19 0.5H2C1.17157 0.5 0.5 1.17157 0.5 2V13C0.5 13.8284 1.17157 14.5 2 14.5H19C19.8284 14.5 20.5 13.8284 20.5 13V2C20.5 1.17157 19.8284 0.5 19 0.5Z" stroke="black" stroke-opacity="0.1"/>
</g>
</svg>
