<svg width="21" height="15" viewBox="0 0 21 15" fill="none" xmlns="http://www.w3.org/2000/svg">
<mask id="mask0_124_4639" style="mask-type:alpha" maskUnits="userSpaceOnUse" x="0" y="0" width="21" height="15">
<path d="M19 0H2C0.89543 0 0 0.89543 0 2V13C0 14.1046 0.89543 15 2 15H19C20.1046 15 21 14.1046 21 13V2C21 0.89543 20.1046 0 19 0Z" fill="white"/>
</mask>
<g mask="url(#mask0_124_4639)">
<path d="M19 0H2C0.89543 0 0 0.89543 0 2V13C0 14.1046 0.89543 15 2 15H19C20.1046 15 21 14.1046 21 13V2C21 0.89543 20.1046 0 19 0Z" fill="#DC220D"/>
<path fill-rule="evenodd" clip-rule="evenodd" d="M10.502 9.33L8.41201 10.43L8.81201 8.103L7.12201 6.456L9.45801 6.116L10.502 4L11.547 6.116L13.882 6.456L12.192 8.103L12.592 10.429" fill="#FFFF00"/>
</g>
</svg>
