<svg width="24" height="24" viewBox="0 0 24 24" fill="none" xmlns="http://www.w3.org/2000/svg">
<path fill-rule="evenodd" clip-rule="evenodd" d="M12 3.25C10.1721 3.25 8.91443 3.79087 8.08745 4.79131C7.30157 5.74204 7.00255 7.00083 6.8097 8.19789C6.74062 8.62669 6.68488 9.04538 6.63008 9.45699L6.63008 9.45702C6.52246 10.2653 6.41848 11.0463 6.2243 11.823C5.94152 12.954 5.49657 13.9143 4.67663 14.6272C4.42617 14.8449 4.25 15.1748 4.25 15.5505C4.25 16.2129 4.78705 16.75 5.44953 16.75H18.5505C19.2129 16.75 19.75 16.213 19.75 15.5505C19.75 15.1748 19.5739 14.8449 19.3233 14.6271C18.5022 13.9134 18.054 12.9521 17.7673 11.8207C17.5699 11.0414 17.4629 10.2567 17.3522 9.445V9.44499L17.3522 9.44493C17.2965 9.03638 17.2398 8.621 17.1703 8.19602C16.9744 6.99956 16.6737 5.74216 15.8917 4.79243C15.0681 3.79221 13.8172 3.25 12 3.25ZM17.8246 15.25H6.17496C6.97786 14.3443 7.41016 13.2641 7.6795 12.1868C7.89372 11.33 8.01839 10.3992 8.13302 9.5433L8.13302 9.5433C8.18514 9.15418 8.23517 8.78057 8.29061 8.43646C8.47986 7.2617 8.73531 6.3619 9.24359 5.747C9.71078 5.18181 10.4869 4.75 12 4.75C13.4982 4.75 14.2681 5.18048 14.7337 5.7459C15.2408 6.36181 15.4975 7.26301 15.69 8.43837C15.746 8.78051 15.7968 9.15142 15.8498 9.53757L15.8498 9.53758C15.9674 10.3958 16.0954 11.3292 16.3133 12.1891C16.5861 13.2659 17.0214 14.3451 17.8246 15.25ZM12 20C13.1046 20 14 19.1046 14 18H10C10 19.1046 10.8954 20 12 20Z" fill="#59B27E"/>
</svg>
