<svg width="24" height="24" viewBox="0 0 24 24" fill="none" xmlns="http://www.w3.org/2000/svg">
<path fill-rule="evenodd" clip-rule="evenodd" d="M20.5 12C20.5 16.6944 16.6944 20.5 12 20.5C7.30558 20.5 3.5 16.6944 3.5 12C3.5 7.30558 7.30558 3.5 12 3.5C16.6944 3.5 20.5 7.30558 20.5 12ZM22 12C22 17.5228 17.5228 22 12 22C6.47715 22 2 17.5228 2 12C2 6.47715 6.47715 2 12 2C17.5228 2 22 6.47715 22 12ZM12.75 6.44434C12.75 6.03012 12.4142 5.69434 12 5.69434C11.5858 5.69434 11.25 6.03012 11.25 6.44434V13.111C11.25 13.5252 11.5858 13.861 12 13.861H17.5556C17.9698 13.861 18.3056 13.5252 18.3056 13.111C18.3056 12.6968 17.9698 12.361 17.5556 12.361H12.75V6.44434Z" fill="#13ADAF"/>
</svg>
