<svg width="24" height="24" viewBox="0 0 24 24" fill="none" xmlns="http://www.w3.org/2000/svg">
<path fill-rule="evenodd" clip-rule="evenodd" d="M3.25 6C3.25 5.0335 4.0335 4.25 5 4.25H19C19.9665 4.25 20.75 5.0335 20.75 6V8.69224C20.75 9.21165 20.5193 9.70422 20.1202 10.0367L14.9776 14.3215C14.6926 14.559 14.5278 14.9109 14.5278 15.2819V18.9498C14.5278 19.5154 14.2543 20.0462 13.7937 20.3747L12.2382 21.4838C11.0797 22.3097 9.47222 21.4816 9.47222 20.0589V15.2819C9.47222 14.9109 9.30741 14.559 9.02238 14.3215L3.87978 10.0367C3.48073 9.70422 3.25 9.21165 3.25 8.69224V6ZM5 5.75C4.86193 5.75 4.75 5.86193 4.75 6V8.69224C4.75 8.76644 4.78296 8.83681 4.83997 8.88431L9.98256 13.1691C10.6096 13.6916 10.9722 14.4657 10.9722 15.2819V20.0589C10.9722 20.2621 11.2019 20.3804 11.3674 20.2624L12.9229 19.1533C12.9887 19.1064 13.0278 19.0306 13.0278 18.9498V15.2819C13.0278 14.4657 13.3904 13.6916 14.0174 13.1691L19.16 8.88431C19.217 8.83681 19.25 8.76644 19.25 8.69224V6C19.25 5.86193 19.1381 5.75 19 5.75H5Z" fill="#5470C7"/>
</svg>
