<svg width="24" height="24" viewBox="0 0 24 24" fill="none" xmlns="http://www.w3.org/2000/svg">
<path fill-rule="evenodd" clip-rule="evenodd" d="M3 4.25C2.58579 4.25 2.25 4.58579 2.25 5C2.25 5.41421 2.58579 5.75 3 5.75H3.10506H3.20929H3.31271H3.41532H3.51711H3.6181L3.71828 5.75H3.81766H3.91624H4.01403H4.11102H4.20723H4.30265H4.39728H4.49114H4.58423H4.67654H4.76808H4.85886H4.94887H5.03813L5.12662 5.75H5.21437H5.30136H5.38761H5.47311H5.55788H5.6419H5.7252H5.80776H5.88959H5.9707H6.05109H6.13076H6.20972H6.28797H6.36551L6.44234 5.75H6.51847H6.5939H6.66864H6.74269H6.81604H6.88871H6.9607H7.03201H7.10265H7.17261H7.2419H7.31052H7.37849H7.44579H7.51244H7.57843H7.64377H7.70847H7.77252L7.83593 5.75H7.8987H7.96084H8.02235H8.08323H8.14349H8.20312H8.26214H8.32055H8.37834H8.43552H8.4921H8.54807H8.60345H8.65823H8.71242H8.76602H8.81904H8.87147H8.92332H8.9746H9.02531H9.07544H9.12501L9.17401 5.75H9.22246H9.27034H9.31768H9.36446H9.4107H9.45639H9.50154H9.54616H9.59024H9.63379H9.67681H9.7193H9.76128H9.80273H9.84368H9.88411H9.92403H9.96344H10.0024H10.0408H10.0787H10.1161H10.1531H10.1895H10.2255H10.261H10.296H10.3305H10.3646H10.3982H10.4313H10.464H10.4962L10.528 5.75H10.5593H10.5902H10.6206H10.6506H10.6802H10.7093H10.7379H10.7662H10.794H10.8214H10.8484H10.875H10.9012H10.9269H10.9523H10.9772H11.0018H11.0259H11.0497H11.073H11.096H11.1186H11.1408H11.1627H11.1841H11.2052H11.226H11.2463H11.2663H11.286H11.3053H11.3242H11.3428H11.3611H11.379H11.3966H11.4138H11.4307H11.4473H11.4636H11.4795H11.4951H11.5104H11.5254H11.5401H11.5544H11.5685H11.5823H11.5958H11.6089H11.6218H11.6344H11.6468H11.6588H11.6706H11.682H11.6933H11.7042H11.7149H11.7253H11.7355H11.7454H11.7551H11.7645H11.7737H11.7826H11.7913H11.7998H11.808H11.816H11.8238H11.8313H11.8387H11.8458H11.8527H11.8594L11.8659 5.75H11.8722H11.8782H11.8841H11.8898H11.8953H11.9007H11.9058H11.9107H11.9155H11.9201H11.9246H11.9288H11.9329H11.9369H11.9407H11.9443H11.9478H11.9511H11.9543H11.9573H11.9603H11.963H11.9657H11.9682H11.9706H11.9728H11.975H11.977H11.9789H11.9807H11.9824H11.984H11.9855H11.9869H11.9882H11.9894H11.9906H11.9916H11.9926H11.9935H11.9943H11.995H11.9957H11.9963H11.9969H11.9974H11.9978H11.9982H11.9985H11.9988H11.9991H11.9993H11.9995H11.9996H11.9997H11.9998H11.9999H11.9999H12H12H12H12H12H12.0001H12.0001H12.0002H12.0003H12.0004H12.0005H12.0007H12.0009H12.0012H12.0015H12.0018H12.0022H12.0026H12.0031H12.0037H12.0043H12.005H12.0057H12.0065H12.0074H12.0084H12.0094H12.0106H12.0118H12.0131H12.0145H12.016H12.0176H12.0193H12.0211H12.023H12.025H12.0272H12.0294H12.0318H12.0343H12.037H12.0397H12.0427H12.0457H12.0489H12.0522H12.0557H12.0593H12.0631H12.0671H12.0712H12.0754H12.0799H12.0845H12.0893H12.0942H12.0993H12.1047H12.1102H12.1159H12.1218H12.1278H12.1341H12.1406H12.1473H12.1542H12.1613H12.1687H12.1762H12.184H12.192H12.2002H12.2087H12.2174H12.2263H12.2355H12.2449H12.2546H12.2645H12.2747H12.2851H12.2958H12.3067H12.318H12.3294H12.3412H12.3532H12.3656H12.3782H12.3911H12.4042H12.4177H12.4315H12.4456H12.4599H12.4746H12.4896H12.5049H12.5205H12.5364H12.5527H12.5693H12.5862H12.6034H12.621H12.6389H12.6572H12.6758H12.6947H12.714H12.7337H12.7537H12.774H12.7948H12.8159H12.8373H12.8592H12.8814H12.904H12.927H12.9503H12.9741H12.9982H13.0228H13.0477H13.0731H13.0988H13.125H13.1516H13.1786H13.206L13.2338 5.75H13.2621H13.2907H13.3198H13.3494H13.3794H13.4098H13.4407H13.472H13.5038H13.536H13.5687H13.6018H13.6354H13.6695H13.704H13.739H13.7745H13.8105H13.8469H13.8839H13.9213H13.9592H13.9976H14.0366H14.076H14.1159H14.1563H14.1973H14.2387H14.2807H14.3232H14.3662H14.4098H14.4538H14.4985H14.5436H14.5893L14.6355 5.75H14.6823H14.7297H14.7775H14.826H14.875H14.9246H14.9747H15.0254H15.0767H15.1285H15.181H15.234H15.2876H15.3418H15.3965H15.4519H15.5079H15.5645H15.6217H15.6795H15.7379H15.7969H15.8565H15.9168L15.9776 5.75H16.0392H16.1013H16.1641H16.2275H16.2915H16.3562H16.4216H16.4876H16.5542H16.6215H16.6895H16.7581H16.8274H16.8974H16.968H17.0393H17.1113H17.184H17.2573L17.3314 5.75H17.4061H17.4815H17.5577H17.6345H17.712H17.7903H17.8692H17.9489H18.0293H18.1104H18.1922H18.2748H18.3581H18.4421H18.5269H18.6124L18.6986 5.75H18.7856H18.8734H18.9619H19.0511H19.1411H19.2319H19.3235H19.4158H19.5089H19.6027H19.6974H19.7928H19.889H19.986L20.0838 5.75H20.1823H20.2817H20.3819H20.4829H20.5847H20.6873H20.7907H20.8949H21C21.4142 5.75 21.75 5.41422 21.75 5C21.75 4.58579 21.4142 4.25 21 4.25H20.8949H20.7907H20.6873H20.5847H20.4829H20.3819H20.2817H20.1823H20.0838H19.986H19.889H19.7928H19.6974H19.6027H19.5089H19.4158H19.3235H19.2319H19.1411H19.0511H18.9619H18.8734H18.7856H18.6986H18.6124H18.5269H18.4421H18.3581H18.2748H18.1922H18.1104H18.0293H17.9489H17.8692H17.7903H17.712H17.6345H17.5577H17.4815H17.4061H17.3314H17.2573H17.184H17.1113H17.0393H16.968H16.8974H16.8274H16.7581H16.6895H16.6215H16.5542H16.4876H16.4216H16.3562H16.2915H16.2275H16.1641H16.1013H16.0392H15.9776H15.9168H15.8565H15.7969H15.7379H15.6795H15.6217H15.5645H15.5079H15.4519H15.3965H15.3418H15.2876H15.234H15.181H15.1285H15.0767H15.0254H14.9747H14.9246H14.875H14.826H14.7775H14.7297H14.6823H14.6355H14.5893H14.5436H14.4985H14.4538H14.4098H14.3662H14.3232H14.2807H14.2387H14.1973H14.1563H14.1159H14.076H14.0366H13.9976H13.9592H13.9213H13.8839H13.8469H13.8105H13.7745H13.739H13.704H13.6695H13.6354H13.6018H13.5687H13.536H13.5038H13.472H13.4407H13.4098H13.3794H13.3494H13.3198H13.2907H13.2621H13.2338H13.206H13.1786H13.1516H13.125H13.0988H13.0731H13.0477H13.0228H12.9982H12.9741H12.9503H12.927H12.904H12.8814H12.8592H12.8373H12.8159H12.7948H12.774H12.7537H12.7337H12.714H12.6947H12.6758H12.6572H12.6389H12.621H12.6034H12.5862H12.5693H12.5527H12.5364H12.5205H12.5049H12.4896H12.4746H12.4599H12.4456H12.4315H12.4177H12.4042H12.3911H12.3782H12.3656H12.3532H12.3412H12.3294H12.318H12.3067H12.2958H12.2851H12.2747H12.2645H12.2546H12.2449H12.2355H12.2263H12.2174H12.2087H12.2002H12.192H12.184H12.1762H12.1687H12.1613H12.1542H12.1473H12.1406H12.1341H12.1278H12.1218H12.1159H12.1102H12.1047H12.0993H12.0942H12.0893H12.0845H12.0799H12.0754H12.0712H12.0671H12.0631H12.0593H12.0557H12.0522H12.0489H12.0457H12.0427H12.0397H12.037H12.0343H12.0318H12.0294H12.0272H12.025H12.023H12.0211H12.0193H12.0176H12.016H12.0145H12.0131H12.0118H12.0106H12.0094H12.0084H12.0074H12.0065H12.0057H12.005H12.0043H12.0037H12.0031H12.0026H12.0022H12.0018H12.0015H12.0012H12.0009H12.0007H12.0005H12.0004H12.0003H12.0002H12.0001H12.0001H12H12H12H12H12H11.9999H11.9999H11.9998H11.9997H11.9996H11.9995H11.9993H11.9991H11.9988H11.9985H11.9982H11.9978H11.9974H11.9969H11.9963H11.9957H11.995H11.9943H11.9935H11.9926H11.9916H11.9906H11.9894H11.9882H11.9869H11.9855H11.984H11.9824H11.9807H11.9789H11.977H11.975H11.9728H11.9706H11.9682H11.9657H11.963H11.9603H11.9573H11.9543H11.9511H11.9478H11.9443H11.9407H11.9369H11.9329H11.9288H11.9246H11.9201H11.9155H11.9107H11.9058H11.9007H11.8953H11.8898H11.8841H11.8782H11.8722H11.8659H11.8594H11.8527H11.8458H11.8387H11.8313H11.8238H11.816H11.808H11.7998H11.7913H11.7826H11.7737H11.7645H11.7551H11.7454H11.7355H11.7253H11.7149H11.7042H11.6933H11.682H11.6706H11.6588H11.6468H11.6344H11.6218H11.6089H11.5958H11.5823H11.5685H11.5544H11.5401H11.5254H11.5104H11.4951H11.4795H11.4636H11.4473H11.4307H11.4138H11.3966H11.379H11.3611H11.3428H11.3242H11.3053H11.286H11.2663H11.2463H11.226H11.2052H11.1841H11.1627H11.1408H11.1186H11.096H11.073H11.0497H11.0259H11.0018H10.9772H10.9523H10.9269H10.9012H10.875H10.8484H10.8214H10.794H10.7662H10.7379H10.7093H10.6802H10.6506H10.6206H10.5902H10.5593H10.528H10.4962H10.464H10.4313H10.3982H10.3646H10.3305H10.296H10.261H10.2255H10.1895H10.1531H10.1161H10.0787H10.0408H10.0024H9.96344H9.92403H9.88411H9.84368H9.80273H9.76128H9.7193H9.67681H9.63379H9.59024H9.54616H9.50154H9.45639H9.4107H9.36446H9.31768H9.27034H9.22246H9.17401H9.12501H9.07544H9.02531H8.9746H8.92332H8.87147H8.81904H8.76602H8.71242H8.65823H8.60345H8.54807H8.4921H8.43552H8.37834H8.32055H8.26214H8.20312H8.14349H8.08323H8.02235H7.96084H7.8987H7.83593H7.77252H7.70847H7.64377H7.57843H7.51244H7.44579H7.37849H7.31052H7.2419H7.17261H7.10265H7.03201H6.9607H6.88871H6.81604H6.74269H6.66864H6.5939H6.51847H6.44234H6.36551H6.28797H6.20972H6.13076H6.05109H5.9707H5.88959H5.80776H5.7252H5.6419H5.55788H5.47311H5.38761H5.30136H5.21437H5.12662H5.03813H4.94887H4.85886H4.76808H4.67654H4.58423H4.49114H4.39728H4.30265H4.20723H4.11102H4.01403H3.91624H3.81766H3.71828H3.6181H3.51711H3.41532H3.31271H3.20929H3.10506H3ZM7 10.25C6.58579 10.25 6.25 10.5858 6.25 11C6.25 11.4142 6.58579 11.75 7 11.75H7.08171H7.16278H7.24322H7.32302H7.4022H7.48074H7.55866H7.63596H7.71263H7.78869H7.86413H7.93895H8.01317H8.08678H8.15978H8.23218H8.30398H8.37517H8.44578H8.51579H8.58521H8.65404H8.72229H8.78995H8.85703H8.92353H8.98946H9.05481H9.1196H9.18381H9.24746H9.31055H9.37307H9.43504H9.49645H9.55731H9.61762H9.67737L9.73659 11.75H9.79526H9.85339H9.91098H9.96803H10.0246H10.0805H10.136H10.1909H10.2454H10.2993H10.3526H10.4055H10.4578H10.5097H10.561H10.6118H10.6621H10.712H10.7613H10.8101H10.8584H10.9063H10.9536H11.0005H11.0469H11.0928H11.1382H11.1832H11.2276H11.2716H11.3152H11.3582H11.4008H11.443H11.4847H11.5259H11.5667H11.607H11.6469H11.6863H11.7253H11.7639H11.802H11.8397H11.8769H11.9137H11.9501H11.9861H12.0216H12.0568H12.0915H12.1257H12.1596H12.1931H12.2261H12.2588H12.291H12.3229H12.3543H12.3854H12.416H12.4463H12.4762H12.5056H12.5348H12.5635H12.5918H12.6198H12.6474H12.6747H12.7015H12.728H12.7542H12.7799H12.8053H12.8304H12.8551H12.8795H12.9035H12.9271H12.9505H12.9735H12.9961H13.0184H13.0404H13.062H13.0833H13.1043H13.125H13.1453H13.1654H13.1851H13.2045H13.2236H13.2424H13.2608H13.279H13.2969H13.3145H13.3318H13.3487H13.3654H13.3819H13.398H13.4138H13.4294H13.4447H13.4597H13.4744H13.4889H13.5031H13.517H13.5307H13.5441H13.5572H13.5701H13.5828H13.5952H13.6073H13.6192H13.6309H13.6423H13.6535H13.6644H13.6751H13.6856H13.6958H13.7059H13.7157H13.7253H13.7346H13.7438H13.7527H13.7614H13.77H13.7783H13.7864H13.7943H13.802H13.8095H13.8168H13.824H13.8309H13.8377H13.8443H13.8507H13.8569H13.8629H13.8688H13.8745H13.88H13.8854H13.8906H13.8957H13.9006H13.9053H13.9099H13.9143H13.9186H13.9227H13.9267H13.9306H13.9343H13.9379H13.9413H13.9447H13.9478H13.9509H13.9539H13.9567H13.9594H13.962H13.9645H13.9668H13.9691H13.9712H13.9733H13.9752H13.9771H13.9789H13.9805H13.9821H13.9836H13.985H13.9863H13.9876H13.9887H13.9898H13.9908H13.9918H13.9927H13.9935H13.9942H13.9949H13.9956H13.9961H13.9967H13.9971H13.9976H13.9979H13.9983H13.9986H13.9989H13.9991H13.9993H13.9994H13.9996H13.9997H13.9998H13.9999H13.9999H13.9999H14H14H14H14H14H14.0001H14.0001H14.0001H14.0002H14.0003H14.0004H14.0006H14.0007H14.0009H14.0011H14.0014H14.0017H14.002H14.0024H14.0029H14.0033H14.0039H14.0044H14.0051H14.0058H14.0065H14.0073H14.0082H14.0092H14.0102H14.0113H14.0124H14.0137H14.015H14.0164H14.0179H14.0195H14.0211H14.0229H14.0247H14.0267H14.0288H14.0309H14.0332H14.0355H14.038H14.0406H14.0433H14.0461H14.0491H14.0522H14.0553H14.0587H14.0621H14.0657H14.0694H14.0733H14.0773H14.0814H14.0857H14.0901H14.0947H14.0994H14.1043H14.1094H14.1146H14.12H14.1255H14.1312H14.1371H14.1431H14.1493H14.1557H14.1623H14.1691H14.176H14.1832H14.1905H14.198H14.2057H14.2136H14.2217H14.23H14.2386H14.2473H14.2562H14.2654H14.2747H14.2843H14.2941H14.3042H14.3144H14.3249H14.3356H14.3465H14.3577H14.3691H14.3808H14.3927H14.4048H14.4172H14.4299H14.4428H14.4559H14.4693H14.483H14.4969H14.5111H14.5256H14.5403H14.5553H14.5706H14.5862H14.602H14.6181H14.6346H14.6513H14.6682H14.6855H14.7031H14.721H14.7392H14.7576H14.7764H14.7955H14.8149H14.8346H14.8547H14.875H14.8957H14.9167H14.938H14.9596H14.9816H15.0039H15.0265H15.0495H15.0729H15.0965H15.1205H15.1449H15.1696L15.1947 11.75H15.2201H15.2458H15.272H15.2985H15.3253H15.3526H15.3802H15.4082H15.4365H15.4652H15.4944H15.5238H15.5537H15.584H15.6146H15.6457H15.6771H15.709H15.7412H15.7739H15.8069H15.8404H15.8743H15.9085H15.9432H15.9784H16.0139H16.0499H16.0863H16.1231H16.1603H16.198H16.2361H16.2747H16.3137H16.3531H16.393H16.4333H16.4741H16.5153H16.557H16.5992H16.6418H16.6848H16.7284H16.7724H16.8168H16.8618H16.9072H16.9531H16.9995H17.0464H17.0937H17.1416H17.1899H17.2387H17.288H17.3379H17.3882H17.439H17.4903H17.5422H17.5945H17.6474H17.7007H17.7546H17.8091H17.864H17.9195H17.9754H18.032H18.089H18.1466H18.2047H18.2634H18.3226H18.3824H18.4427H18.5035H18.565H18.6269H18.6895H18.7525H18.8162H18.8804H18.9452H19.0105H19.0765H19.143H19.2101H19.2777H19.346H19.4148H19.4842H19.5542H19.6248H19.696H19.7678H19.8402H19.9132H19.9868H20.061H20.1359H20.2113H20.2874H20.364H20.4413H20.5193H20.5978L20.677 11.75H20.7568H20.8372H20.9183H21C21.4142 11.75 21.75 11.4142 21.75 11C21.75 10.5858 21.4142 10.25 21 10.25H20.9183H20.8372H20.7568H20.677L20.5978 10.25H20.5193H20.4413H20.364H20.2874H20.2113H20.1359H20.061H19.9868H19.9132H19.8402H19.7678H19.696H19.6248H19.5542H19.4842H19.4148H19.346H19.2777H19.2101H19.143H19.0765H19.0105H18.9452H18.8804H18.8162H18.7525H18.6895H18.6269H18.565H18.5035H18.4427H18.3824H18.3226H18.2634H18.2047H18.1466H18.089H18.032H17.9754H17.9195H17.864H17.8091H17.7546H17.7007H17.6474H17.5945H17.5422H17.4903H17.439H17.3882H17.3379H17.288H17.2387H17.1899H17.1416H17.0937H17.0464H16.9995H16.9531H16.9072H16.8618H16.8168H16.7724H16.7284H16.6848H16.6418H16.5992H16.557H16.5153H16.4741H16.4333H16.393H16.3531H16.3137H16.2747H16.2361H16.198H16.1603H16.1231H16.0863H16.0499H16.0139H15.9784H15.9432H15.9085H15.8743H15.8404H15.8069H15.7739H15.7412H15.709H15.6771H15.6457H15.6146H15.584H15.5537H15.5238H15.4944H15.4652H15.4365H15.4082H15.3802H15.3526H15.3253H15.2985H15.272H15.2458H15.2201H15.1947L15.1696 10.25H15.1449H15.1205H15.0965H15.0729H15.0495H15.0265H15.0039H14.9816H14.9596H14.938H14.9167H14.8957H14.875H14.8547H14.8346H14.8149H14.7955H14.7764H14.7576H14.7392H14.721H14.7031H14.6855H14.6682H14.6513H14.6346H14.6181H14.602H14.5862H14.5706H14.5553H14.5403H14.5256H14.5111H14.4969H14.483H14.4693H14.4559H14.4428H14.4299H14.4172H14.4048H14.3927H14.3808H14.3691H14.3577H14.3465H14.3356H14.3249H14.3144H14.3042H14.2941H14.2843H14.2747H14.2654H14.2562H14.2473H14.2386H14.23H14.2217H14.2136H14.2057H14.198H14.1905H14.1832H14.176H14.1691H14.1623H14.1557H14.1493H14.1431H14.1371H14.1312H14.1255H14.12H14.1146H14.1094H14.1043H14.0994H14.0947H14.0901H14.0857H14.0814H14.0773H14.0733H14.0694H14.0657H14.0621H14.0587H14.0553H14.0522H14.0491H14.0461H14.0433H14.0406H14.038H14.0355H14.0332H14.0309H14.0288H14.0267H14.0247H14.0229H14.0211H14.0195H14.0179H14.0164H14.015H14.0137H14.0124H14.0113H14.0102H14.0092H14.0082H14.0073H14.0065H14.0058H14.0051H14.0044H14.0039H14.0033H14.0029H14.0024H14.002H14.0017H14.0014H14.0011H14.0009H14.0007H14.0006H14.0004H14.0003H14.0002H14.0001H14.0001H14.0001H14H14H14H14H14H13.9999H13.9999H13.9999H13.9998H13.9997H13.9996H13.9994H13.9993H13.9991H13.9989H13.9986H13.9983H13.998H13.9976H13.9971H13.9967H13.9961H13.9956H13.9949H13.9942H13.9935H13.9927H13.9918H13.9908H13.9898H13.9887H13.9876H13.9863H13.985H13.9836H13.9821H13.9805H13.9789H13.9771H13.9753H13.9733H13.9712H13.9691H13.9668H13.9645H13.962H13.9594H13.9567H13.9539H13.9509H13.9478H13.9447H13.9413H13.9379H13.9343H13.9306H13.9267H13.9227H13.9186H13.9143H13.9099H13.9053H13.9006H13.8957H13.8906H13.8854H13.88H13.8745H13.8688H13.8629H13.8569H13.8507H13.8443H13.8377H13.8309H13.824H13.8168H13.8095H13.802H13.7943H13.7864H13.7783H13.77H13.7614H13.7527H13.7438H13.7346H13.7253H13.7157H13.7059H13.6958H13.6856H13.6751H13.6644H13.6535H13.6423H13.6309H13.6192H13.6073H13.5952H13.5828H13.5701H13.5572H13.5441H13.5307H13.517H13.5031H13.4889H13.4744H13.4597H13.4447H13.4294H13.4138H13.398H13.3819H13.3654H13.3487H13.3318H13.3145H13.2969H13.279H13.2608H13.2424H13.2236H13.2045H13.1851H13.1654H13.1453H13.125H13.1043H13.0833H13.062H13.0404H13.0184H12.9961H12.9735H12.9505H12.9271H12.9035H12.8795H12.8551H12.8304H12.8053H12.7799H12.7542H12.728H12.7015H12.6747H12.6474H12.6198H12.5918H12.5635H12.5348H12.5056H12.4762H12.4463H12.416H12.3854H12.3543H12.3229H12.291H12.2588H12.2261H12.1931H12.1596H12.1257H12.0915H12.0568H12.0216H11.9861H11.9501H11.9137H11.8769H11.8397H11.802H11.7639H11.7253H11.6863H11.6469H11.607H11.5667H11.5259H11.4847H11.443H11.4008H11.3582H11.3152H11.2716H11.2276H11.1832H11.1382H11.0928H11.0469H11.0005H10.9536H10.9063H10.8584H10.8101H10.7613H10.712H10.6621H10.6118H10.561H10.5097H10.4578H10.4055H10.3526H10.2993H10.2454H10.1909H10.136H10.0805H10.0246H9.96803H9.91098H9.85339H9.79526H9.73659L9.67737 10.25H9.61762H9.55731H9.49645H9.43504H9.37307H9.31055H9.24746H9.18381H9.1196H9.05481H8.98946H8.92353H8.85703H8.78995H8.72229H8.65404H8.58521H8.51579H8.44578H8.37517H8.30398H8.23218H8.15978H8.08678H8.01317H7.93895H7.86413H7.78869H7.71263H7.63596H7.55866H7.48074H7.4022H7.32302H7.24322H7.16278H7.08171H7ZM15.25 17C15.25 16.5858 15.5858 16.25 16 16.25H21C21.4142 16.25 21.75 16.5858 21.75 17C21.75 17.4142 21.4142 17.75 21 17.75H16C15.5858 17.75 15.25 17.4142 15.25 17ZM9.94531 19.9879C9.6451 20.2733 9.17038 20.2613 8.88499 19.9611C8.5996 19.6609 8.61162 19.1861 8.91183 18.9008L10.1225 17.7499H6C3.92893 17.7499 2.25 16.071 2.25 13.9999V8.99981C2.25 8.5856 2.58579 8.24981 3 8.24981C3.41421 8.24981 3.75 8.58559 3.75 8.99981L3.75 13.9999C3.75 15.2425 4.75736 16.2499 6 16.2499H10.1225L8.91183 15.099C8.61162 14.8136 8.5996 14.3389 8.88499 14.0387C9.17038 13.7385 9.6451 13.7265 9.94531 14.0119L12.5167 16.4563C12.6657 16.5979 12.75 16.7944 12.75 16.9999C12.75 17.2054 12.6657 17.4019 12.5167 17.5435L9.94531 19.9879Z" fill="#9F54B4"/>
</svg>
