<svg width="40" height="38" viewBox="0 0 40 38" fill="none" xmlns="http://www.w3.org/2000/svg">
<g clip-path="url(#clip0_1895_458)">
<path d="M34.3506 36.62L27.6482 22.1556L40.0057 18.0525L27.964 15.2994L34.4529 0.0454102C34.4529 0.0454102 24.2152 10.1073 24.2152 9.61956C24.2152 9.13178 22.1022 1.50649 22.1022 1.50649L19.9938 10.4318L9.91395 0.0454102L14.3012 10.5951L8.61322 8.32637L11.5384 12.8639L0 11.2429L11.7009 18.0582L3.25012 20.6548L12.1882 21.467L1.13601 28.6068L14.7874 27.309L14.3001 37.0454L21.0025 26.1679L34.3506 36.62Z" fill="#F4BF4B"/>
<path d="M28.8296 29.5984L23.8005 20.9L30.0758 18.3499L23.7209 17.4855L26.6746 10.542C26.6746 10.542 22.0169 15.1215 22.0169 14.9003C22.0169 14.6791 21.0559 11.2067 21.0559 11.2067L20.0948 15.2689L15.511 10.542L17.5081 15.3427L14.9191 14.3093L16.2505 16.3806L10.9988 15.6422L16.3244 18.7401L12.4779 19.9222L16.5459 20.292L11.5168 23.542L17.7296 22.9509L17.5081 27.3841L21.4785 22.9078L28.8296 29.5984Z" fill="#FEFFEF"/>
</g>
<defs>
<clipPath id="clip0_1895_458">
<rect width="40" height="37" fill="white" transform="translate(0 0.0454102)"/>
</clipPath>
</defs>
</svg>
