<svg width="243" height="65" viewBox="0 0 243 65" fill="none" xmlns="http://www.w3.org/2000/svg">
<g clip-path="url(#clip0_2090_909)">
<path fill-rule="evenodd" clip-rule="evenodd" d="M47.3641 0H48.4239C51.5554 0.168669 54.4196 2.1386 55.8772 4.88503C57.0387 6.89315 56.8001 9.36908 56.1445 11.5045C56.5296 12.8538 57.217 14.1332 57.3952 15.5303C57.5416 16.3927 56.3068 16.3991 56.014 15.769C54.2223 12.7966 52.577 9.72233 50.7948 6.75312C50.2224 5.93559 49.3528 5.37459 48.372 5.19021C47.3912 5.00583 46.3772 5.21271 45.547 5.76657C43.9558 6.7213 43.2524 8.949 44.2549 10.5816C48.8153 18.5377 53.4267 26.4333 57.9998 34.3703C58.6522 35.5541 59.1837 37.0308 58.5886 38.342C58.0953 39.3826 56.8828 39.7995 55.804 39.8122C52.8857 39.8345 49.9674 39.8122 47.0459 39.8122C45.7846 39.8318 44.5409 39.5147 43.4429 38.8938C42.3449 38.273 41.4322 37.3706 40.7988 36.2797C33.9544 24.4708 27.1048 12.6629 20.2498 0.856074C23.4132 0.801973 26.4142 2.49821 28.3618 4.92322C29.3739 6.13255 30.0963 7.54555 30.9078 8.89808C35.3377 16.5656 39.7804 24.2279 44.2358 31.8848C44.6483 32.6809 45.1364 33.4354 45.6934 34.138C46.2248 34.7203 47.0491 34.8922 47.8065 34.9049C49.3118 34.924 50.8234 34.9049 52.3287 34.9049C48.1534 27.6914 43.9738 20.4779 39.79 13.2644C37.5304 9.80508 38.6538 4.99006 41.6103 2.31045C43.1124 0.792426 45.2765 0.149574 47.3641 0ZM69.2656 8.69759C71.9484 6.98544 75.8724 7.52327 77.8582 10.0533C77.244 10.6707 76.5852 11.2531 75.9488 11.8482C75.5662 11.3818 75.0875 11.0034 74.5455 10.7387C74.0035 10.474 73.4107 10.3292 72.8077 10.3143C72.0089 10.3143 70.9778 10.4384 70.58 11.2499C70.2777 11.9373 70.8791 12.5738 71.4743 12.8188C73.2182 13.5699 75.22 13.8404 76.7221 15.0847C78.2242 16.3291 78.2847 18.8209 77.0881 20.3103C75.8151 21.841 73.6701 22.1975 71.7925 22.0352C70.893 21.9968 70.0128 21.7619 69.2139 21.3467C68.415 20.9316 67.7168 20.3465 67.1684 19.6324C67.7858 18.9959 68.4764 18.4454 69.1097 17.8312C69.524 18.3428 70.0465 18.7564 70.6397 19.0419C71.2329 19.3275 71.882 19.4781 72.5404 19.4829C73.4314 19.4829 74.5039 19.3365 75.0227 18.5281C75.4237 17.7039 74.7872 16.8669 74.0743 16.5487C72.3176 15.6798 70.1822 15.5271 68.7119 14.1236C67.213 12.6438 67.5089 9.85918 69.2656 8.7135V8.69759ZM79.5067 7.91471C80.4614 7.91471 81.4416 7.91471 82.4091 7.91471C83.4307 11.4631 84.3822 15.0338 85.4069 18.5822C86.4953 15.037 87.4978 11.4663 88.5512 7.91153C89.5727 7.91153 90.5975 7.91153 91.6191 7.91153C92.6502 11.4822 93.7131 15.037 94.7124 18.6109C95.7976 15.0688 96.7141 11.4727 97.7611 7.91471C98.7159 7.91471 99.6451 7.91471 100.59 7.91471C99.2092 12.5738 97.8025 17.2265 96.4277 21.8951H93.0384C92.0296 18.6013 91.1067 15.2757 90.031 11.9978C89.054 15.3011 88.0484 18.5918 87.0745 21.8951C85.9352 21.8951 84.7959 21.8951 83.6566 21.8951C82.3136 17.2265 80.8943 12.5833 79.5194 7.92744L79.5067 7.91471ZM105.969 7.91471C107.092 7.88289 108.215 7.91471 109.339 7.91471C111.016 12.5642 112.636 17.2361 114.284 21.9174C113.355 21.9174 112.429 21.9174 111.503 21.9174C111.185 21.0741 110.905 20.218 110.605 19.3715C108.696 19.3715 106.787 19.3715 104.877 19.3715C104.587 20.2148 104.304 21.0582 104.037 21.9015C103.028 21.9015 102.022 21.9015 101.017 21.9015C102.703 17.2552 104.253 12.5611 105.965 7.92426L105.969 7.91471ZM105.733 16.7905C107.054 16.7905 108.375 16.7905 109.695 16.7905C109.059 14.8811 108.355 12.9716 107.735 11.0621C107.047 12.9716 106.424 14.8811 105.733 16.7905ZM116.961 21.8824C116.961 17.2148 116.961 12.5536 116.961 7.8988C117.823 7.8988 118.679 7.8988 119.542 7.8988C121.888 11.0049 124.244 14.1056 126.61 17.201C126.651 14.0982 126.61 10.9921 126.629 7.88925H129.414C129.414 12.5568 129.414 17.218 129.414 21.8729H126.829C124.443 18.8018 122.174 15.6353 119.733 12.6088C119.701 15.6989 119.733 18.7859 119.733 21.8729L116.961 21.8824ZM13.4712 10.502C17.8312 18.0762 22.2134 25.6334 26.6179 33.1737C26.9677 33.7339 27.2864 34.3129 27.5726 34.9081H23.2572C22.5507 34.9081 21.7678 34.8254 21.2109 34.3416C20.4662 33.7051 20.0875 32.7918 19.5879 31.9771C18.3149 29.8353 17.1088 27.6553 15.8103 25.5327C13.8722 22.4489 10.4766 20.0875 6.73721 20.1543C9.81462 25.5358 12.9557 30.8855 16.0586 36.2543C16.6631 37.3124 17.5307 38.1965 18.5772 38.8209C19.6237 39.4453 20.8137 39.789 22.032 39.8186C26.847 39.8186 31.662 39.8186 36.477 39.8186C32.3441 32.6984 28.2091 25.5783 24.0719 18.4581C23.2477 17.061 22.4998 15.5939 21.4114 14.3782C19.4606 12.0646 16.5487 10.5243 13.4712 10.502ZM68.3459 25.8668C69.2752 25.8668 70.2045 25.8668 71.1337 25.8668C71.1337 27.719 71.1337 29.568 71.1337 31.4202C72.9382 31.4202 74.7426 31.4202 76.5439 31.4202C76.5439 29.5616 76.5184 27.7031 76.5598 25.8477C77.4763 25.8477 78.3929 25.8477 79.3126 25.8477C79.3412 30.51 79.3126 35.1754 79.3126 39.8504H76.528C76.528 37.9219 76.528 35.9933 76.528 34.0648C74.7235 34.0648 72.9159 34.0648 71.1178 34.0648C71.1178 35.9933 71.1178 37.9219 71.1178 39.8536C70.1886 39.8536 69.2593 39.8536 68.3332 39.8536C68.3332 35.186 68.3332 30.5185 68.3332 25.8509L68.3459 25.8668ZM83.3893 25.8668C86.2535 25.8668 89.1177 25.8668 91.9818 25.8668C91.9818 26.7452 91.9818 27.6214 91.9818 28.4955C90.0406 28.4955 88.0993 28.4955 86.158 28.4955C86.158 29.5012 86.158 30.5004 86.158 31.5029C87.9211 31.5029 89.6809 31.5029 91.4408 31.5029V34.052C89.6778 34.052 87.9179 34.052 86.1516 34.052C86.1516 35.0959 86.1516 36.1365 86.1516 37.1804C88.1216 37.1804 90.0915 37.1804 92.0614 37.1804C92.0614 38.0651 92.0614 38.9466 92.0614 39.8345C89.1749 39.8345 86.2853 39.8345 83.3988 39.8345C83.3988 35.1722 83.3988 30.51 83.3988 25.8477L83.3893 25.8668ZM95.4825 25.8668C96.4945 25.8668 97.5066 25.8668 98.5186 25.8668C98.5186 29.6316 98.5186 33.3901 98.5186 37.1549C100.396 37.1549 102.274 37.1549 104.151 37.1549C104.151 38.0492 104.151 38.9466 104.151 39.8409C101.262 39.8409 98.3722 39.8409 95.4825 39.8409C95.4825 35.1733 95.4825 30.511 95.4825 25.8541V25.8668ZM106.939 25.8668C107.958 25.8668 108.978 25.8668 110.001 25.8668C110.001 29.6316 110.001 33.3965 110.001 37.1613H115.599V39.8504C112.709 39.8504 109.823 39.8504 106.936 39.8504C106.936 35.1829 106.936 30.5206 106.936 25.8636L106.939 25.8668ZM118.396 25.8668C121.26 25.8668 124.109 25.8668 126.97 25.8668C126.97 26.742 126.97 27.6172 126.97 28.4923C125.031 28.4923 123.093 28.4923 121.152 28.4923C121.152 29.4948 121.152 30.4941 121.152 31.4997C122.915 31.4997 124.672 31.4997 126.435 31.4997C126.435 32.3526 126.435 33.2087 126.435 34.0616C124.672 34.0616 122.912 34.0616 121.149 34.0616C121.149 35.1054 121.149 36.1493 121.149 37.1931C123.122 37.1931 125.095 37.174 127.068 37.1931C127.068 38.0746 127.068 38.9593 127.068 39.8377C124.182 39.8377 121.292 39.8377 118.406 39.8377C118.406 35.1701 118.406 30.5026 118.406 25.835L118.396 25.8668ZM130.489 25.8668C131.342 25.8668 132.192 25.8668 133.035 25.8668C135.406 28.9601 137.748 32.0757 140.126 35.1691C140.158 32.0662 140.126 28.9697 140.126 25.87C141.055 25.87 141.984 25.87 142.913 25.87C142.913 30.5376 142.913 35.1945 142.913 39.8409H140.333C137.943 36.7476 135.616 33.6001 133.217 30.5132C133.217 33.6224 133.217 36.7316 133.217 39.8409C132.3 39.8409 131.384 39.8409 130.467 39.8409C130.467 35.1733 130.467 30.5057 130.467 25.8382L130.489 25.8668ZM147.003 25.8668H149.784C149.784 30.5259 149.803 35.1882 149.784 39.8472H147.028C147.028 35.1797 147.028 30.5185 147.028 25.8636L147.003 25.8668ZM155.576 27.2003C158.667 24.5557 163.933 25.329 166.148 28.7374V28.7819C165.378 29.2593 164.611 29.7367 163.838 30.2108C163.138 29.2561 162.129 28.4573 160.92 28.3014C160.01 28.1667 159.08 28.3099 158.253 28.7123C157.426 29.1146 156.74 29.7574 156.284 30.5563C155.828 31.3553 155.625 32.2732 155.699 33.19C155.774 34.1067 156.124 34.9796 156.703 35.6942C157.331 36.4746 158.201 37.0235 159.175 37.254C160.15 37.4846 161.174 37.3836 162.084 36.9671C162.813 36.6489 163.357 36.0124 163.86 35.4364C164.611 35.9201 165.369 36.3911 166.148 36.8367V37.1963L166.012 37.2376C165.016 38.1924 163.988 39.1471 162.641 39.564C159.43 40.7956 155.487 39.284 153.915 36.2288C152.27 33.3233 152.919 29.2816 155.576 27.1939V27.2003ZM0 29.7812C3.40202 29.8035 6.61628 31.7257 8.59257 34.4498C9.80189 36.1652 10.763 38.0428 11.8737 39.8218C9.86236 39.7772 7.84151 39.9013 5.82703 39.7645C3.81892 36.493 1.98584 33.1291 0 29.848V30.2331V29.7812Z" fill="white"/>
</g>
<line y1="64.5" x2="243" y2="64.5" stroke="#464756"/>
<defs>
<clipPath id="clip0_2090_909">
<rect width="166.164" height="40" fill="white"/>
</clipPath>
</defs>
</svg>
