<svg width="21" height="15" viewBox="0 0 21 15" fill="none" xmlns="http://www.w3.org/2000/svg">
<path d="M10.685 9.35H9.305V9.23C9.305 8.74 9.385 8.375 9.545 8.135C9.705 7.895 10.005 7.625 10.445 7.325L11.525 6.575C12.315 6.045 12.71 5.445 12.71 4.775C12.71 4.275 12.555 3.895 12.245 3.635C11.935 3.365 11.53 3.23 11.03 3.23C10.5 3.23 10.085 3.395 9.785 3.725C9.485 4.045 9.335 4.47 9.335 5V5.48H8V4.955C8 4.035 8.27 3.315 8.81 2.795C9.36 2.265 10.1 2 11.03 2C11.95 2 12.69 2.24 13.25 2.72C13.82 3.19 14.105 3.875 14.105 4.775C14.105 5.405 13.95 5.94 13.64 6.38C13.33 6.81 12.875 7.225 12.275 7.625L11.195 8.36C10.855 8.6 10.685 8.93 10.685 9.35ZM9.305 12.1589V10.7336H10.685V12.1589H9.305Z" fill="#B8D9D3"/>
<path fill-rule="evenodd" clip-rule="evenodd" d="M18 1H3C1.89543 1 1 1.89543 1 3V12C1 13.1046 1.89543 14 3 14H18C19.1046 14 20 13.1046 20 12V3C20 1.89543 19.1046 1 18 1ZM3 0C1.34315 0 0 1.34315 0 3V12C0 13.6569 1.34315 15 3 15H18C19.6569 15 21 13.6569 21 12V3C21 1.34315 19.6569 0 18 0H3Z" fill="#B8D9D3"/>
</svg>
