<svg width="21" height="15" viewBox="0 0 21 15" fill="none" xmlns="http://www.w3.org/2000/svg">
<mask id="mask0_124_3430" style="mask-type:alpha" maskUnits="userSpaceOnUse" x="0" y="0" width="21" height="15">
<path d="M19 0H2C0.89543 0 0 0.89543 0 2V13C0 14.1046 0.89543 15 2 15H19C20.1046 15 21 14.1046 21 13V2C21 0.89543 20.1046 0 19 0Z" fill="white"/>
</mask>
<g mask="url(#mask0_124_3430)">
<path d="M19 0H2C0.89543 0 0 0.89543 0 2V13C0 14.1046 0.89543 15 2 15H19C20.1046 15 21 14.1046 21 13V2C21 0.89543 20.1046 0 19 0Z" fill="#E02600"/>
<path fill-rule="evenodd" clip-rule="evenodd" d="M5.498 7.23L4.028 8.003L4.308 6.366L3.12 5.206L4.763 4.969L5.498 3.479L6.232 4.969L7.875 5.206L6.685 6.366L6.967 8.002L5.498 7.23ZM9 3H10V4H9V3ZM10 5H11V6H10V5ZM10 7H11V8H10V7ZM9 9H10V10H9V9Z" fill="#FFE000"/>
</g>
</svg>
