<svg width="21" height="15" viewBox="0 0 21 15" fill="none" xmlns="http://www.w3.org/2000/svg">
<mask id="mask0_124_3921" style="mask-type:alpha" maskUnits="userSpaceOnUse" x="0" y="0" width="21" height="15">
<path d="M19 0H2C0.89543 0 0 0.89543 0 2V13C0 14.1046 0.89543 15 2 15H19C20.1046 15 21 14.1046 21 13V2C21 0.89543 20.1046 0 19 0Z" fill="white"/>
</mask>
<g mask="url(#mask0_124_3921)">
<path d="M19 0H2C0.89543 0 0 0.89543 0 2V13C0 14.1046 0.89543 15 2 15H19C20.1046 15 21 14.1046 21 13V2C21 0.89543 20.1046 0 19 0Z" fill="#72D2FF"/>
<path fill-rule="evenodd" clip-rule="evenodd" d="M6 13L10.5 2L15 13H6Z" fill="white"/>
<path fill-rule="evenodd" clip-rule="evenodd" d="M7 13L10.5 4L14 13H7Z" fill="black"/>
<path fill-rule="evenodd" clip-rule="evenodd" d="M6 13L10.5 8L15 13H6Z" fill="#FCD715"/>
</g>
</svg>
