<svg width="21" height="15" viewBox="0 0 21 15" fill="none" xmlns="http://www.w3.org/2000/svg">
<mask id="mask0_124_3935" style="mask-type:alpha" maskUnits="userSpaceOnUse" x="0" y="0" width="21" height="15">
<path d="M19 0H2C0.89543 0 0 0.89543 0 2V13C0 14.1046 0.89543 15 2 15H19C20.1046 15 21 14.1046 21 13V2C21 0.89543 20.1046 0 19 0Z" fill="white"/>
</mask>
<g mask="url(#mask0_124_3935)">
<path d="M19 0H2C0.89543 0 0 0.89543 0 2V13C0 14.1046 0.89543 15 2 15H19C20.1046 15 21 14.1046 21 13V2C21 0.89543 20.1046 0 19 0Z" fill="#FFBF00"/>
<path fill-rule="evenodd" clip-rule="evenodd" d="M2 2H5V13H2V2Z" fill="#00614A"/>
<path fill-rule="evenodd" clip-rule="evenodd" d="M5 2H8V13H5V2Z" fill="#FF6600"/>
<path fill-rule="evenodd" clip-rule="evenodd" d="M9 2H19V13H9V2Z" fill="#98232E"/>
<path fill-rule="evenodd" clip-rule="evenodd" d="M12.535 10.616L12.593 10.572L12.617 10.616C12.65 10.676 12.741 10.674 12.801 10.616L12.848 10.569L12.888 10.614C12.938 10.674 13.032 10.674 13.092 10.614C13.136 10.572 13.142 10.571 13.17 10.604C13.186 10.622 13.235 10.644 13.278 10.651C13.356 10.665 13.358 10.664 13.403 10.573C13.443 10.497 13.448 10.467 13.439 10.393C13.433 10.343 13.426 10.265 13.424 10.218C13.422 10.132 13.422 10.131 13.516 10.088C13.566 10.064 13.626 10.032 13.649 10.016C13.686 9.99001 13.789 9.82901 13.789 9.79601C13.789 9.78801 13.749 9.77601 13.699 9.76801C13.504 9.73801 13.471 9.59801 13.599 9.33801C13.806 8.91601 13.931 8.50301 13.932 8.24001C13.932 8.12301 13.937 8.08301 13.949 8.11001C13.995 8.21301 13.912 8.65001 13.786 8.96501L13.736 9.09201L13.784 9.07701C13.81 9.06701 13.967 8.98001 14.131 8.88101C14.581 8.61101 14.736 8.55701 15.028 8.57301C15.272 8.58701 15.376 8.65001 15.548 8.89101C15.64 9.01801 15.728 9.10901 15.888 9.24301C16.232 9.52901 16.246 9.55301 16.262 9.88901C16.279 10.229 16.272 10.249 16.077 10.305C15.912 10.353 15.807 10.455 15.78 10.598C15.766 10.675 15.797 10.678 15.88 10.606L15.94 10.554L15.968 10.606C16.004 10.676 16.08 10.676 16.143 10.606L16.19 10.556L16.238 10.606C16.314 10.686 16.415 10.668 16.443 10.566C16.448 10.548 16.463 10.554 16.493 10.588C16.548 10.652 16.689 10.68 16.705 10.628C16.711 10.61 16.699 10.563 16.68 10.524C16.598 10.36 16.572 10.281 16.57 10.192C16.57 10.068 16.597 10.008 16.704 9.90601C16.834 9.78301 16.874 9.62601 16.776 9.62601C16.716 9.62601 16.654 9.55301 16.616 9.43601C16.536 9.20101 16.551 8.93601 16.67 8.49601C16.79 8.04601 16.804 7.96601 16.805 7.66601C16.805 7.42301 16.802 7.38101 16.76 7.24801C16.735 7.16801 16.683 7.04601 16.646 6.98001L16.579 6.86001L16.666 6.76201C16.933 6.46801 16.879 5.98601 16.556 5.80201C16.459 5.74401 16.434 5.73901 16.262 5.74201C16.158 5.74201 16.002 5.76001 15.912 5.78201C15.82 5.80201 15.666 5.82001 15.56 5.82001C15.392 5.82001 15.364 5.81601 15.3 5.77001C15.232 5.72201 15.22 5.70001 15.207 5.59001C15.205 5.56601 15.193 5.54401 15.181 5.54001C15.158 5.53001 15.051 5.65001 15.037 5.70601C15.029 5.73201 15.022 5.73001 15 5.69601C14.985 5.67101 14.964 5.61601 14.953 5.57401C14.926 5.46601 14.959 5.38401 15.053 5.32401L15.128 5.27801L15.086 5.24201C14.996 5.16801 14.843 5.21801 14.788 5.34201C14.772 5.37501 14.755 5.40401 14.75 5.40401C14.745 5.40401 14.715 5.37101 14.684 5.33101C14.568 5.18101 14.608 4.95701 14.764 4.88801C14.846 4.85201 14.919 4.88001 14.934 4.95301C14.957 5.06501 15.03 4.91801 15.017 4.78501C15.007 4.69701 15.007 4.69301 15.054 4.69301C15.118 4.69301 15.254 4.80501 15.297 4.89301C15.347 4.99301 15.342 5.15301 15.287 5.27101L15.247 5.36401L15.301 5.35001C15.381 5.32801 15.461 5.26001 15.501 5.18001C15.543 5.09401 15.548 4.92701 15.511 4.83601C15.474 4.74901 15.478 4.73601 15.531 4.76601C15.623 4.81601 15.671 4.87001 15.708 4.96601C15.742 5.05101 15.744 5.07201 15.726 5.16101C15.716 5.21601 15.691 5.28801 15.672 5.32101C15.642 5.37401 15.642 5.38301 15.665 5.38301C15.708 5.38301 15.8 5.32801 15.832 5.28301C15.848 5.25901 15.872 5.20301 15.885 5.15501L15.908 5.07101L15.935 5.13501C15.973 5.22501 16.045 5.30801 16.135 5.35901C16.232 5.41501 16.272 5.41901 16.222 5.36701C16.188 5.33201 16.125 5.08701 16.144 5.06401C16.154 5.05001 16.286 5.18401 16.434 5.36201C16.576 5.53201 16.664 5.58601 16.794 5.58601C16.961 5.58601 17.057 5.39401 16.984 5.21301C16.939 5.10701 16.842 5.09301 16.786 5.18301C16.76 5.22501 16.753 5.25801 16.76 5.30101C16.77 5.35501 16.766 5.36101 16.73 5.36101C16.68 5.36101 16.586 5.28101 16.418 5.09301C16.161 4.80801 15.848 4.56601 15.623 4.47801C15.478 4.42001 15.169 4.39801 15.023 4.43401C14.863 4.47201 14.673 4.59401 14.571 4.72401C14.389 4.95401 14.387 5.25901 14.564 5.53801L14.614 5.61801L14.58 5.68801C14.53 5.79201 14.534 5.93101 14.59 6.03301C14.615 6.07801 14.64 6.11501 14.646 6.11501C14.652 6.11501 14.658 6.08501 14.66 6.05001C14.665 5.96001 14.694 5.90001 14.744 5.87701C14.788 5.85501 14.817 5.86501 15.022 5.97301C15.237 6.08801 15.59 6.09501 15.966 5.99301C16.151 5.94501 16.368 5.94801 16.464 6.00101C16.639 6.09901 16.68 6.35301 16.551 6.54601C16.495 6.62801 16.441 6.66201 16.261 6.72801C16.123 6.77801 16.091 6.78201 15.778 6.77801C15.511 6.77401 15.415 6.78101 15.306 6.81101C15.188 6.84401 15.116 6.84701 14.768 6.83601L14.366 6.82201L14.411 6.87201C14.435 6.89801 14.471 6.93201 14.488 6.94501C14.518 6.96701 14.518 6.97001 14.472 6.99201C14.445 7.00601 14.387 7.01601 14.342 7.01601H14.259L14.249 7.11001C14.243 7.16201 14.243 7.22001 14.249 7.24301C14.259 7.27601 14.256 7.28001 14.229 7.26801C14.213 7.25801 14.165 7.24301 14.123 7.23101C14.081 7.21901 14.025 7.19601 13.998 7.17801C13.952 7.14801 13.948 7.14801 13.93 7.18801C13.916 7.22401 13.776 7.36201 13.755 7.36201C13.752 7.36201 13.748 7.33501 13.745 7.30201C13.745 7.27001 13.725 7.18501 13.701 7.11401C13.679 7.04401 13.655 6.96601 13.649 6.94201C13.639 6.90601 13.636 6.90401 13.624 6.93201C13.617 6.94901 13.606 6.99701 13.6 7.03901C13.595 7.07901 13.574 7.14901 13.554 7.18901L13.518 7.26301L13.495 7.19901C13.471 7.13101 13.43 7.05901 13.415 7.05901C13.41 7.05901 13.401 7.08201 13.395 7.10901C13.385 7.16401 13.288 7.31901 13.265 7.31901C13.255 7.31901 13.248 7.27501 13.248 7.22201C13.248 7.16801 13.241 7.12501 13.231 7.12501C13.223 7.12501 13.215 7.13801 13.215 7.15501C13.215 7.19501 13.132 7.31801 13.105 7.31801C13.092 7.31801 13.073 7.33201 13.061 7.35001C13.031 7.39601 13.006 7.39001 13.018 7.34001C13.025 7.31501 13.021 7.26001 13.01 7.21501L12.983 7.11001C12.979 7.09401 12.95 7.09801 12.887 7.12501C12.785 7.16801 12.751 7.16101 12.803 7.10501C12.823 7.08501 12.853 7.01701 12.868 6.95301C12.884 6.88901 12.908 6.83301 12.922 6.82601C12.94 6.82001 12.939 6.82901 12.917 6.86801C12.902 6.89601 12.889 6.93401 12.889 6.95201C12.889 6.97001 12.876 7.01201 12.862 7.04701C12.848 7.08301 12.839 7.11401 12.842 7.11701C12.846 7.12201 12.884 7.10301 12.928 7.07501L13.008 7.02501V7.07001C13.008 7.09501 13.018 7.16001 13.028 7.21601L13.05 7.31601L13.104 7.28301C13.159 7.24901 13.212 7.12801 13.212 7.03501C13.212 6.98701 13.232 6.99501 13.24 7.04501L13.268 7.16501L13.292 7.25901L13.329 7.19901C13.349 7.16601 13.376 7.10201 13.387 7.05601C13.407 6.97801 13.435 6.94401 13.435 7.00101C13.435 7.04301 13.521 7.19101 13.537 7.17901C13.545 7.17301 13.561 7.11701 13.572 7.05501C13.596 6.92501 13.634 6.83701 13.659 6.85501C13.669 6.86301 13.671 6.87501 13.666 6.88501C13.662 6.89501 13.681 6.98001 13.71 7.07301C13.74 7.16601 13.77 7.26001 13.775 7.28101C13.785 7.31601 13.795 7.31101 13.857 7.23801C13.897 7.19301 13.931 7.14301 13.935 7.12601C13.941 7.10201 13.95 7.10301 13.985 7.13201C14.035 7.17401 14.205 7.24201 14.218 7.22401C14.223 7.21801 14.228 7.15901 14.228 7.09401L14.231 6.97401L14.281 6.98701C14.308 6.99501 14.364 6.99401 14.406 6.98701L14.482 6.97201L14.415 6.91001C14.378 6.87601 14.34 6.83201 14.331 6.81201C14.321 6.79201 14.287 6.77201 14.251 6.76901C14.148 6.75701 13.967 6.62201 13.967 6.55901C13.967 6.54601 13.992 6.56601 14.023 6.60401C14.091 6.68601 14.185 6.73801 14.267 6.73801H14.329L14.291 6.67201C14.269 6.63201 14.249 6.56001 14.244 6.49901C14.237 6.40401 14.229 6.38901 14.154 6.31901C14.109 6.27701 14.052 6.21401 14.029 6.17901L13.987 6.11601L13.965 6.19101C13.953 6.23301 13.938 6.26601 13.933 6.26601C13.927 6.26601 13.903 6.24201 13.883 6.21301C13.86 6.18301 13.837 6.15901 13.833 6.15901C13.826 6.15901 13.807 6.19901 13.788 6.24901L13.755 6.33601L13.729 6.28601C13.714 6.25601 13.681 6.20801 13.654 6.17601C13.627 6.14201 13.612 6.11601 13.622 6.11601C13.632 6.11601 13.666 6.15001 13.697 6.19101L13.754 6.26701L13.777 6.21101C13.79 6.17901 13.795 6.12801 13.789 6.08701C13.779 6.02701 13.781 6.02501 13.799 6.06201C13.809 6.08601 13.842 6.13201 13.872 6.16201L13.926 6.22201L13.963 6.13201C14 6.04201 14.001 6.04201 14.017 6.09401C14.04 6.16601 14.202 6.34401 14.34 6.44601C14.36 6.46201 14.352 6.40601 14.313 6.28101C14.303 6.24801 14.293 6.18801 14.293 6.14801C14.293 6.08801 14.281 6.06101 14.223 6.00301C14.141 5.91901 14.115 5.86001 14.099 5.72501C14.093 5.67001 14.079 5.60901 14.067 5.59001C14.05 5.56001 14.047 5.57701 14.052 5.67801C14.054 5.74801 14.047 5.83201 14.036 5.86801L14.016 5.93201L14 5.87801C13.99 5.84801 13.953 5.79801 13.915 5.76301C13.875 5.73001 13.85 5.69701 13.855 5.69001C13.86 5.68401 13.9 5.71401 13.942 5.75801C14.007 5.82501 14.022 5.83201 14.03 5.80301C14.04 5.76801 14.03 5.61701 14.01 5.51301C14 5.45901 14 5.45901 14.05 5.52301C14.086 5.57301 14.105 5.62901 14.12 5.72901C14.14 5.85601 14.15 5.87901 14.238 5.97901C14.291 6.04201 14.338 6.08901 14.34 6.08501C14.344 6.08101 14.35 5.92101 14.355 5.73001C14.365 5.36501 14.355 5.27801 14.288 5.16501L14.254 5.10701L14.307 5.03001C14.377 4.93001 14.409 4.85001 14.423 4.74001L14.435 4.65001L14.375 4.72701C14.325 4.78901 14.302 4.80301 14.245 4.80301C14.188 4.80301 14.165 4.79101 14.128 4.73601C14.082 4.67101 14 4.60901 13.922 4.57801C13.892 4.56801 13.882 4.57201 13.882 4.59801C13.882 4.61801 13.867 4.67201 13.847 4.72001L13.812 4.80801L13.738 4.71001C13.692 4.65001 13.638 4.60401 13.598 4.59001C13.495 4.55401 13.49 4.55701 13.49 4.66001C13.49 4.81301 13.44 4.84201 13.35 4.74001C13.283 4.66001 13.226 4.64401 13.097 4.66301L12.997 4.67801L13.017 4.73801C13.031 4.78801 13.027 4.80801 12.995 4.86501C12.943 4.95701 12.875 4.99701 12.771 4.99701C12.723 4.99701 12.663 5.01001 12.637 5.02701C12.612 5.04201 12.549 5.06101 12.497 5.06701C12.445 5.07401 12.39 5.08701 12.374 5.09401C12.35 5.10601 12.347 5.09601 12.354 5.02201C12.367 4.90801 12.308 4.82501 12.214 4.82501C12.094 4.82501 12.039 4.96801 12.086 5.15701C12.096 5.19301 12.106 5.25101 12.112 5.28401C12.119 5.31901 12.172 5.41201 12.24 5.50101C12.304 5.58701 12.364 5.67601 12.374 5.69901C12.384 5.72201 12.417 5.75901 12.447 5.78101L12.502 5.82101L12.495 5.74401C12.487 5.65801 12.501 5.64401 12.535 5.70401C12.548 5.72701 12.579 5.76201 12.605 5.78401C12.645 5.81601 12.652 5.81701 12.652 5.78801C12.652 5.76801 12.66 5.72801 12.67 5.69401L12.69 5.63401L12.72 5.71601C12.738 5.76101 12.796 5.86401 12.848 5.94601C12.95 6.10101 13.012 6.27601 12.98 6.31601C12.967 6.33301 12.932 6.33101 12.86 6.31201C12.803 6.29801 12.733 6.29001 12.704 6.29501C12.644 6.30501 12.641 6.29501 12.677 6.23501C12.715 6.17201 12.709 6.16201 12.634 6.16201C12.547 6.16201 12.332 6.10601 12.249 6.06201C12.169 6.02201 12.149 6.03201 12.126 6.13201L12.083 6.31701L12.06 6.41701L12.147 6.40701C12.195 6.40001 12.257 6.38701 12.284 6.37501C12.312 6.36501 12.337 6.35901 12.34 6.36201C12.343 6.36601 12.33 6.40601 12.313 6.45001L12.279 6.53001L12.334 6.51601C12.364 6.50801 12.409 6.48801 12.434 6.47201C12.478 6.44401 12.481 6.44601 12.516 6.51901C12.558 6.60901 12.592 6.60601 12.599 6.50901C12.607 6.41101 12.632 6.42601 12.679 6.55701C12.722 6.68301 12.769 6.72701 12.777 6.65301C12.78 6.62901 12.803 6.58801 12.83 6.56301C12.883 6.51301 12.923 6.52901 12.945 6.60701C12.97 6.68701 12.917 6.77101 12.765 6.89501C12.455 7.14301 12.277 7.48301 12.225 7.91501C12.179 8.30501 12.323 8.70901 12.612 8.99901C12.75 9.13901 12.97 9.28401 12.956 9.22901C12.898 8.99101 12.9 8.53901 12.96 8.46201C12.97 8.45001 12.966 8.49701 12.953 8.56601C12.905 8.82401 12.926 9.02901 13.05 9.51001C13.16 9.94601 13.146 10.132 12.988 10.254C12.938 10.294 12.904 10.3 12.768 10.298C12.62 10.296 12.604 10.3 12.556 10.35C12.51 10.4 12.451 10.56 12.451 10.634C12.451 10.674 12.484 10.669 12.551 10.618L12.535 10.616ZM11.415 9.81601C11.431 9.78901 11.443 9.74601 11.443 9.72101C11.443 9.68301 11.456 9.67301 11.52 9.66101L11.597 9.64701L11.547 9.59201C11.485 9.52801 11.479 9.47801 11.533 9.47801C11.586 9.47801 11.677 9.40401 11.691 9.34801C11.698 9.32401 11.694 9.29001 11.683 9.27201C11.653 9.22701 11.596 9.23401 11.586 9.28401C11.574 9.33801 11.556 9.33901 11.513 9.28401C11.449 9.20401 11.447 9.03601 11.51 8.93801C11.538 8.89201 11.538 8.88801 11.5 8.84201C11.46 8.79001 11.43 8.68901 11.45 8.66501C11.456 8.65801 11.488 8.66501 11.52 8.67901C11.568 8.69901 11.587 8.70101 11.606 8.67901C11.666 8.61901 11.601 8.53901 11.506 8.55701C11.469 8.56401 11.454 8.55701 11.448 8.53101C11.444 8.51101 11.411 8.48401 11.373 8.47101C11.307 8.44901 11.306 8.45101 11.306 8.51101C11.306 8.57801 11.276 8.59101 11.223 8.54801C11.178 8.51301 11.135 8.54001 11.135 8.60301C11.135 8.66101 11.18 8.69001 11.259 8.68301C11.319 8.67801 11.322 8.73901 11.264 8.82501L11.222 8.88801L11.255 8.95101C11.305 9.04401 11.3 9.19901 11.245 9.27601L11.205 9.33601L11.177 9.28801C11.139 9.22101 11.087 9.22601 11.072 9.29801C11.062 9.34501 11.072 9.36601 11.115 9.41601C11.145 9.44901 11.188 9.47601 11.211 9.47601C11.269 9.47601 11.267 9.53601 11.207 9.59801L11.16 9.64601L11.234 9.66101C11.274 9.66901 11.306 9.68501 11.306 9.69601C11.306 9.73601 11.356 9.86401 11.373 9.86401C11.383 9.86401 11.403 9.84401 11.416 9.81701L11.415 9.81601ZM11.668 7.64601C11.834 7.54901 11.848 7.30201 11.692 7.23601C11.627 7.21001 11.586 7.22601 11.562 7.28301C11.542 7.32801 11.555 7.40901 11.582 7.40901C11.59 7.40901 11.597 7.42301 11.597 7.44101C11.597 7.52701 11.344 7.56601 11.241 7.49601C11.205 7.47101 11.191 7.40801 11.221 7.40801C11.241 7.40801 11.258 7.34201 11.247 7.29601C11.231 7.23401 11.183 7.21201 11.115 7.23601C10.96 7.29001 10.965 7.53201 11.122 7.63601C11.252 7.71901 11.536 7.72401 11.67 7.64601H11.668ZM11.565 7.45601C11.575 7.44601 11.571 7.42601 11.555 7.40901C11.52 7.37201 11.522 7.31701 11.56 7.25401C11.59 7.20701 11.593 7.13701 11.603 6.42801C11.62 5.20401 11.688 4.28501 11.778 4.06501C11.814 3.97701 11.808 3.97501 11.716 4.06001C11.596 4.16801 11.506 4.31001 11.426 4.51001C11.274 4.89001 11.221 5.40201 11.221 6.49401C11.221 7.11401 11.225 7.19401 11.251 7.25401C11.277 7.30801 11.278 7.32901 11.261 7.38801C11.249 7.42601 11.244 7.46301 11.249 7.46801C11.283 7.51201 11.529 7.50101 11.566 7.45501L11.565 7.45601Z" fill="#FFB700"/>
<path fill-rule="evenodd" clip-rule="evenodd" d="M10 3H11V4H10V3ZM17 3H18V4H17V3ZM10 11H11V12H10V11ZM17 11H18V12H17V11Z" fill="#DA8210"/>
</g>
</svg>
