<svg width="21" height="15" viewBox="0 0 21 15" fill="none" xmlns="http://www.w3.org/2000/svg">
<mask id="mask0_124_4679" style="mask-type:alpha" maskUnits="userSpaceOnUse" x="0" y="0" width="21" height="15">
<path d="M19 0H2C0.89543 0 0 0.89543 0 2V13C0 14.1046 0.89543 15 2 15H19C20.1046 15 21 14.1046 21 13V2C21 0.89543 20.1046 0 19 0Z" fill="white"/>
</mask>
<g mask="url(#mask0_124_4679)">
<path d="M19 0H2C0.89543 0 0 0.89543 0 2V13C0 14.1046 0.89543 15 2 15H19C20.1046 15 21 14.1046 21 13V2C21 0.89543 20.1046 0 19 0Z" fill="#0D8B00"/>
<path fill-rule="evenodd" clip-rule="evenodd" d="M19 6H21V15H19V6Z" fill="#F17D00"/>
<path fill-rule="evenodd" clip-rule="evenodd" d="M17 6H19V15H17V6Z" fill="black"/>
<path fill-rule="evenodd" clip-rule="evenodd" d="M15 6H17V15H15V6Z" fill="#E11C00"/>
<path fill-rule="evenodd" clip-rule="evenodd" d="M14 3L17 4L18 5L19 4L22 3H18L17 2V3H14Z" fill="#F17D00"/>
</g>
</svg>
