<svg width="50" height="50" viewBox="0 0 50 50" fill="none" xmlns="http://www.w3.org/2000/svg">
<path d="M0 0.999999C0 0.447714 0.447715 0 1 0H49C49.5523 0 50 0.447715 50 1V49C50 49.5523 49.5523 50 49 50H0.999999C0.447714 50 0 49.5523 0 49V0.999999Z" fill="#F0F3F6"/>
<path fill-rule="evenodd" clip-rule="evenodd" d="M39 39C39.5523 39 40 38.5523 40 38V19.6667L25 30.5942L10 19.6667V38C10 38.5523 10.4477 39 11 39H39Z" fill="#39AA5D"/>
<path d="M40 19.6667H10L25 30.5942L40 19.6667Z" fill="#56D67F"/>
<path d="M10 19.6667H40L25.5417 10.3491C25.2118 10.1365 24.7882 10.1365 24.4583 10.3491L10 19.6667Z" fill="#56D67F"/>
<path d="M25 30.6L16 24.048V18H34V24.048L25 30.6Z" fill="white"/>
</svg>
