<svg width="50" height="50" viewBox="0 0 50 50" fill="none" xmlns="http://www.w3.org/2000/svg">
<rect width="50" height="50" rx="1" fill="#F0F3F6"/>
<path d="M15.803 23.1857C15.5411 23.0345 15.3617 22.7729 15.315 22.4741L14.1246 14.8586C14.0519 14.3936 14.3133 13.9409 14.7523 13.7713L21.9427 10.9945C22.2249 10.8856 22.5411 10.9101 22.803 11.0614L38.2846 19.9997C38.7629 20.2758 38.9268 20.8874 38.6506 21.3657L32.6506 31.758C32.3745 32.2363 31.7629 32.4002 31.2846 32.124L15.803 23.1857Z" fill="#56D67F"/>
<path d="M13.0813 29.6976C12.8217 29.5477 12.643 29.2891 12.5945 28.9932L11.1323 20.0661C11.0553 19.5962 11.3203 19.1373 11.7657 18.969L20.2279 15.7718C20.5084 15.6658 20.8217 15.6913 21.0813 15.8412L39.2487 26.3301C39.727 26.6063 39.8909 27.2178 39.6147 27.6961L32.6147 39.8205C32.3386 40.2988 31.727 40.4627 31.2487 40.1865L13.0813 29.6976Z" fill="#39AA5D"/>
</svg>
