<svg width="50" height="50" viewBox="0 0 50 50" fill="none" xmlns="http://www.w3.org/2000/svg">
<path d="M11 19.1938C11 16.3257 11 14.8916 11.6795 13.7962C12.2772 12.8326 13.231 12.0491 14.404 11.5582C15.7376 11 17.4834 11 20.975 11H29.025C32.5166 11 34.2624 11 35.596 11.5582C36.769 12.0491 37.7228 12.8326 38.3205 13.7962C39 14.8916 39 16.3257 39 19.1938V25.8063C39 28.6743 39 30.1084 38.3205 31.2038C37.7228 32.1674 36.769 32.9509 35.596 33.4418C34.2624 34 32.5166 34 29.025 34H20.975C17.4834 34 15.7376 34 14.404 33.4418C13.231 32.9509 12.2772 32.1674 11.6795 31.2038C11 30.1084 11 28.6743 11 25.8063V19.1938Z" fill="#56D67F"/>
<rect x="17" y="16" width="16" height="5" rx="1" fill="white"/>
<path d="M20 43V34H29L20 43Z" fill="#56D67F"/>
</svg>
