<svg width="50" height="50" viewBox="0 0 50 50" fill="none" xmlns="http://www.w3.org/2000/svg">
<rect width="50" height="50" rx="1" fill="#F0F3F6"/>
<path d="M11 20.975C11 17.4834 11 15.7376 11.6795 14.404C12.2772 13.231 13.231 12.2772 14.404 11.6795C15.7376 11 17.4834 11 20.975 11H29.025C32.5166 11 34.2624 11 35.596 11.6795C36.769 12.2772 37.7228 13.231 38.3205 14.404C39 15.7376 39 17.4834 39 20.975V29.025C39 32.5166 39 34.2624 38.3205 35.596C37.7228 36.769 36.769 37.7228 35.596 38.3205C34.2624 39 32.5166 39 29.025 39H20.975C17.4834 39 15.7376 39 14.404 38.3205C13.231 37.7228 12.2772 36.769 11.6795 35.596C11 34.2624 11 32.5166 11 29.025V20.975Z" fill="#39AA5D"/>
<circle cx="25" cy="25" r="8" fill="white"/>
</svg>
