<svg width="243" height="74" viewBox="0 0 243 74" fill="none" xmlns="http://www.w3.org/2000/svg">
<path d="M41.6058 46.3064C37.8513 48.4012 31.4101 49 22.5 49C13.5899 49 7.14871 48.4012 3.39418 46.3064C1.1407 45.0522 0 43.3421 0 42.1161C0 41.4179 0.375841 41.0187 1.21276 41.0187H43.7864C44.6242 41.0187 44.9992 41.4179 44.9992 42.1161C45 43.3421 43.8593 45.0522 41.6058 46.3064ZM43.7864 13.8106H1.21276C0.375841 13.8106 0 13.3831 0 12.6137C0 8.05243 6.94647 0 22.5 0C37.9094 0 45 8.05243 45 12.6137C45 13.3831 44.6242 13.8106 43.7864 13.8106Z" fill="white"/>
<path d="M9.06857 32.6242C8.93844 32.4246 8.92444 32.2961 8.92444 32.2395C8.92444 32.0827 9.01127 31.9688 9.18405 31.812C9.5886 31.4411 10.5851 30.5149 11.1338 29.6744C11.5522 29.0328 11.7258 28.4484 11.7258 27.9643C11.7258 26.7246 10.5851 25.7549 9.34292 25.7549C8.54861 25.7549 7.79776 26.197 7.29246 27.0091C6.61364 28.0921 5.80461 29.3463 5.28545 29.8457C5.15524 29.9742 5.08314 30.0025 4.98245 30.0025C4.80884 30.0025 4.73677 29.8885 4.73677 29.7035V28.278C4.73677 26.8815 3.89908 25.7549 2.38255 25.7549C0.852062 25.7549 0.0283203 26.8807 0.0283203 28.278V37.0577C0.0283203 38.4542 0.851289 39.5807 2.38255 39.5807C3.89908 39.5807 4.73677 38.455 4.73677 37.0577V35.034C4.73677 34.8628 4.80884 34.735 4.98245 34.735C5.21335 34.735 5.27145 34.9629 5.32883 35.0769C5.66128 35.8608 6.62836 37.5281 7.52415 38.5115C8.13094 39.167 8.88186 39.5807 9.67616 39.5807C11.0191 39.5807 12.1458 38.4259 12.1458 37.1861C12.1458 36.4168 11.8134 35.8463 11.1779 35.1625C10.3689 34.2915 9.41575 33.1511 9.06857 32.6242Z" fill="white"/>
<path d="M27.0784 24.9421C29.3458 24.9421 30.7756 23.5165 30.7756 21.4363C30.7756 20.1109 29.9665 19.1985 28.3493 19.1985H27.8874C27.035 19.1985 26.3709 19.5977 26.3709 20.4956C26.3709 21.294 27.0784 21.6787 27.6131 21.6787C27.8874 21.6787 28.061 21.7644 28.061 21.964C28.061 22.2202 27.758 22.3915 27.4108 22.3915C26.3275 22.3915 25.5913 21.6359 25.5913 20.2248C25.5913 18.657 26.6026 18.0873 27.3822 18.0873C28.3353 18.0873 28.4942 18.5722 29.1583 18.5722C29.924 18.5722 30.4439 17.945 30.4439 17.2896C30.4439 16.8047 30.2269 16.4345 29.8952 16.1776C29.2885 15.7356 28.4368 15.4082 27.1659 15.4082C24.9272 15.4082 22.7466 16.8621 22.7466 20.2256C22.7458 23.4454 24.9264 24.9421 27.0784 24.9421Z" fill="white"/>
<path d="M1.68934 24.8567H3.72585C5.64686 24.8567 6.81626 23.5879 6.81626 22.0064C6.81626 20.7376 6.05061 20.1533 5.87782 20.0111C5.80572 19.9537 5.73369 19.8971 5.73369 19.8397C5.73369 19.7686 5.77707 19.7403 5.84917 19.6547C6.12344 19.3411 6.39778 18.8424 6.39778 18.1151C6.39778 16.405 5.22765 15.4927 3.40813 15.4927H1.68934C0.548648 15.4927 0 16.1488 0 17.0321V23.3172C0 24.2013 0.548648 24.8567 1.68934 24.8567ZM2.54176 17.9446C2.54176 17.7595 2.65723 17.6165 2.90287 17.6165H3.09041C3.71112 17.6165 3.89943 18.044 3.89943 18.4149C3.89943 18.7568 3.7119 19.2417 3.09041 19.2417H2.90287C2.65723 19.2417 2.54176 19.0994 2.54176 18.9135V17.9446ZM2.54176 21.2798C2.54176 21.0947 2.65723 20.9517 2.90287 20.9517H3.16248C3.85604 20.9517 4.05752 21.4076 4.05752 21.8213C4.05752 22.1922 3.85526 22.7192 3.16248 22.7192H2.90287C2.65723 22.7192 2.54176 22.5769 2.54176 22.3911V21.2798Z" fill="white"/>
<path d="M39.397 24.928C40.3215 24.928 40.8268 24.2436 40.8268 23.3886V21.8781C40.8268 21.693 40.9135 21.6073 41.0577 21.6073C41.2313 21.6073 41.2886 21.7068 41.3173 21.8781C41.4475 22.6046 41.7939 23.5882 42.1837 24.0875C42.6749 24.7292 43.1368 24.9288 43.5987 24.9288C44.3495 24.9288 44.9997 24.3445 44.9997 23.6172C44.9997 23.1323 44.7975 22.7759 44.5379 22.4486C44.0466 21.8361 43.7436 21.4368 43.556 20.9381C43.5127 20.8242 43.5413 20.724 43.6715 20.6246C44.1194 20.2828 44.6394 19.5271 44.6394 18.3302C44.6394 16.52 43.1228 15.4937 41.2886 15.4937H39.6566C38.5159 15.4937 37.9673 16.149 37.9673 17.0331V23.3901C37.9673 24.2443 38.4725 24.928 39.397 24.928ZM40.6679 18.1872C40.6679 18.0022 40.7834 17.8591 41.029 17.8591H41.2312C41.838 17.8591 42.0256 18.2867 42.0256 18.6575C42.0256 19.0139 41.838 19.4843 41.2312 19.4843H41.029C40.7834 19.4843 40.6679 19.342 40.6679 19.1562V18.1872Z" fill="white"/>
<path d="M15.6541 25.7539C14.0368 25.7539 13.1558 26.9508 13.1558 28.4475V36.8854C13.1558 38.3821 14.0368 39.579 15.6541 39.579C17.2714 39.579 18.1525 38.3821 18.1525 36.8854V28.4475C18.1525 26.9515 17.2721 25.7539 15.6541 25.7539Z" fill="white"/>
<path d="M41.3315 31.241H40.6239C39.353 31.241 38.3712 31.8253 38.3712 33.1079C38.3712 34.2765 39.4399 34.8325 40.2342 34.8325C40.6239 34.8325 40.8983 34.9464 40.8983 35.2455C40.8983 35.6163 40.4364 35.858 39.9451 35.858C38.3131 35.858 37.2011 34.7606 37.2011 32.7224C37.2011 30.4564 38.7176 29.6296 39.887 29.6296C41.3167 29.6296 41.5476 30.3424 42.5442 30.3424C43.6996 30.3424 44.4791 29.4163 44.4791 28.4755C44.4791 27.7773 44.1614 27.2358 43.6562 26.8649C42.7751 26.2233 41.4469 25.7529 39.5693 25.7529C36.2045 25.7529 32.9258 27.8477 32.9258 32.7224C32.9258 37.383 36.2037 39.5634 39.4391 39.5634C42.8324 39.5634 44.9844 37.497 44.9844 34.4753C44.9852 32.5664 43.7725 31.241 41.3315 31.241Z" fill="white"/>
<path d="M35.8732 24.8568C36.6822 24.8568 37.3176 24.3864 37.3176 23.5314C37.3176 22.6902 36.6822 22.2198 35.8732 22.2198H34.5736C34.328 22.2198 34.2125 22.0775 34.2125 21.8917V21.621C34.2125 21.4359 34.328 21.2929 34.5736 21.2929H35.5702C36.2638 21.2929 36.8124 20.8799 36.8124 20.1526C36.8124 19.4261 36.2638 19.0123 35.5702 19.0123H34.5736C34.328 19.0123 34.2125 18.87 34.2125 18.6842V18.4563C34.2125 18.2712 34.328 18.1282 34.5736 18.1282H35.8732C36.6822 18.1282 37.3176 17.6578 37.3176 16.8028C37.3176 15.9615 36.6822 15.4912 35.8732 15.4912H33.1439C32.0032 15.4912 31.4546 16.1466 31.4546 17.0307V23.3157C31.4546 24.1991 32.0032 24.8553 33.1439 24.8553H35.8732V24.8568Z" fill="white"/>
<path d="M11.0614 24.9274C13.4009 24.9274 14.6431 23.5446 14.6431 21.8063V17.0034C14.6431 16.1484 14.1379 15.4639 13.2134 15.4639C12.2889 15.4639 11.7836 16.1484 11.7836 17.0034V21.6495C11.7836 21.9913 11.5814 22.3906 11.0614 22.3906C10.5415 22.3906 10.3679 21.9913 10.3679 21.6495V17.0034C10.3679 16.1484 9.84783 15.4639 8.9234 15.4639C7.99888 15.4639 7.49365 16.1484 7.49365 17.0034V21.8063C7.49438 23.5454 8.72189 24.9274 11.0614 24.9274Z" fill="white"/>
<path d="M21.2005 24.9278C21.9514 24.9278 22.6016 24.3435 22.6016 23.6162C22.6016 23.1313 22.3994 22.7749 22.1397 22.4477C21.7213 21.9062 21.3454 21.4358 21.1579 20.9372C21.1145 20.8232 21.1432 20.7231 21.2734 20.6236C21.7213 20.2818 22.2413 19.5262 22.2413 18.3293C22.2413 16.519 20.7247 15.4927 18.8905 15.4927H17.2577C16.117 15.4927 15.5684 16.1481 15.5684 17.0321V23.3891C15.5684 24.2442 16.0736 24.9286 16.9981 24.9286C17.9226 24.9286 18.4278 24.2442 18.4278 23.3891V21.8787C18.4278 21.6936 18.5147 21.6079 18.6588 21.6079C18.8324 21.6079 18.8897 21.7073 18.9184 21.8787C19.0486 22.6052 19.3949 23.5887 19.7848 24.0881C20.2761 24.7282 20.7379 24.9278 21.2005 24.9278ZM18.8316 19.4833H18.6294C18.3837 19.4833 18.2682 19.3411 18.2682 19.1552V18.187C18.2682 18.0019 18.3837 17.8589 18.6294 17.8589H18.8316C19.4384 17.8589 19.6259 18.2864 19.6259 18.6574C19.6259 19.013 19.4384 19.4833 18.8316 19.4833Z" fill="white"/>
<path d="M29.5039 25.7539C28.016 25.7539 27.2077 26.8514 27.2077 28.2341V31.3124C27.2077 31.5685 27.121 31.6833 26.9621 31.6833C26.8466 31.6833 26.7598 31.6121 26.6591 31.4125L24.652 27.5642C23.8864 26.0958 23.0921 25.7539 22.1824 25.7539C20.6658 25.7539 19.8281 26.8797 19.8281 28.2907V37.0995C19.8281 38.4822 20.6372 39.5798 22.1242 39.5798C23.6121 39.5798 24.4203 38.4822 24.4203 37.0995V34.0213C24.4203 33.765 24.5071 33.6503 24.666 33.6503C24.7815 33.6503 24.8682 33.7214 24.969 33.9211L26.976 37.7695C27.7417 39.2378 28.5646 39.5798 29.4457 39.5798C30.9623 39.5798 31.8 38.454 31.8 37.0429V28.2341C31.8 26.8514 30.9917 25.7539 29.5039 25.7539Z" fill="white"/>
<path d="M43.3784 39.9038C43.3784 39.5206 43.6791 39.2002 44.0914 39.2002C44.5036 39.2002 44.8043 39.5206 44.8043 39.9038C44.8043 40.3152 44.5036 40.612 44.0914 40.612C43.6791 40.6128 43.3784 40.3107 43.3784 39.9038ZM44.6493 39.9038C44.6493 39.5498 44.368 39.344 44.0914 39.344C43.8147 39.344 43.5334 39.5498 43.5334 39.9038C43.5334 40.2724 43.8147 40.4682 44.0914 40.4682C44.368 40.4682 44.6493 40.2724 44.6493 39.9038ZM43.8441 40.2059V39.6078C43.8441 39.5696 43.8783 39.5314 43.917 39.5314H44.1208C44.2805 39.5314 44.392 39.6269 44.392 39.7562C44.392 39.8663 44.3292 39.9619 44.1836 39.9856L44.3432 40.163C44.358 40.1776 44.3672 40.1967 44.3672 40.2105C44.3672 40.2533 44.3378 40.2824 44.2944 40.2824C44.2649 40.2824 44.2455 40.2678 44.2316 40.2487L44.0185 40.0002H43.9945V40.2059C43.9945 40.2441 43.9604 40.2778 43.917 40.2778C43.8783 40.277 43.8441 40.2441 43.8441 40.2059ZM44.1014 39.8656C44.189 39.8656 44.237 39.8227 44.237 39.7654C44.237 39.7035 44.1936 39.6698 44.1161 39.6698H43.9953V39.8663L44.1014 39.8656Z" fill="white"/>
<line y1="73.5" x2="243" y2="73.5" stroke="#464756"/>
</svg>
