<svg width="243" height="50" viewBox="0 0 243 50" fill="none" xmlns="http://www.w3.org/2000/svg">
<path d="M121.376 16.7375V18.5131C121.376 20.0055 122.723 21.3762 124.839 21.3762C127.872 21.3762 129.091 19.0832 129.339 18.1227C132.618 18.1227 135.198 18.1209 136.126 18.1209C135.115 21.2654 130.944 25 123.275 25C113.281 25 110.147 19.5861 110.147 15.4484C110.147 11.0349 113.767 5.78249 123.259 5.78249C131.465 5.78249 136.371 10.5392 136.371 15.4503C136.371 16.2709 136.302 16.7375 136.302 16.7375H121.376ZM121.376 13.7527H125.178V11.3181C125.178 10.5828 124.592 9.41905 123.264 9.41905C122.034 9.41905 121.376 10.5338 121.376 11.3072V13.7527ZM93.5274 20.3395H90.8262V24.1485H109.082V20.3395H106.344V0.971312H90.8262V4.78213H93.5274V20.3395ZM74.7205 16.7375V18.5131C74.7205 20.0055 76.0711 21.3762 78.1864 21.3762C81.2185 21.3762 82.4384 19.0832 82.6852 18.1227C85.9659 18.1227 88.546 18.1209 89.4734 18.1209C88.4624 21.2654 84.2903 25 76.6232 25C66.627 25 63.4948 19.5861 63.4948 15.4484C63.4948 11.0349 67.1114 5.78249 76.6086 5.78249C84.8114 5.78249 89.7206 10.5392 89.7206 15.4503C89.7206 16.2709 89.6498 16.7375 89.6498 16.7375H74.7205ZM74.7205 13.7527H78.5241V11.3181C78.5241 10.5828 77.9377 9.41905 76.6104 9.41905C75.3814 9.41905 74.7205 10.5338 74.7205 11.3072V13.7527ZM57.5018 3.36238L55.7353 0L50.1579 2.87582L51.9244 6.2709L57.5018 3.36238ZM59.7186 6.72297H44.7223V10.5338H47.4567V20.3395H44.7223V24.1485H62.4545V20.3395H59.7186V6.72297ZM28.6148 0.971312H42.2622V4.78396H39.5262V20.3395H42.2622V24.1485H24.5243V20.3395H27.2622V10.2578L17.1841 24.1485L7.0679 10.2578V20.3395H9.80576V24.1485H0V20.3395H2.70334V4.78396H0V0.971312H15.4848L22.0661 10.0145L28.6148 0.971312Z" fill="white"/>
<line y1="49.5" x2="243" y2="49.5" stroke="#464756"/>
</svg>
