<svg width="243" height="47" viewBox="0 0 243 47" fill="none" xmlns="http://www.w3.org/2000/svg">
<g clip-path="url(#clip0_1650_308)">
<path d="M225.474 8.16134C225.474 5.19482 223.19 3.03083 220.039 3.03083H208.319V17.9494H211.909V13.1772H218.338L221.956 17.9637H226L222.253 12.8906L222.438 12.8332C224.367 12.1884 225.474 10.483 225.474 8.16134ZM221.913 8.06102C221.913 9.33648 220.991 10.225 219.67 10.225H211.909V5.96869H219.643C221.119 5.96869 221.913 7.04352 221.913 8.06102ZM204.361 10.483C204.361 5.71073 200.543 2.61523 194.64 2.61523C190.157 2.61523 184.921 4.6789 184.921 10.483C184.921 13.5785 186.651 15.4271 188.098 16.4303C189.859 17.6628 192.243 18.365 194.64 18.365C197.223 18.365 199.607 17.6485 201.381 16.3444C203.339 14.8969 204.361 12.8762 204.361 10.483ZM200.557 10.483C200.557 13.5785 198.358 15.3698 194.655 15.3698C191.958 15.3698 188.708 14.1374 188.708 10.483C188.708 7.1295 191.689 5.62474 194.627 5.62474C198.358 5.62474 200.557 7.43046 200.557 10.483ZM168.347 17.9637H182.935V14.8969H171.809V3.0165H168.347V17.9637ZM158.996 17.9494H162.699V3.03083H158.996V17.9494ZM151.206 17.9637H154.994L146.907 3.00217H144.821H142.749L134.731 17.9637H138.463L140.323 14.4527H149.346L151.206 17.9637ZM147.786 11.5291H141.869L144.821 5.98302L147.786 11.5291ZM135.228 3.03083H116.058V6.28397H123.919V17.9637H127.367V6.28397H135.214V3.03083H135.228ZM105.132 17.9637H108.537V3.0165H104.422L98.6184 9.6661L92.8858 3.0165H88.7565V17.9637H92.162V7.63108V7.28714L92.4033 7.53078L98.6326 14.6963L104.904 7.53078L105.146 7.28714V7.63108V17.9637H105.132ZM84.826 10.483C84.826 5.71073 81.0089 2.61523 75.106 2.61523C70.622 2.61523 65.3861 4.6789 65.3861 10.483C65.3861 13.5785 67.1171 15.4271 68.5645 16.4303C70.324 17.6628 72.7079 18.365 75.106 18.365C77.6885 18.365 80.0724 17.6485 81.8462 16.3444C83.7901 14.8969 84.826 12.8762 84.826 10.483ZM81.0231 10.483C81.0231 13.5785 78.838 15.3698 75.1203 15.3698C72.4242 15.3698 69.1889 14.1374 69.1889 10.483C69.1889 7.1295 72.1546 5.62474 75.106 5.62474C78.8095 5.62474 81.0231 7.43046 81.0231 10.483ZM55.0701 6.28397H62.9171V3.03083H43.7609V6.28397H51.622V17.9637H55.0843V6.28397H55.0701Z" fill="white"/>
<path fill-rule="evenodd" clip-rule="evenodd" d="M31.6999 2.98085C28.3512 1.14648 23.7537 0 18.6879 0C13.6222 0 9.02467 1.14648 5.69008 2.98085C2.17103 4.91554 0 7.65276 0 10.7196C0 13.7864 2.17103 16.5094 5.69008 18.444C9.03887 20.2927 13.6364 21.4248 18.6879 21.4248C23.7537 21.4248 28.3512 20.2927 31.6857 18.444C35.1905 16.5094 37.3758 13.7864 37.3758 10.7196C37.3758 7.65276 35.2048 4.91554 31.6999 2.98085ZM35.5595 10.7196C35.5595 13.0556 33.7575 15.2339 30.8343 16.8389C27.741 18.5444 23.4557 19.5905 18.702 19.5905C13.9486 19.5905 9.64903 18.5444 6.56985 16.8389C3.64677 15.2339 1.84466 13.0556 1.84466 10.7196C1.84466 8.38364 3.66096 6.20533 6.56985 4.60026C9.66322 2.89487 13.9486 1.8487 18.702 1.8487C23.4557 1.8487 27.7551 2.89487 30.8343 4.60026C33.7432 6.20533 35.5595 8.36931 35.5595 10.7196Z" fill="white"/>
<path fill-rule="evenodd" clip-rule="evenodd" d="M14.7992 16.4159V9.4653C12.4011 9.82357 9.80439 10.5831 9.80439 10.5831V6.51311C13.1532 5.65325 16.2181 5.32364 18.6871 5.35229C20.9576 5.36664 24.4199 5.65325 27.7686 6.51311V10.5831C27.7686 10.5831 25.1718 9.82357 22.7738 9.4653V16.4159H14.7992Z" fill="white"/>
</g>
<line y1="46.5" x2="243" y2="46.5" stroke="#464756"/>
<defs>
<clipPath id="clip0_1650_308">
<rect width="226" height="22" fill="white"/>
</clipPath>
</defs>
</svg>
