<svg width="20" height="16" viewBox="0 0 20 16" fill="none" xmlns="http://www.w3.org/2000/svg">
<path d="M19.0024 7.83565C18.9951 8.13193 18.8792 8.4271 18.7086 8.61923L12.8313 15.2801C12.3453 15.7787 11.6276 15.7885 11.166 15.378C10.7043 14.9677 10.6576 14.1743 11.0681 13.7127L15.2189 9.01087H1.37009C0.720976 9.01087 0.194555 8.48447 0.194555 7.83533C0.194555 7.18619 0.720955 6.65979 1.37009 6.65979H15.2189L11.0681 1.95799C10.6579 1.49636 10.7156 0.71521 11.166 0.292671C11.6358 -0.148185 12.4211 -0.0711077 12.8313 0.390516L18.7086 7.05143C18.9174 7.28621 19 7.52017 19.0024 7.83501V7.83565Z" fill="white"/>
</svg>
