<svg width="24" height="24" viewBox="0 0 24 24" fill="none" xmlns="http://www.w3.org/2000/svg">
<path d="M6.09448 12H1.90552C1.40541 12 1 12.4339 1 12.9692V22.0308C1 22.5661 1.40541 23 1.90552 23H6.09448C6.59459 23 7 22.5661 7 22.0308V12.9692C7 12.4339 6.59459 12 6.09448 12Z" fill="#0D6FB6"/>
<path d="M3 22C3.55228 22 4 21.5523 4 21C4 20.4477 3.55228 20 3 20C2.44772 20 2 20.4477 2 21C2 21.5523 2.44772 22 3 22Z" fill="white"/>
<path d="M8 12.823C8.37516 12.4714 8.70004 12.0719 8.96584 11.6353C9.34311 10.9794 10.4658 8.97623 11.0998 8.13419C11.8035 7.19997 12.87 6.27284 13.2482 5.47954C13.8785 4.16241 14.2567 2.2789 14.3827 1.66288C14.5088 1.04686 15.9779 0.429068 16.6082 1.9474C17.2385 3.46574 17.6158 4.12253 16.8177 6.09291C16.0197 8.06328 15.1109 9.36446 15.5109 9.89184C15.9108 10.4192 18.2524 10.1276 20.136 10.1967C20.779 10.2154 23.1787 10.7197 22.6554 13.0694C22.5982 13.2798 22.4729 13.4664 22.2981 13.6013C22.2981 13.6013 23.1143 14.1171 22.9864 15.3952C22.8585 16.6734 22.2981 16.9446 22.2981 16.9446C22.2981 16.9446 22.7751 17.9861 22.4232 19.024C22.1203 19.9192 21.607 20.1452 21.607 20.1452C21.607 20.1452 21.7739 22.6528 19.9175 22.8362C18.0611 23.0197 15.9961 22.9993 15.9961 22.9993C15.9961 22.9993 11.0027 22.9913 10.192 22.9382C9.3812 22.885 9.00121 22.7511 8 22.7148V12.823Z" fill="#F0B497"/>
</svg>
