<svg width="24" height="24" viewBox="0 0 24 24" fill="none" xmlns="http://www.w3.org/2000/svg">
<g clip-path="url(#clip0_199_1765)">
<path d="M24 12C24 18.6273 18.6273 24 12 24C5.37269 24 0 18.6273 0 12C0 5.37269 5.37269 0 12 0C18.6273 0 24 5.37269 24 12Z" fill="#39AA5D"/>
<path d="M15.6423 7.13622C14.0475 7.13622 12.9957 7.76932 12.4221 8.80132C11.8776 7.78256 10.8812 7.13208 9.34269 7.13208C7.94986 7.13208 6.92035 7.56325 6.27731 8.34201V7.29098H4.61304V16.8686H6.45111V11.0474C6.53386 9.69594 7.19428 9.00656 8.79897 9.00656C10.6511 9.00656 11.2172 9.75305 11.2172 11.3536L11.2255 16.8686H13.0635V10.905C13.1397 9.6827 13.5965 9.00656 15.3328 9.00656C17.2718 9.00656 17.5482 9.77622 17.5482 11.3536V16.8686H19.3863V11.0739C19.378 8.44215 18.1366 7.13622 15.6431 7.13622" fill="white"/>
</g>
<defs>
<clipPath id="clip0_199_1765">
<rect width="24" height="24" fill="white"/>
</clipPath>
</defs>
</svg>
