<svg width="119" height="26" viewBox="0 0 119 26" fill="none" xmlns="http://www.w3.org/2000/svg">
<g clip-path="url(#clip0_1530_160)">
<path d="M49.779 13.0727L49.7822 22.7036H46.737V13.5295C46.737 10.8553 45.6842 9.30526 42.5497 9.30526C39.4152 9.30526 38.1167 10.6626 38.1167 13.5295V22.7036H35.0715V6.58576H37.8296V8.25568C39.0243 7.00526 40.6945 6.3266 43.1862 6.3266C47.5123 6.3266 49.779 9.26477 49.779 13.0727ZM28.367 3.12928H31.4122V0.0372353H28.367V3.12928ZM28.367 22.7036H31.4122V6.58576H28.367V22.7036ZM18.5678 6.3266C16.0538 6.3266 14.1843 7.37294 12.9321 8.91977C11.9877 7.43449 10.2841 6.3266 7.98545 6.3266C5.6868 6.3266 4.01027 7.10083 2.90482 8.30104V6.58576H0.146763V22.7036H3.19195V13.1877C3.19195 10.7225 4.69141 9.30202 7.22614 9.30202C9.76087 9.30202 11.0913 10.7468 11.0913 13.3902V22.7036H14.1364V13.0565C14.1364 10.7306 15.2786 9.29878 18.0063 9.29878C20.8761 9.29878 21.8714 10.8181 21.8714 13.3772V22.7052H24.9182V13.0662C24.9166 9.04287 22.7009 6.32822 18.5678 6.32822V6.3266ZM112.495 14.4997L118.628 6.58576H114.908L110.678 12.1527L106.369 6.58576H102.434L108.671 14.6455L102.434 22.7036H106.154L110.491 16.9957L114.91 22.7036H118.845L112.496 14.4997H112.495ZM64.0383 0.035614H67.0835V22.7036H64.1818V21.0272C62.987 22.1788 61.1861 22.9595 59.3804 22.9595C54.3843 22.9595 52.1367 20.0132 52.1367 14.6131C52.1367 9.21294 54.3364 6.32336 59.1921 6.32336C61.2292 6.32336 62.9153 7.05871 64.0383 8.05808V0.0372353V0.035614ZM64.0383 14.6422C64.0383 11.1307 62.9248 9.24533 59.6101 9.24533C56.2953 9.24533 55.3254 10.8715 55.3254 14.6422C55.3254 18.4129 56.4149 20.0408 59.5032 20.0408C62.81 20.0408 64.0399 17.9691 64.0399 14.6422H64.0383ZM102.584 14.6422C102.584 19.9209 100.017 22.9627 94.9065 22.9627C89.7956 22.9627 87.2289 19.9209 87.2289 14.6422C87.2289 9.36357 89.7589 6.3266 94.9065 6.3266C100.054 6.3266 102.584 9.4235 102.584 14.6422ZM99.3969 14.6422C99.3969 11.3931 98.4302 9.24695 94.9065 9.24695C91.3828 9.24695 90.4161 11.4158 90.4161 14.6422C90.4161 17.8687 91.421 20.0408 94.9065 20.0408C98.392 20.0408 99.3969 17.9173 99.3969 14.6422ZM85.4056 14.6131C85.4056 20.0132 83.158 22.9595 78.1619 22.9595C76.3562 22.9595 74.5569 22.1788 73.3605 21.0272V22.7036H70.4589V0.035614H73.504V8.05646C74.627 7.05709 76.3147 6.32174 78.3502 6.32174C83.2059 6.32174 85.4056 9.25181 85.4056 14.6115V14.6131ZM82.2185 14.6422C82.2185 10.8699 81.1704 9.24533 77.9338 9.24533C74.6972 9.24533 73.5056 11.1307 73.5056 14.6422C73.5056 17.9708 74.7355 20.0408 78.0423 20.0408C81.1306 20.0408 82.2201 18.4097 82.2201 14.6422H82.2185Z" fill="#292B32"/>
</g>
<defs>
<clipPath id="clip0_1530_160">
<rect width="119" height="23" fill="white"/>
</clipPath>
</defs>
</svg>
