<svg width="119" height="23" viewBox="0 0 119 23" fill="none" xmlns="http://www.w3.org/2000/svg">
<g clip-path="url(#clip0_1433_222944)">
<path d="M49.779 13.0728L49.7822 22.7036H46.737V13.5295C46.737 10.8554 45.6842 9.30529 42.5496 9.30529C39.4151 9.30529 38.1167 10.6626 38.1167 13.5295V22.7036H35.0715V6.58579H37.8295V8.25572C39.0243 7.00529 40.6945 6.32663 43.1861 6.32663C47.5122 6.32663 49.779 9.2648 49.779 13.0728ZM28.367 3.12931H31.4121V0.0372658H28.367V3.12931ZM28.367 22.7036H31.4121V6.58579H28.367V22.7036ZM18.5678 6.32663C16.0538 6.32663 14.1843 7.37297 12.932 8.9198C11.9877 7.43452 10.2841 6.32663 7.98541 6.32663C5.68677 6.32663 4.01024 7.10086 2.90478 8.30107V6.58579H0.146729V22.7036H3.19192V13.1878C3.19192 10.7225 4.69138 9.30205 7.22611 9.30205C9.76084 9.30205 11.0912 10.7468 11.0912 13.3902V22.7036H14.1364V13.0566C14.1364 10.7306 15.2786 9.29881 18.0063 9.29881C20.876 9.29881 21.8714 10.8181 21.8714 13.3773V22.7052H24.9182V13.0663C24.9166 9.0429 22.7009 6.32825 18.5678 6.32825V6.32663ZM112.495 14.4997L118.628 6.58579H114.908L110.678 12.1528L106.369 6.58579H102.434L108.671 14.6455L102.434 22.7036H106.154L110.491 16.9957L114.91 22.7036H118.845L112.496 14.4997H112.495ZM64.0382 0.0356445H67.0834V22.7036H64.1818V21.0272C62.987 22.1788 61.1861 22.9595 59.3803 22.9595C54.3842 22.9595 52.1367 20.0133 52.1367 14.6131C52.1367 9.21297 54.3364 6.32339 59.1921 6.32339C61.2291 6.32339 62.9152 7.05874 64.0382 8.05811V0.0372658V0.0356445ZM64.0382 14.6423C64.0382 11.1307 62.9248 9.24536 59.61 9.24536C56.2953 9.24536 55.3254 10.8716 55.3254 14.6423C55.3254 18.413 56.4149 20.0408 59.5032 20.0408C62.81 20.0408 64.0398 17.9692 64.0398 14.6423H64.0382ZM102.584 14.6423C102.584 19.9209 100.017 22.9628 94.9065 22.9628C89.7955 22.9628 87.2289 19.9209 87.2289 14.6423C87.2289 9.3636 89.7588 6.32663 94.9065 6.32663C100.054 6.32663 102.584 9.42353 102.584 14.6423ZM99.3969 14.6423C99.3969 11.3931 98.4302 9.24698 94.9065 9.24698C91.3827 9.24698 90.416 11.4158 90.416 14.6423C90.416 17.8687 91.421 20.0408 94.9065 20.0408C98.3919 20.0408 99.3969 17.9173 99.3969 14.6423ZM85.4056 14.6131C85.4056 20.0133 83.158 22.9595 78.1619 22.9595C76.3562 22.9595 74.5568 22.1788 73.3604 21.0272V22.7036H70.4588V0.0356445H73.504V8.05649C74.627 7.05712 76.3147 6.32177 78.3501 6.32177C83.2058 6.32177 85.4056 9.25184 85.4056 14.6115V14.6131ZM82.2184 14.6423C82.2184 10.8699 81.1704 9.24536 77.9338 9.24536C74.6972 9.24536 73.5056 11.1307 73.5056 14.6423C73.5056 17.9708 74.7355 20.0408 78.0423 20.0408C81.1305 20.0408 82.22 18.4097 82.22 14.6423H82.2184Z" fill="white"/>
</g>
<defs>
<clipPath id="clip0_1433_222944">
<rect width="119" height="23" fill="white"/>
</clipPath>
</defs>
</svg>
