<svg width="119" height="23" viewBox="0 0 119 23" fill="none" xmlns="http://www.w3.org/2000/svg">
<g clip-path="url(#clip0_568_182216)">
<path d="M49.779 13.0723L49.7822 22.7031H46.737V13.529C46.737 10.8549 45.6842 9.30481 42.5497 9.30481C39.4152 9.30481 38.1167 10.6621 38.1167 13.529V22.7031H35.0715V6.5853H37.8296V8.25523C39.0244 7.0048 40.6945 6.32614 43.1862 6.32614C47.5123 6.32614 49.779 9.26431 49.779 13.0723ZM28.367 3.12882H31.4122V0.0367776H28.367V3.12882ZM28.367 22.7031H31.4122V6.5853H28.367V22.7031ZM18.5679 6.32614C16.0539 6.32614 14.1843 7.37248 12.9321 8.91931C11.9878 7.43403 10.2841 6.32614 7.98547 6.32614C5.68683 6.32614 4.0103 7.10037 2.90484 8.30058V6.5853H0.14679V22.7031H3.19198V13.1873C3.19198 10.7221 4.69144 9.30156 7.22617 9.30156C9.7609 9.30156 11.0913 10.7464 11.0913 13.3897V22.7031H14.1365V13.0561C14.1365 10.7302 15.2786 9.29833 18.0064 9.29833C20.8761 9.29833 21.8715 10.8176 21.8715 13.3768V22.7047H24.9183V13.0658C24.9167 9.04241 22.701 6.32776 18.5679 6.32776V6.32614ZM112.495 14.4992L118.628 6.5853H114.908L110.678 12.1523L106.369 6.5853H102.434L108.671 14.645L102.434 22.7031H106.154L110.491 16.9952L114.91 22.7031H118.845L112.496 14.4992H112.495ZM64.0383 0.0351562H67.0835V22.7031H64.1819V21.0267C62.9871 22.1783 61.1861 22.959 59.3804 22.959C54.3843 22.959 52.1367 20.0128 52.1367 14.6126C52.1367 9.21248 54.3365 6.3229 59.1922 6.3229C61.2292 6.3229 62.9153 7.05825 64.0383 8.05762V0.0367776V0.0351562ZM64.0383 14.6418C64.0383 11.1302 62.9249 9.24487 59.6101 9.24487C56.2953 9.24487 55.3255 10.8711 55.3255 14.6418C55.3255 18.4125 56.415 20.0403 59.5032 20.0403C62.81 20.0403 64.0399 17.9687 64.0399 14.6418H64.0383ZM102.584 14.6418C102.584 19.9204 100.017 22.9623 94.9065 22.9623C89.7956 22.9623 87.229 19.9204 87.229 14.6418C87.229 9.36311 89.7589 6.32614 94.9065 6.32614C100.054 6.32614 102.584 9.42304 102.584 14.6418ZM99.3969 14.6418C99.3969 11.3926 98.4303 9.24649 94.9065 9.24649C91.3828 9.24649 90.4161 11.4153 90.4161 14.6418C90.4161 17.8683 91.4211 20.0403 94.9065 20.0403C98.392 20.0403 99.3969 17.9168 99.3969 14.6418ZM85.4057 14.6126C85.4057 20.0128 83.1581 22.959 78.162 22.959C76.3562 22.959 74.5569 22.1783 73.3605 21.0267V22.7031H70.4589V0.0351562H73.5041V8.056C74.6271 7.05663 76.3148 6.32128 78.3502 6.32128C83.2059 6.32128 85.4057 9.25135 85.4057 14.611V14.6126ZM82.2185 14.6418C82.2185 10.8695 81.1705 9.24487 77.9339 9.24487C74.6973 9.24487 73.5057 11.1302 73.5057 14.6418C73.5057 17.9703 74.7355 20.0403 78.0423 20.0403C81.1306 20.0403 82.2201 18.4092 82.2201 14.6418H82.2185Z" fill="white"/>
</g>
<defs>
<clipPath id="clip0_568_182216">
<rect width="119" height="23" fill="white"/>
</clipPath>
</defs>
</svg>
