<svg width="32" height="32" viewBox="0 0 32 32" fill="none" xmlns="http://www.w3.org/2000/svg">
<path fill-rule="evenodd" clip-rule="evenodd" d="M26.747 18.4974L17.7636 16.8664L17.6595 17.7376C17.2049 21.5466 16.7319 24.4959 16.2129 26.7522C16.1691 26.9385 15.8318 26.9385 15.7879 26.7522C15.2688 24.4951 14.7951 21.5458 14.3412 17.7376L14.2372 16.8664L5.25332 18.4967V17.463L12.1719 13.0699C12.214 13.5649 12.2595 14.0748 12.3116 14.6144L13.9566 14.4568C13.6566 11.3422 13.5202 8.89206 13.5202 7.93507C13.5202 5.09879 15.5876 3.84805 15.9903 3.8101C16.4128 3.84803 18.4802 5.09879 18.4802 7.93507C18.4802 8.89211 18.3439 11.3422 18.0438 14.4568L19.6889 14.6135C19.7409 14.0748 19.7865 13.5649 19.8286 13.0699L26.7471 17.4632V18.4977L26.747 18.4974ZM27.6349 16.0711L25.0936 14.4575V9.58486H21.7869V11.2348H23.4403V13.4071L19.9766 11.2068C20.0823 9.70291 20.1336 8.55527 20.1336 7.93487C20.1336 4.125 17.2362 2.15991 16.0002 2.15991C14.7643 2.15991 11.8668 4.125 11.8668 7.93487C11.8668 8.55527 11.9181 9.70291 12.0239 11.2068L8.56015 13.4071V11.2348H10.2135V9.58486H6.9068V14.4575L4.3655 16.0712C3.88613 16.3765 3.6001 16.8962 3.6001 17.463V18.4966C3.6001 18.9876 3.81673 19.4487 4.19445 19.763C4.56941 20.0785 5.06634 20.2096 5.5485 20.1203L12.8048 18.8036C12.9644 20.0906 13.1248 21.262 13.2892 22.3404L8.73677 24.2874L8.73696 24.2872C8.43913 24.4141 8.18521 24.6253 8.00679 24.8949C7.82836 25.1645 7.73332 25.4805 7.73332 25.8035V26.9089C7.73332 27.8197 8.47492 28.5589 9.38667 28.5589H12.6934V26.9089L9.38667 26.9091V25.8037L13.5621 24.0176V24.0174C13.7384 25.0575 13.9432 26.0924 14.1764 27.1211C14.2711 27.5321 14.5032 27.8988 14.8348 28.1604C15.1664 28.4219 15.5776 28.5628 16.0001 28.5599C16.4227 28.5628 16.8338 28.4219 17.1654 28.1604C17.497 27.8988 17.7291 27.5321 17.8238 27.1211C18.0388 26.1889 18.2412 25.1577 18.4381 24.0174L22.6136 25.8035V26.9089H19.3069V28.5589H22.6136C23.5253 28.5589 24.2669 27.8197 24.2669 26.9089V25.8035C24.2669 25.1428 23.8726 24.5471 23.2642 24.288L18.7108 22.3402C18.8754 21.2628 19.0358 20.0904 19.1952 18.8035L26.4515 20.121H26.4517C26.934 20.2069 27.4299 20.0754 27.8059 19.7616C28.1818 19.4478 28.3993 18.9841 28.4001 18.495V17.4638C28.4001 16.897 28.1141 16.3773 27.6347 16.072L27.6349 16.0711Z" fill="#8C9AAC"/>
</svg>
