<svg width="32" height="32" viewBox="0 0 32 32" fill="none" xmlns="http://www.w3.org/2000/svg">
<path fill-rule="evenodd" clip-rule="evenodd" d="M11.3618 25.127L10.9301 25.9912L10.9302 25.9914C10.6932 26.4669 10.2772 26.8285 9.7735 26.9966C9.27 27.1646 8.72039 27.1253 8.2457 26.8873C7.77115 26.6493 7.41057 26.2321 7.24362 25.7276C7.07525 25.2242 7.11436 24.6744 7.35243 24.2L7.77719 23.3493C8.0133 22.8733 8.42953 22.5116 8.93357 22.3446C9.43675 22.176 9.98613 22.2154 10.4603 22.4535C10.932 22.6905 11.2914 23.1041 11.4601 23.6049C11.6288 24.1054 11.5936 24.6525 11.3618 25.127L11.3618 25.127ZM12.7457 22.354H12.7459C12.385 21.7427 11.8555 21.2487 11.2207 20.9317C10.344 20.4893 9.32687 20.4171 8.39661 20.7309C7.46407 21.039 6.69367 21.7081 6.25717 22.5888L5.83241 23.4395C5.39094 24.3169 5.31876 25.3349 5.63186 26.266C5.9398 27.1993 6.60763 27.9704 7.48664 28.408C8.36442 28.846 9.37984 28.9176 10.3104 28.6072C11.2408 28.2967 12.0104 27.6294 12.4502 26.7518L12.875 25.9011L12.8844 25.8833L15.0612 21.5247L13.5403 20.7633L12.7459 22.354L12.7457 22.354ZM18.4598 14.7192L16.9389 13.9579L22.2721 3.28003H22.7971C24.2024 3.28003 25.346 4.42497 25.346 5.83193C25.346 6.04892 25.3256 11.1782 23.5575 14.7194L22.3272 17.181H22.3274C22.117 17.6059 21.792 17.9634 21.389 18.2126C20.9861 18.462 20.5215 18.5932 20.0478 18.5914H18.549V16.8902H20.0478C20.2055 16.8906 20.3602 16.8469 20.4945 16.764C20.6287 16.6809 20.7371 16.562 20.8074 16.4206L22.0369 13.9581C23.6248 10.7801 23.6468 5.88132 23.6468 5.8321C23.647 5.54231 23.4992 5.27246 23.2551 5.1167L18.4598 14.7192ZM24.7565 25.7284C24.5896 26.2329 24.2279 26.6494 23.7523 26.8853C23.2789 27.125 22.729 27.1642 22.2263 26.9942C21.7223 26.828 21.3057 26.4664 21.0699 25.9905L20.6452 25.1398C20.4084 24.6645 20.3694 24.1146 20.5371 23.6109C20.7046 23.1069 21.065 22.69 21.539 22.4518C22.0139 22.2151 22.5629 22.1765 23.0661 22.3445C23.5693 22.5127 23.9853 22.8735 24.223 23.3483L24.6478 24.1989C24.8866 24.6778 24.9248 25.2196 24.7566 25.7284L24.7565 25.7284ZM11.9524 16.8902C11.7947 16.8905 11.64 16.8469 11.5058 16.764C11.3715 16.6808 11.2631 16.5619 11.1928 16.4206L9.96335 13.9581C8.37542 10.7801 8.35339 5.88129 8.35339 5.83208C8.35339 5.53178 8.50968 5.26724 8.74508 5.11668L14.6253 16.8896H11.9523L11.9524 16.8902ZM26.1675 23.4385L25.7428 22.5878C25.3031 21.7097 24.5336 21.0422 23.6028 20.7316C22.672 20.421 21.6562 20.4925 20.7783 20.9308C20.1441 21.2484 19.6148 21.7427 19.254 22.3539L9.72796 3.28031H9.20293C7.79762 3.28031 6.65403 4.42524 6.65403 5.83221C6.65403 6.0492 6.67447 11.1784 8.44249 14.7196L9.67284 17.1813H9.67266C9.883 17.6062 10.208 17.9637 10.6111 18.2129C11.014 18.4623 11.4786 18.5935 11.9522 18.5917H15.4747L19.1247 25.9001L19.5495 26.7508H19.5497C19.986 27.6312 20.7562 28.3002 21.6882 28.6087C22.6188 28.9213 23.6356 28.8486 24.5123 28.407C25.3921 27.9704 26.0602 27.1994 26.368 26.266C26.6811 25.3345 26.6089 24.3163 26.1675 23.4385L26.1675 23.4385Z" fill="#8C9AAC"/>
</svg>
