<svg width="32" height="32" viewBox="0 0 32 32" fill="none" xmlns="http://www.w3.org/2000/svg">
<path fill-rule="evenodd" clip-rule="evenodd" d="M21.0996 15.1519H23.6495V12.5983H21.0996V15.1519ZM19.3996 16.8543H25.3493V10.8961H19.3996V16.8543ZM6.64984 12.5981H12.5996V10.8957H6.64984V12.5981ZM6.64984 16.8543H12.5996V15.1519H6.64984V16.8543ZM27.8999 8.34229H18.5502C17.6126 8.34229 16.8502 9.10579 16.8502 10.0447V17.7057H15.1502V10.0447C15.1502 9.10579 14.3878 8.34229 13.4502 8.34229H4.10044V23.6639H12.6004V24.5151C12.6004 25.454 13.3628 26.2175 14.3004 26.2175H17.7004C18.6379 26.2175 19.4003 25.454 19.4003 24.5151V23.6639H27.9003L27.8999 8.34229ZM29.5999 6.63989V25.3663H20.9919C20.8028 26.0968 20.3771 26.7439 19.7813 27.2059C19.1855 27.668 18.4535 27.9191 17.6999 27.9199H14.2999C13.5463 27.919 12.8143 27.6677 12.2185 27.2057C11.6226 26.7436 11.1965 26.0967 11.0071 25.3663H2.3999V6.63989H13.45C14.4265 6.63944 15.3557 7.06034 16 7.79496C16.6443 7.06034 17.5736 6.63946 18.55 6.63989H29.5999ZM18.5498 19.4077H25.3497V21.1101H18.5498C17.6122 21.1101 16.8498 21.8736 16.8498 22.8125V23.6637H15.1498V22.8125C15.1498 21.8736 14.3874 21.1101 13.4498 21.1101H6.64984V19.4077H13.4498C14.4262 19.4072 15.3555 19.8281 15.9998 20.5628C16.6441 19.8281 17.5733 19.4073 18.5498 19.4077Z" fill="#8C9AAC"/>
</svg>
