<svg width="32" height="32" viewBox="0 0 32 32" fill="none" xmlns="http://www.w3.org/2000/svg">
<path fill-rule="evenodd" clip-rule="evenodd" d="M11.6257 15.1572C11.6257 12.7237 13.6061 10.744 16.04 10.744V12.5092C14.5797 12.5092 13.3914 13.6973 13.3914 15.1572H11.6257ZM7.18839 11.067L4.8947 9.74305L5.77763 8.21422L8.07132 9.53821L7.18839 11.067ZM10.4197 7.1904L9.09538 4.89725L10.6246 4.01453L11.9489 6.30768L10.4197 7.1904ZM15.1569 5.44803H16.9226L16.9228 2.80005H15.1571V5.44803H15.1569ZM21.6602 7.1904L20.131 6.30768L21.4553 4.01453L22.9845 4.89725L21.6602 7.1904ZM24.8915 11.067L24.0085 9.53821L26.3022 8.21422L27.1852 9.74305L24.8915 11.067ZM25.7513 16.04H28.3999V14.2748H25.7513V16.04ZM3.67993 16.04H6.32854V14.2748H3.67993V16.04ZM9.86017 21.336H8.09431V15.1572C8.09431 10.7765 11.6583 7.21329 16.0401 7.21329C20.4219 7.21329 23.9859 10.7765 23.9859 15.1572V21.336H22.2203V15.1572C22.2203 11.751 19.4471 8.97845 16.04 8.97845C12.6329 8.97845 9.85979 11.7509 9.85979 15.1572V21.336H9.86017ZM24.8688 27.5148H7.21109V26.6321C7.21109 25.6585 8.00293 24.8668 8.97676 24.8668H23.1028C24.0767 24.8668 24.8685 25.6585 24.8685 26.6321V27.5148H24.8688ZM23.1031 23.1016H16.9229V18.6883H18.6885V16.9231H13.3913V18.6883H15.157V23.1016L8.97724 23.1014C7.02957 23.1014 5.4457 24.6849 5.4457 26.6321V29.2801H26.6345V26.6321C26.6345 24.6849 25.0507 23.1014 23.103 23.1014L23.1031 23.1016Z" fill="#8C9AAC"/>
</svg>
