<svg width="32" height="32" viewBox="0 0 32 32" fill="none" xmlns="http://www.w3.org/2000/svg">
<path fill-rule="evenodd" clip-rule="evenodd" d="M18.7999 22.8871H24.3199V21.0506H18.7999V22.8871ZM29.84 20.6201V21.0506C29.84 24.0891 27.3643 26.5599 24.3199 26.5599H18.3646C17.1879 26.5579 16.0828 25.9963 15.3893 25.0476L10.8581 18.1948C9.76531 16.5359 7.90861 15.5382 5.91961 15.5412V13.7047C7.20338 13.7028 8.46723 14.0198 9.59758 14.627C10.7279 15.2342 11.6892 16.1125 12.3947 17.1829L16.9018 24.0015C17.222 24.4403 17.7786 24.7232 18.3647 24.7232H24.3201C25.2246 24.7221 26.0971 24.389 26.7717 23.7875C27.4462 23.1858 27.8756 22.3577 27.978 21.4608L23.217 17.5024C21.7376 17.9826 20.1538 18.045 18.6413 17.6824C17.1285 17.3199 15.7459 16.5467 14.6463 15.4483L6.72507 7.54246C6.30645 7.12556 5.51708 7.26054 5.26588 7.78211C4.72496 8.90688 4.0801 10.6882 4.0801 12.7861C4.0801 14.5316 4.5383 16.8209 4.98172 19.0337C5.37185 20.9812 5.77385 22.9847 5.88795 24.7229L7.76004 24.7227V20.1315H9.60011V26.5589L4.08006 26.559V25.6409C4.08006 23.8954 3.62186 21.6061 3.17844 19.3933C2.71747 17.0923 2.23999 14.7131 2.23999 12.7857C2.23999 10.3423 2.98421 8.28377 3.60707 6.98711C3.83317 6.52366 4.1851 6.1329 4.62284 5.85928C5.06058 5.58581 5.56637 5.44053 6.08293 5.43994C6.80606 5.43994 7.51455 5.73278 8.02602 6.24344L15.9473 14.1493C16.8594 15.0607 18.0196 15.6847 19.284 15.9435C20.5483 16.2024 21.8608 16.085 23.059 15.6057L23.5686 15.4037L29.84 20.6201Z" fill="#8C9AAC"/>
</svg>
