<svg width="32" height="32" viewBox="0 0 32 32" fill="none" xmlns="http://www.w3.org/2000/svg">
<path fill-rule="evenodd" clip-rule="evenodd" d="M5.6515 12.6364C5.17691 10.739 5.17139 8.0046 5.17139 7.88867C5.17174 6.89823 5.53226 5.94175 6.18555 5.19735C6.83902 4.45294 7.74065 3.97164 8.72276 3.84285C10.4445 3.62279 13.1126 3.36011 16.0409 3.36011C18.9664 3.36011 21.6345 3.6228 23.3572 3.84285C24.3392 3.97181 25.2408 4.4533 25.8941 5.19753C26.5475 5.94193 26.9081 6.89823 26.9086 7.88867C26.9086 8.00454 26.9031 10.739 26.4284 12.6364L24.6713 12.1981C25.0916 10.5135 25.0969 7.91395 25.0969 7.88868H25.0971C25.0975 7.33869 24.8977 6.80731 24.5355 6.39353C24.173 5.97977 23.6726 5.71176 23.1272 5.63975C20.7768 5.33708 18.4098 5.18069 16.04 5.1715C13.2079 5.1715 10.6221 5.42606 8.95287 5.63975C8.4075 5.71175 7.90705 5.97975 7.54458 6.39353C7.1823 6.8073 6.98259 7.33869 6.98295 7.88868C6.98295 7.91398 6.98932 10.5179 7.40856 12.1981L5.65144 12.6364H5.6515ZM9.69993 9.7001H11.5113V7.88867H9.69993V9.7001ZM12.417 14.2287H14.2285V12.4172H12.417V14.2287ZM17.8513 14.2287H19.6627V12.4172H17.8513V14.2287ZM20.5684 9.7001H22.3798V7.88867H20.5684V9.7001ZM15.1342 9.7001H16.9456V7.88867H15.1342V9.7001ZM25.4755 21.91C24.8143 22.9995 24.1913 24.0294 24.1913 25.098V26.9095H22.1262L21.2205 24.1923H10.8592L9.95348 26.9095H7.88837V25.098C7.88837 24.0292 7.2643 22.9995 6.60413 21.91C5.89849 20.748 5.17125 19.547 5.17125 18.3052C5.17125 17.0543 6.18664 16.04 7.43552 16.04C8.68549 16.04 9.69979 17.0543 9.69979 18.3043V21.4743H11.5112V19.4337C12.4323 19.182 14.2483 18.7562 16.0397 18.7562C17.8303 18.7562 19.6463 19.1818 20.5683 19.4337V21.4743H22.3797V18.3043C22.3797 17.0554 23.3951 16.04 24.644 16.04C25.8939 16.04 26.9082 17.0554 26.9082 18.3043C26.9082 19.547 26.1801 20.7479 25.4754 21.91L25.4755 21.91ZM24.6441 14.2296C23.6907 14.2315 22.7678 14.5676 22.0365 15.1797C21.3054 15.7916 20.8117 16.6407 20.6419 17.5789C19.5524 17.3008 17.8069 16.9458 16.0409 16.9458C14.273 16.9458 12.5277 17.3008 11.4381 17.5798C11.2686 16.6412 10.7752 15.7917 10.0438 15.1795C9.31251 14.5671 8.38964 14.2306 7.43579 14.2287C6.35515 14.2295 5.31906 14.6594 4.55487 15.4234C3.79086 16.1876 3.36101 17.2237 3.36011 18.3044C3.36011 20.0525 4.26034 21.5388 5.05478 22.8492C5.58104 23.716 6.07832 24.5367 6.07832 25.0973V28.7201H11.259L12.1647 26.003H19.9157L20.8214 28.7201H26.003V25.0973C26.003 24.5367 26.4994 23.716 27.0265 22.8492C27.819 21.5388 28.7201 20.0525 28.7201 18.3044C28.7201 16.0563 26.8915 14.2287 24.6444 14.2287L24.6441 14.2296Z" fill="#8C9AAC"/>
</svg>
