<svg width="40" height="40" viewBox="0 0 40 40" fill="none" xmlns="http://www.w3.org/2000/svg">
<path fill-rule="evenodd" clip-rule="evenodd" d="M29.6404 2.87578C32.2128 1.97996 35.158 4.08777 35.1414 6.76864C35.1613 15.4458 35.1613 24.1185 35.1414 32.7869C35.158 34.9935 33.1014 36.9366 30.8784 36.8543C28.5255 36.9564 26.5255 34.7399 26.6486 32.4608C26.6486 24.0033 26.6486 15.5457 26.6486 7.08151C26.641 6.15908 26.9255 5.25746 27.462 4.50317C27.9986 3.74888 28.7604 3.17979 29.6404 2.87578Z" fill="#F9AB00"/>
<path fill-rule="evenodd" clip-rule="evenodd" d="M18.355 15.7998C20.8775 14.8283 23.8393 16.9855 23.826 19.6202C23.8726 23.9017 23.826 28.1832 23.846 32.4647C23.8825 33.1544 23.7425 33.842 23.4388 34.4638C23.1351 35.0857 22.6776 35.6215 22.1088 36.0216C20.5547 37.2534 17.9922 37.1414 16.691 35.6066C15.5596 34.4243 15.3832 32.7117 15.3599 31.1605C15.3599 27.3203 15.3599 23.478 15.3599 19.6334C15.3599 17.8879 16.711 16.3729 18.3217 15.8031L18.355 15.7998ZM6.74069 28.7167C9.17004 27.6793 12.2583 29.5105 12.458 32.1222C12.8573 34.4276 10.9405 36.7857 8.57768 36.868C6.38793 37.1084 4.15493 35.3464 4.03512 33.1431C3.91274 32.2128 4.11223 31.269 4.6011 30.4652C5.08997 29.6614 5.83941 29.0452 6.72737 28.7167H6.74069Z" fill="#E37400"/>
</svg>
