<svg width="32" height="32" viewBox="0 0 32 32" fill="none" xmlns="http://www.w3.org/2000/svg">
<path fill-rule="evenodd" clip-rule="evenodd" d="M9.65784 6.35155L8.74274 4.52298L10.3789 3.70461L11.294 5.53318L9.65766 6.35137L9.65784 6.35155ZM22.2752 6.35155L20.6389 5.53336L21.554 3.70479L23.1903 4.52298L22.2752 6.35155ZM15.0514 5.9428H16.8816V3.19995H15.0514V5.9428ZM15.9665 22.1832L12.8716 15.9999H19.0614L15.9665 22.1832ZM20.5145 11.2073L18.7392 11.6498L19.3706 14.1713H12.5623L13.1937 11.6498L11.4184 11.2073L10.6772 14.1714H6.81559V15.9999H10.8256L14.9436 24.2285H16.9897L21.1076 15.9999H25.1176V14.1714H21.256L20.5148 11.2073H20.5145ZM27.483 15.9999L16.8815 26.5928C16.3911 27.0801 15.5418 27.0801 15.0513 26.5928L4.44901 15.9999C4.20558 15.758 4.0692 15.4287 4.0701 15.0856C4.0701 14.7401 4.20468 14.4155 4.44901 14.1714L9.0245 9.59994H22.9084L27.4839 14.1714C27.7282 14.4155 27.8628 14.7401 27.8628 15.0856C27.8628 15.4312 27.7282 15.7549 27.4839 15.9999H27.483ZM28.7779 12.8785L23.6661 7.77133H8.26685L3.1551 12.8785C2.56706 13.4626 2.23767 14.2573 2.24 15.0856C2.24 15.9194 2.56583 16.7038 3.1551 17.2928L13.7574 27.8857C14.3476 28.4744 15.131 28.8 15.9665 28.8C16.8021 28.8 17.5862 28.4744 18.1756 27.8857L28.778 17.2928C29.3673 16.7031 29.6931 15.9196 29.6931 15.0856C29.6931 14.2519 29.3672 13.4675 28.778 12.8785H28.7779Z" fill="#8C9AAC"/>
</svg>
