<svg width="32" height="32" viewBox="0 0 32 32" fill="none" xmlns="http://www.w3.org/2000/svg">
<path fill-rule="evenodd" clip-rule="evenodd" d="M16 17.9572C18.6999 17.9572 20.5078 18.4026 20.5833 18.4219L20.1611 20.124C20.1435 20.1197 18.4684 19.7111 16.0004 19.7111C13.5323 19.7111 11.8571 20.1197 11.8397 20.1241L11.4174 18.4221C11.4926 18.4026 13.3005 17.9572 16.0003 17.9572M25.8256 17.2906C23.278 18.0167 21.4514 20.53 20.3981 24.7602C19.9713 26.4711 17.4595 26.7263 16.0003 26.7263C14.541 26.7263 12.0292 26.471 11.6025 24.7602C10.82 21.6189 9.9335 18.0585 6.25085 17.2458C5.81367 17.1493 5.50862 16.7941 5.50862 16.3803V10.4038L8.4078 11.3728C8.5819 11.4311 8.73348 11.5427 8.84067 11.692C8.94802 11.8414 9.00589 12.0209 9.00574 12.2051V13.1855C9.00574 13.5625 8.76615 13.8975 8.40781 14.0168L6.98091 14.4939L7.5335 16.1583L8.96121 15.6804C9.48367 15.5064 9.9381 15.1716 10.26 14.7237C10.5819 14.2759 10.7549 13.7377 10.7544 13.1855V12.2052C10.7549 11.653 10.5819 11.1148 10.26 10.6669C9.93811 10.2191 9.48367 9.88426 8.96121 9.71028L5.58649 8.58252C5.70224 8.30356 5.95483 8.10538 6.25261 8.0599C7.91198 7.82563 11.3855 7.43375 16 7.43375C20.6145 7.43375 24.088 7.82579 25.7466 8.0599C26.0447 8.10555 26.2975 8.30356 26.4137 8.58252L23.039 9.71028C22.5165 9.88427 22.0621 10.2191 21.7402 10.6669C21.4183 11.1148 21.2454 11.653 21.2458 12.2052V13.1855C21.2458 14.3193 21.9661 15.3218 23.039 15.6812L24.4667 16.1583L25.0193 14.494L23.5924 14.0178C23.4183 13.9596 23.2667 13.8479 23.1595 13.6984C23.0522 13.5491 22.9943 13.3697 22.9945 13.1855V12.2052C22.9943 12.021 23.0522 11.8414 23.1595 11.6921C23.2667 11.5427 23.4183 11.4311 23.5924 11.3729L26.4916 10.4038V16.4443C26.4916 16.8371 26.2231 17.1765 25.8253 17.2906M25.9907 6.32278C24.2866 6.08247 20.7214 5.67993 16.0001 5.67993C11.2788 5.67993 7.71361 6.08247 6.00874 6.32278C5.38496 6.41455 4.81476 6.72802 4.40202 7.20609C3.98927 7.684 3.76159 8.29489 3.76001 8.92723V16.3801C3.76001 17.6236 4.6299 18.6838 5.87495 18.9591C8.49964 19.5388 9.15086 22.1546 9.90624 25.1844C10.4362 27.3102 12.5991 28.4799 15.9999 28.4799C19.4008 28.4799 21.5639 27.3102 22.0937 25.1844C22.7065 22.7255 23.9341 19.6529 26.3035 18.9775C27.4443 18.6521 28.24 17.6093 28.24 16.4439V8.92711C28.2384 8.2946 28.0106 7.68371 27.5977 7.20564C27.1848 6.72757 26.6144 6.41422 25.9905 6.32262" fill="#8C9AAC"/>
</svg>
