<svg width="32" height="32" viewBox="0 0 32 32" fill="none" xmlns="http://www.w3.org/2000/svg">
<path fill-rule="evenodd" clip-rule="evenodd" d="M12.2001 16.8001H13.8001V14.4H12.2001V16.8001ZM12.2001 12H13.8001V9.60001H12.2001V12ZM8.19999 24.0001H9.79995V21.6001H8.19999V24.0001ZM8.19999 19.2001H9.79995V16.8001H8.19999V19.2001ZM8.19999 14.4H9.79995V12H8.19999V14.4ZM8.19999 9.60001H9.79995L9.80012 7.19999H8.19999L8.19999 9.60001ZM16.2002 19.2001H17.8001V16.8001H16.2002V19.2001ZM16.2002 14.4H17.8001V12H16.2002V14.4ZM16.2002 9.60001H17.8001V7.19999H16.2002V9.60001ZM27.4001 20.7999V24C27.4001 26.2057 25.6056 28 23.4002 28H13.8001V26.4H23.4002C24.7234 26.4 25.8002 25.3233 25.8002 24V22.4001L12.9999 22.3999V23.9999C12.9999 26.2055 11.2055 27.9998 8.99997 27.9998C6.79431 27.9998 5 26.2053 5 23.9999V4H21V19.2003H19.4V5.59987H6.59978V23.9999C6.59978 25.3231 7.67658 26.3999 8.9998 26.3999C10.323 26.3999 11.3998 25.3231 11.3998 23.9999V20.7998H27.3998L27.4001 20.7999Z" fill="#8C9AAC"/>
</svg>
