<svg width="32" height="32" viewBox="0 0 32 32" fill="none" xmlns="http://www.w3.org/2000/svg">
<path fill-rule="evenodd" clip-rule="evenodd" d="M29.8397 20.6182C29.8397 23.6746 27.3497 26.16 24.2878 26.16C21.2258 26.16 18.7358 23.6746 18.7358 20.6182C18.7349 19.6129 19.0086 18.6266 19.5271 17.7649C20.0457 16.9031 20.7898 16.1988 21.6793 15.7275L21.1536 14.1528H11.5515C11.3796 14.152 11.2109 14.1996 11.0646 14.2899C10.9184 14.3802 10.8005 14.5096 10.7243 14.6635L9.28722 17.5314C8.94843 18.2114 8.72302 18.942 8.62019 19.6946H13.8494L13.2117 17.1472L15.0069 16.7002L15.6445 19.2476C15.7848 19.7991 15.6604 20.3844 15.3077 20.8316C14.9582 21.2812 14.4195 21.5436 13.8494 21.5418H6.70677V20.6182C6.70677 19.351 6.99832 18.0855 7.53493 16.9337C6.57186 16.9586 5.65634 17.3574 4.98324 18.0455C4.31015 18.7334 3.93265 19.6565 3.93079 20.6182C3.93079 22.6557 5.59079 24.3127 7.63205 24.3127C8.79852 24.3178 9.89777 23.7689 10.5932 22.834L12.0736 23.9442C11.0291 25.3444 9.38084 26.1665 7.63205 26.16C4.5701 26.16 2.08008 23.6746 2.08008 20.6182C2.08194 19.0118 2.78153 17.485 3.99757 16.4329C5.21377 15.3807 6.82717 14.9065 8.42051 15.1327L9.0691 13.8367L9.06925 13.8369C9.46272 13.0467 10.2125 12.4932 11.0846 12.3489L10.6117 10.4581H8.5574V8.61093H14.1094V10.4583H12.5178L12.9805 12.3056H20.5368L19.1895 8.27193C19.0028 7.70864 19.0983 7.08997 19.4459 6.60858C19.7935 6.12723 20.3513 5.84147 20.9457 5.84009H24.288C25.8186 5.84009 27.064 7.08328 27.064 8.61101C27.064 10.1387 25.8186 11.3819 24.288 11.3819V9.5346C24.6186 9.5346 24.9241 9.35848 25.0894 9.07272C25.2547 8.78697 25.2547 8.4349 25.0894 8.14914C24.9241 7.86338 24.6186 7.68726 24.288 7.68726H20.9457L25.1652 20.3262L23.4109 20.9099L22.2802 17.5239C21.226 18.2015 20.5882 19.3666 20.5868 20.6182C20.5868 22.6557 22.2468 24.3127 24.2881 24.3127C26.3294 24.3127 27.9894 22.6557 27.9894 20.6182C27.9894 19.1486 27.1177 17.8196 25.7686 17.2303L26.5089 15.5382C27.4991 15.9696 28.3416 16.6801 28.9332 17.5824C29.525 18.4848 29.8401 19.5398 29.8401 20.6182" fill="#8C9AAC"/>
</svg>
