<svg width="32" height="32" viewBox="0 0 32 32" fill="none" xmlns="http://www.w3.org/2000/svg">
<path fill-rule="evenodd" clip-rule="evenodd" d="M15.013 21.4854L13.6417 19.7719C13.1227 19.1201 12.3345 18.741 11.5014 18.7424H8.68648V21.4854H15.013ZM17.3553 21.4854H28.7999V23.314H3.20077V21.4854H6.85779V18.1481L3.40182 13.8279L4.82801 12.685L8.21094 16.9137H11.5005C12.8956 16.9137 14.1975 17.5382 15.0696 18.629L17.3553 21.4854ZM21.0096 12.7627L19.4032 19.1904L17.6295 18.7479L19.2368 12.3202L11.9218 10.4915L12.1439 9.60474C13.275 5.0824 17.8713 2.32306 22.3946 3.45316C26.9174 4.58322 29.6766 9.18232 28.5457 13.7046L28.3244 14.5925L21.0104 12.7638L21.0096 12.7627ZM23.6811 28.8C22.5977 28.8 21.6276 28.2797 20.6887 27.7778C19.9151 27.3617 19.1848 26.9713 18.5603 26.9713C17.9368 26.9713 17.2063 27.3617 16.432 27.7778C15.494 28.2807 14.5239 28.8 13.4405 28.8C12.412 28.8 11.6642 28.3355 10.9409 27.8856C10.184 27.4156 9.46813 26.9713 8.31978 26.9713C7.17143 26.9713 6.45643 27.4156 5.69952 27.8856C4.97635 28.3355 4.22762 28.8 3.19995 28.8V26.9713C3.68263 26.9713 4.07759 26.7409 4.73402 26.3331C5.58881 25.8028 6.65039 25.1427 8.32069 25.1427C9.99099 25.1427 11.0534 25.802 11.9064 26.3331C12.5637 26.7409 12.9578 26.9713 13.4414 26.9713C14.065 26.9713 14.7946 26.58 15.5688 26.1648C16.5079 25.6619 17.4779 25.1427 18.5603 25.1427C19.6436 25.1427 20.6138 25.6619 21.5527 26.1648C22.3262 26.5798 23.0566 26.9713 23.681 26.9713C24.3046 26.9713 25.0342 26.58 25.8085 26.1648C26.7475 25.6619 27.7175 25.1427 28.8 25.1427V26.9713C28.1764 26.9713 27.4459 27.3617 26.6725 27.7778C25.7336 28.2807 24.7635 28.8 23.6801 28.8H23.6811ZM21.9522 5.22685C18.7031 4.41397 15.4153 6.15937 14.2012 9.17664L26.9331 12.3586C27.2806 9.1247 25.1951 6.03785 21.9522 5.22685Z" fill="#8C9AAC"/>
</svg>
