<svg width="158" height="24" viewBox="0 0 158 24" fill="none" xmlns="http://www.w3.org/2000/svg">
<g clip-path="url(#clip0_1335_221961)">
<path d="M34.4821 6.65967C29.6808 6.65967 26.2228 10.2819 26.2228 14.9565C26.2228 19.6311 29.7057 23.2289 34.4821 23.2289C36.7709 23.2289 38.8108 22.3968 40.3781 20.8549C41.9204 19.3129 42.7414 17.306 42.7414 14.9565C42.7414 10.2574 39.3084 6.65967 34.4821 6.65967ZM34.4821 20.0227C31.8949 20.0227 29.9296 17.9914 29.9296 14.932C29.9296 11.8972 31.9198 9.81688 34.4821 9.81688C37.0694 9.81688 39.0098 11.8483 39.0098 14.932C39.0098 18.0403 37.0694 20.0227 34.4821 20.0227Z" fill="#8C9AAC"/>
<path d="M48.8871 18.5761V9.8632H51.3251V6.75491H48.8871V3.18164H45.5287V6.75491H43.638V9.8632H45.5287V18.8943C45.5287 21.6598 46.7227 22.8101 49.4841 22.8101H52.4196V19.4326H49.5588C49.0612 19.4326 48.8871 19.2859 48.8871 18.5761Z" fill="#8C9AAC"/>
<path d="M61.8718 6.48573C60.3792 6.48573 59.0855 6.95074 57.9661 7.90521V0H54.3589V22.8347H57.9661V13.9749C57.9661 10.989 59.1104 9.69185 61.424 9.69185C63.4391 9.69185 64.3098 10.8422 64.3098 13.8525V22.8347H67.917V13.6078C67.917 9.15347 65.5786 6.48573 61.8718 6.48573Z" fill="#8C9AAC"/>
<path d="M78.8147 6.65967C73.9635 6.65967 70.5554 10.0371 70.5554 15.0544C70.5554 19.8514 74.2123 23.2289 79.0382 23.2289C82.0491 23.2289 84.4368 22.1765 86.7508 19.5087L84.1381 17.404C82.5218 19.264 80.9046 19.9983 79.0883 19.9983C76.4264 19.9983 74.486 18.4808 74.1377 16.2537H87.1984V15.5929C87.2235 10.2329 83.765 6.65967 78.8147 6.65967ZM74.1875 13.2678C74.6352 11.2609 76.5011 9.84135 78.7898 9.84135C81.0285 9.84135 82.7703 11.2119 83.268 13.2678H74.1875Z" fill="#8C9AAC"/>
<path d="M92.8454 8.17587V7.02556H89.611V22.8361H92.97V14.0253C92.97 11.3331 93.9648 10.1828 95.8304 10.1828C96.1291 10.1828 96.5273 10.2317 97.4726 10.452V6.90319C96.8009 6.75635 96.4771 6.75635 96.1792 6.75635C94.8356 6.75635 93.7163 7.24583 92.8454 8.17587Z" fill="#8C9AAC"/>
<path d="M106.378 19.9983C103.766 19.9983 101.85 18.0158 101.85 14.9565C101.85 11.9216 103.766 9.84135 106.378 9.84135C107.746 9.84135 108.791 10.2819 109.96 11.5791L112.249 8.9603C110.458 7.29601 108.616 6.65967 106.403 6.65967C101.576 6.65967 98.2181 10.2085 98.2181 14.9565C98.2181 19.7045 101.601 23.2289 106.403 23.2289C108.641 23.2289 110.433 22.5681 112.398 20.7815L110.034 18.1137C108.94 19.4843 107.846 19.9983 106.378 19.9983Z" fill="#8C9AAC"/>
<path d="M126.206 8.76333C124.813 7.44169 123.022 6.73193 120.932 6.73193C116.031 6.73193 112.797 10.036 112.797 14.8819C112.797 19.4342 116.279 23.0319 120.932 23.0319C122.996 23.0319 124.713 22.4201 126.007 21.1229V22.8361H129.589V7.02563H126.231V8.76333H126.206ZM121.305 19.8992C118.494 19.8992 116.429 17.8923 116.429 14.9064C116.429 11.945 118.469 9.91357 121.305 9.91357C124.091 9.91357 126.131 11.945 126.131 14.9064C126.156 17.8678 124.116 19.8992 121.305 19.8992Z" fill="#8C9AAC"/>
<path d="M135.784 8.17587V7.02556H132.549V22.8361H135.908V14.0253C135.908 11.3331 136.903 10.1828 138.769 10.1828C139.067 10.1828 139.466 10.2317 140.411 10.452V6.90319C139.739 6.75635 139.415 6.75635 139.118 6.75635C137.749 6.75635 136.655 7.24583 135.784 8.17587Z" fill="#8C9AAC"/>
<path d="M157.277 15.5929C157.277 10.2085 153.819 6.63525 148.868 6.63525C143.992 6.63525 140.609 10.0127 140.609 15.03C140.609 19.8269 144.266 23.2044 149.117 23.2044C152.127 23.2044 154.515 22.1521 156.829 19.4844L154.216 17.3795C152.6 19.2396 150.983 19.9738 149.167 19.9738C146.505 19.9738 144.565 18.4564 144.216 16.2292H157.277V15.5929ZM144.241 13.2679C144.689 11.2609 146.555 9.84144 148.844 9.84144C151.083 9.84144 152.824 11.2119 153.321 13.2679H144.241Z" fill="#8C9AAC"/>
<path d="M17.5409 6.73193C15.501 6.73193 13.8093 7.46617 12.4162 8.91012C11.247 7.44169 9.80407 6.73193 7.96318 6.73193C6.47054 6.73193 5.20179 7.19695 4.05743 8.15148V7.02563H0.499966V22.8361H4.10718V14.1233C4.10718 11.1374 5.22667 9.88911 7.4905 9.88911C9.33146 9.88911 10.3514 11.0639 10.3514 14.0009V22.8361H13.8343V14.1233C13.8343 11.1374 14.9537 9.88911 17.2176 9.88911C19.0585 9.88911 20.0287 11.0394 20.0287 14.0009V22.8361H23.611V13.7317C23.611 9.37519 21.2229 6.73193 17.5409 6.73193Z" fill="#8C9AAC"/>
</g>
<defs>
<clipPath id="clip0_1335_221961">
<rect width="156.777" height="23.2263" fill="white" transform="translate(0.5)"/>
</clipPath>
</defs>
</svg>
