<svg width="161" height="24" viewBox="0 0 161 24" fill="none" xmlns="http://www.w3.org/2000/svg">
<path fill-rule="evenodd" clip-rule="evenodd" d="M0.606201 0.610352H9.3193V1.03329H8.84929C7.9334 1.03329 7.30673 1.24476 6.98134 1.65594C6.65596 2.07888 6.48724 2.63105 6.48724 3.32419V20.5119C6.48724 21.205 6.65596 21.7572 6.98134 22.1801C7.30673 22.5913 7.9334 22.8028 8.84929 22.8028H9.3193V23.2257H0.606201V22.8028H1.0762C2.63082 22.8028 3.4021 22.0391 3.4021 20.5119V3.32419C3.4021 2.72503 3.26954 2.19636 2.99236 1.72643C2.72723 1.26825 2.08851 1.03329 1.0762 1.03329H0.606201V0.610352Z" fill="#8C9AAC"/>
<path fill-rule="evenodd" clip-rule="evenodd" d="M20.9006 0.302246L33.5304 16.8203V3.01609C33.5304 1.48882 32.7229 0.725182 31.096 0.725182H30.6019V0.302246H37.7845V0.725182H37.2542C35.6394 0.725182 34.8319 1.48882 34.8319 3.01609V23.223H34.4342L20.1534 4.77832V20.2038C20.1534 21.0379 20.3704 21.6253 20.7801 21.9777C21.2019 22.3184 21.8045 22.4947 22.5998 22.4947H23.0939V22.9176H15.9114V22.4947H16.4296C18.0565 22.4947 18.8639 21.731 18.8639 20.2038V3.03958C18.3096 2.27595 17.7191 1.70029 17.1044 1.31259C16.4778 0.913154 15.7547 0.725182 14.9473 0.725182V0.302246H20.9006Z" fill="#8C9AAC"/>
<path fill-rule="evenodd" clip-rule="evenodd" d="M60.3447 0L60.7424 7.61286H60.3447C59.5372 5.27496 58.537 3.71244 57.3318 2.73734C56.1267 1.75049 54.5239 1.17482 52.7162 1.17482C51.1013 1.17482 49.8962 1.56252 48.691 2.3379C47.2931 3.12503 46.4857 4.29985 45.6903 5.85062C45.0877 7.61286 44.678 9.56306 44.678 11.9127C44.678 14.0509 45.0877 15.6134 45.6903 17.1759C46.2928 18.5505 47.2931 19.7135 48.691 20.5007C49.8962 21.2761 51.5111 21.6637 53.1139 21.6637C54.7167 21.6637 55.9218 21.4758 57.127 20.8884C58.1272 20.113 59.5372 18.9382 60.7424 17.1759L61.3449 17.3756C60.1398 19.5256 58.9347 20.8884 57.3318 21.8635C55.9218 22.6506 54.1141 23.2263 51.9087 23.2263C48.1005 23.2263 45.2805 21.8635 43.0751 19.1261C41.6651 16.9879 40.8698 14.6383 40.8698 11.9127C40.8698 9.76278 41.2674 7.81258 42.4726 5.85062C43.4728 4.10013 44.8828 2.53762 46.4857 1.56252C48.2934 0.587412 50.2818 0 52.4872 0H52.5475C54.1382 0 55.7411 0.39944 57.3318 1.17482C57.7295 1.56252 58.1272 1.56252 58.3321 1.56252C58.537 1.56252 58.9347 1.56252 59.1395 1.3628C59.3323 0.975103 59.5372 0.587412 59.7421 0H60.3447Z" fill="#8C9AAC"/>
<path fill-rule="evenodd" clip-rule="evenodd" d="M73.8426 6.00014L70.3478 14.4354H77.3737L73.8426 6.00014ZM63.7437 23.223V22.8001C64.3462 22.7296 64.8524 22.4477 65.2621 21.966C65.6839 21.4843 66.1057 20.7324 66.5275 19.7221L74.6862 0.302246H74.9755L83.1583 19.7221C83.4957 20.5327 83.785 21.1319 84.0139 21.5196C84.2429 21.8955 84.5322 22.201 84.8696 22.3889C85.195 22.5886 85.677 22.7296 86.3157 22.8001V23.223H77.7232V22.8001C79.1693 22.5534 79.8924 22.0952 79.8924 21.4256C79.8924 20.9321 79.8201 20.5092 79.6634 20.145L77.8678 15.8099H69.7934L68.0339 20.1098C68.0098 20.1685 67.9616 20.286 67.8893 20.474C67.8049 20.6619 67.7567 20.8147 67.7206 20.9439C67.6965 21.0614 67.6844 21.2024 67.6844 21.3668C67.6844 21.8603 67.9134 22.2244 68.3593 22.4594C68.8052 22.6944 69.3114 22.8001 69.8778 22.8001V23.223H63.7437Z" fill="#8C9AAC"/>
<path fill-rule="evenodd" clip-rule="evenodd" d="M95.6299 0.302246L108.26 16.8203V3.01609C108.26 1.48882 107.452 0.725182 105.825 0.725182H105.331V0.302246H112.514V0.725182H111.983C110.369 0.725182 109.549 1.48882 109.549 3.01609V23.223H109.163L94.8827 4.77832V20.2038C94.8827 21.0379 95.0876 21.6253 95.5093 21.9777C95.9191 22.3184 96.5337 22.4947 97.3291 22.4947H97.8232V22.9176H90.6406V22.4947H91.1588C92.7858 22.4947 93.5932 21.731 93.5932 20.2038V3.03958C93.0388 2.27595 92.4483 1.70029 91.8216 1.31259C91.207 0.913154 90.484 0.725182 89.6765 0.725182V0.302246H95.6299Z" fill="#8C9AAC"/>
<path fill-rule="evenodd" clip-rule="evenodd" d="M135.533 0L135.714 5.54517H135.148C135.148 4.52307 134.955 3.91216 134.762 3.28951C134.389 2.66685 134.003 2.25566 133.437 1.84447C132.858 1.64475 132.099 1.43328 131.147 1.43328H128.291V19.1144C128.291 20.5594 128.291 21.5933 128.676 21.793C129.05 22.4156 129.628 22.6154 130.58 22.6154H131.147V23.2263H122V22.6154H122.759C123.711 22.6154 124.482 22.2042 124.856 21.793C125.049 21.3818 125.049 20.5594 125.049 19.1144V1.43328H122.578C121.614 1.43328 120.855 1.43328 120.481 1.64475C119.903 1.84447 119.337 2.25566 118.951 2.87832C118.577 3.48923 118.384 4.3116 118.192 5.54517H117.625L117.999 0H135.533Z" fill="#8C9AAC"/>
<path fill-rule="evenodd" clip-rule="evenodd" d="M149.619 0.0361328C152.584 0.0361328 155.139 1.11697 157.308 3.31389C159.429 5.46382 160.514 8.13066 160.55 11.3262V11.6786C160.514 14.9681 159.417 17.7055 157.272 19.8906C155.091 22.1228 152.451 23.2271 149.354 23.2271C146.221 23.2271 143.594 22.1463 141.461 19.9729C139.328 17.7995 138.267 14.9916 138.267 11.5494C138.267 8.02493 139.496 5.15836 141.955 2.9262C144.1 0.999488 146.655 0.0361328 149.619 0.0361328ZM149.306 1.2227C147.269 1.2227 145.642 1.96284 144.401 3.43137C142.871 5.2641 142.111 7.94269 142.111 11.4789C142.111 15.1091 142.907 17.8934 144.486 19.8437C145.715 21.3239 147.318 22.0758 149.33 22.0758C151.463 22.0758 153.223 21.2534 154.621 19.6322C156.007 17.9992 156.706 15.4381 156.706 11.9371C156.706 8.14241 155.946 5.31109 154.404 3.45487C153.175 1.96284 151.475 1.2227 149.306 1.2227Z" fill="#8C9AAC"/>
</svg>
