<svg width="159" height="35" viewBox="0 0 159 35" fill="none" xmlns="http://www.w3.org/2000/svg">
<g clip-path="url(#clip0_1335_221999)">
<path d="M66.648 32.5243L64.8361 27.0129H63.7229L61.911 32.5243L60.1014 27.0061H58.7041L61.2101 34.446H62.3233L64.2727 29.2089L66.0789 34.446H67.1922L69.6913 27.0061H68.3054L66.648 32.5243ZM2.29935 30.1833H40.1842V31.2846H2.29935V30.1833ZM49.2357 2.21062H51.7428V18.6076H49.2323V2.21062H49.2357ZM61.2135 18.6076H63.7206V11.7184H72.3563V9.37629H63.7115V4.41673H73.3219V2.20949H61.2124L61.2135 18.6076ZM10.2398 18.8807C15.5335 18.8807 19.8502 14.6101 19.8502 9.37292C19.8502 4.27738 15.5335 1.93302 12.33 1.93302C6.06171 1.93302 5.64367 7.99732 5.64367 7.99732H5.79135C5.79135 7.99732 6.90461 3.58846 11.2213 3.58846C14.7088 3.58846 17.3556 5.93056 17.3556 9.23806C17.3556 13.0929 14.1522 16.2621 10.2557 16.2621C6.49566 16.2621 3.01729 13.5087 3.01729 8.54127C3.01729 4.67522 5.10749 1.50596 8.72786 0.134862V0C4.13169 0.685549 0.787364 4.68646 0.787364 9.36168C0.648774 14.5988 4.96777 18.8695 10.2592 18.8695L10.2398 18.8807ZM52.0212 30.1821C50.6296 29.9068 50.2115 29.6315 50.2115 29.0808C50.2115 28.5301 50.6318 28.2525 51.4725 28.2525C52.1768 28.2525 52.8697 28.5222 53.4264 28.938L54.1273 27.9828C53.4309 27.4321 52.4574 27.0163 51.4804 27.0163C49.9469 27.0163 48.9733 27.8479 48.9733 29.219C48.9733 30.5901 49.8026 31.0172 51.4725 31.4218C52.8584 31.7027 53.1424 31.9724 53.1424 32.5231C53.1424 33.0738 52.5857 33.4896 51.8928 33.4896C50.9158 33.4896 50.2229 33.0738 49.5186 32.5231L48.678 33.4896C49.5129 34.3213 50.6273 34.7371 51.7406 34.7371C53.2741 34.7371 54.3874 33.9167 54.3874 32.5344C54.3874 31.0172 53.549 30.4665 52.0177 30.1968L52.0212 30.1821ZM41.4372 18.6065L36.423 11.9937C38.9301 11.3082 40.6012 9.52127 40.6012 7.17242C40.6012 4.14926 38.102 2.08137 34.4782 2.08137H27.2307V18.4784H29.7298V12.4096H33.7626L38.3633 18.4784L41.4304 18.62L41.4372 18.6065ZM29.7367 10.2001V4.41673H34.334C36.7013 4.41673 38.0941 5.38325 38.0941 7.17354C38.0941 8.96384 36.5605 10.0675 34.334 10.0675H29.7367V10.2001ZM75.9778 31.2835H79.7379V30.045H75.9778V28.2536H80.156V27.014H74.726V34.3168H80.156V33.2154H75.9858L75.9778 31.2835ZM105.086 2.07238L97.566 18.6076H100.213L102.161 14.337H110.238L112.05 18.6076H114.835L107.316 2.07238H105.085H105.086ZM102.998 12.1308L106.054 5.10453L109.11 12.1398H102.975L102.998 12.1308ZM123.605 6.48237L128.899 14.1987L129.171 14.6123L129.444 14.2077L134.597 6.49811V18.6245H137.104V2.21623H134.736L129.165 10.4833L123.592 2.21623H121.23V18.6132H123.598L123.605 6.48237ZM123.605 30.1821H158.695V31.2835H123.605V30.1821ZM148.812 16.2655V11.4442H157.446V9.10095H148.812V4.41449H158.559V2.21174H146.313V18.6087H158.57V16.2621L148.812 16.2655ZM113.166 32.1084L109.126 27.0129H107.873V34.3157H109.265V29.2179L113.298 34.3157H114.411V27.0129H113.162L113.166 32.1084ZM83.6377 2.21174H81.2703V18.6087H92.6915V16.2666H83.6377V2.21174ZM98.5418 31.2858H102.302V30.0462H98.5418V28.2536H102.719V27.014H97.2854V34.3168H102.857V33.2154H98.5293L98.5418 31.2858ZM88.0942 27.0151H85.3008V34.3168H88.0873C90.4536 34.3168 91.986 32.6647 91.986 30.5968C92.1246 28.6672 90.4525 27.014 88.0851 27.014L88.0942 27.0151ZM88.0942 33.2143H86.5606V28.2536H88.0942C89.6277 28.2536 90.5933 29.355 90.5933 30.7328C90.7296 32.1107 89.6164 33.2132 88.0828 33.2132L88.0942 33.2143Z" fill="#8C9AAC"/>
</g>
<defs>
<clipPath id="clip0_1335_221999">
<rect width="157.901" height="34.8394" fill="white" transform="translate(0.78418)"/>
</clipPath>
</defs>
</svg>
