<svg width="100" height="16" viewBox="0 0 100 16" fill="none" xmlns="http://www.w3.org/2000/svg">
<path d="M70.1812 2.90585C70.3565 2.90585 70.5015 2.76524 70.5015 2.59534V0.310504C70.5015 0.140605 70.3565 0 70.1812 0H62.1978C62.0225 0 61.8775 0.140605 61.8775 0.310504V2.58948C61.8775 2.75938 62.0225 2.89999 62.1978 2.89999H64.3009C64.4762 2.89999 64.6212 3.04059 64.6212 3.21049V15.1561C64.6212 15.3318 64.7723 15.4666 64.9415 15.4666H67.4314C67.6067 15.4666 67.7517 15.326 67.7517 15.1561V3.21635C67.7517 3.04059 67.8968 2.90585 68.072 2.90585H70.1812Z" fill="#8C9AAC"/>
<path d="M52.8006 15.4725C52.9759 15.4725 53.1209 15.3318 53.1209 15.1619L53.127 0.316362C53.127 0.140605 52.9819 0 52.8006 0H50.4558C50.2745 0 50.1355 0.146464 50.1355 0.316362V6.91896C50.1355 7.08886 50.0811 7.10057 50.0146 6.93653L47.1742 0.298786C47.1137 0.140605 46.9143 0 46.733 0H44.5151C44.3398 0 44.1948 0.140605 44.1948 0.316362V15.1619C44.1948 15.3377 44.3398 15.4725 44.5151 15.4725H46.8539C47.0352 15.4725 47.1802 15.3318 47.1802 15.1619V8.17269C47.1802 7.99693 47.2286 7.99107 47.289 8.15511L50.2322 15.1795C50.2926 15.3377 50.486 15.4725 50.6673 15.4725H52.8006Z" fill="#8C9AAC"/>
<path d="M38.1389 9.22137C38.1389 9.05147 38.1752 9.01632 38.3565 9.01632H40.5442C40.7195 9.01632 40.8645 8.86986 40.8645 8.69996V6.46785C40.8645 6.29795 40.7195 6.15734 40.5442 6.15734H38.3565C38.1752 6.15734 38.1389 6.12219 38.1389 5.94644V3.11089C38.1389 2.941 38.1752 2.90584 38.3565 2.90584H42.1337C42.3089 2.90584 42.454 2.78867 42.454 2.61878V0.310504C42.454 0.140605 42.3089 0 42.1337 0H35.3166C35.1414 0 34.9963 0.140605 34.9963 0.310504V15.1619C34.9963 15.3377 35.1414 15.4725 35.3166 15.4725H42.1337C42.3089 15.4725 42.454 15.3318 42.454 15.1619V12.8713C42.454 12.6955 42.3089 12.5549 42.1337 12.5549H38.3565C38.1752 12.5549 38.1389 12.5197 38.1389 12.344V9.22137Z" fill="#8C9AAC"/>
<path d="M28.3785 9.32683C28.3785 9.15693 28.4269 9.15693 28.4873 9.31511L30.8503 15.1795C30.9047 15.3377 31.0981 15.4725 31.2733 15.4725H33.8358C34.0171 15.4725 34.1138 15.3377 34.0533 15.1795L31.0195 7.704C30.9591 7.54582 30.9591 7.27633 31.0256 7.11815L33.7512 0.292928C33.8176 0.134747 33.7209 0 33.5457 0H30.9833C30.802 0 30.6146 0.128888 30.5542 0.292928L28.4994 5.73553C28.439 5.89371 28.3846 5.88785 28.3846 5.71795V0.310504C28.3846 0.140605 28.2395 0 28.0643 0H25.7134C25.5381 0 25.3931 0.140605 25.3931 0.310504V15.1619C25.3931 15.3377 25.5381 15.4725 25.7134 15.4725H28.0643C28.2456 15.4725 28.3846 15.3318 28.3846 15.1619L28.3785 9.32683Z" fill="#8C9AAC"/>
<path d="M92.3307 9.32683C92.3307 9.15693 92.379 9.15693 92.4334 9.31511L94.7964 15.1795C94.8568 15.3377 95.0442 15.4725 95.2195 15.4725H97.7819C97.9571 15.4725 98.0538 15.3377 97.9934 15.1795L94.9596 7.704C94.8991 7.54582 94.9052 7.27633 94.9656 7.11815L97.6912 0.292928C97.7577 0.134747 97.661 0 97.4857 0H94.9233C94.742 0 94.5486 0.128888 94.4882 0.292928L92.4274 5.73553C92.3669 5.89371 92.3186 5.88785 92.3186 5.71795V0.310504C92.3186 0.140605 92.1736 0 91.9983 0H89.6474C89.4661 0 89.3271 0.140605 89.3271 0.310504V15.1619C89.3271 15.3377 89.4721 15.4725 89.6474 15.4725H91.9983C92.1736 15.4725 92.3186 15.3318 92.3186 15.1619V9.32683" fill="#8C9AAC"/>
<path d="M13.4099 0.310504C13.4099 0.140605 13.2649 0 13.0896 0H10.7387C10.5634 0 10.4184 0.140605 10.4184 0.310504V15.1619C10.4184 15.3318 10.5634 15.4725 10.7387 15.4725H13.0896C13.2649 15.4725 13.4099 15.3318 13.4099 15.1619V0.310504Z" fill="#8C9AAC"/>
<path d="M59.3758 6.57916C58.427 5.65937 57.4479 4.93291 57.4479 4.07756C57.4479 3.48584 57.9435 2.9117 58.566 2.90585C58.711 2.90585 59.8593 2.90585 60.3367 2.90585H60.3428C60.5241 2.90585 60.6691 2.76524 60.6691 2.58948V0.322221V0.316362C60.6691 0.140605 60.5241 0 60.3428 0H58.1369C55.6953 0 54.3416 1.65211 54.3718 3.98382C54.3839 5.87613 55.5261 7.17088 57.1216 8.60622C58.0281 9.40885 58.7715 10.0709 58.7715 11.1488C58.7715 12.0335 58.2457 12.5256 57.3754 12.549H54.6982C54.5229 12.5549 54.3779 12.6955 54.3779 12.8713V15.1561C54.3779 15.3318 54.5229 15.4725 54.7042 15.4725H58.2276H58.2336C60.8988 15.5252 61.8838 13.3517 61.8838 11.1254C61.8778 8.98703 60.7477 7.93249 59.3758 6.57916Z" fill="#8C9AAC"/>
<path d="M4.75506 12.7189H3.81228C3.63098 12.7189 3.59472 12.6838 3.59472 12.508V9.22723C3.59472 9.05147 3.63702 9.01632 3.81228 9.01632H4.75506C5.48027 9.01632 5.66762 9.63147 5.68575 10.8032C5.69784 12.3557 5.43797 12.7189 4.75506 12.7189ZM3.58263 2.96443C3.58263 2.78867 3.61889 2.75938 3.79415 2.75938H4.5375C5.21436 2.75938 5.49236 3.2515 5.49236 4.51695C5.49236 5.92886 5.09954 6.15149 4.5375 6.15149H3.79415C3.61889 6.15149 3.58263 6.11633 3.58263 5.94644V2.96443ZM7.53505 7.44623C7.53505 7.44623 7.45044 7.3935 7.4444 7.30562C7.4444 7.2236 7.54713 7.14158 7.54713 7.14158C8.27235 6.39755 8.44761 5.64765 8.44761 4.90361V3.10504C8.42343 0.919794 7.66196 0 5.1781 0H0.923514C0.742211 0 0.597168 0.140605 0.597168 0.316362V15.1561C0.597168 15.3318 0.742211 15.4725 0.923514 15.4725H5.40171C7.74052 15.4725 8.64704 13.8555 8.64704 11.5882V10.3169C8.65308 8.81713 8.41739 8.06723 7.53505 7.44623Z" fill="#8C9AAC"/>
<path d="M20.4561 4.54038C20.4743 6.09876 20.2084 6.46199 19.5254 6.46199H18.5887C18.4074 6.46199 18.3711 6.42684 18.3711 6.25108V2.97029C18.3711 2.79453 18.4135 2.75938 18.5887 2.75938H19.5254C20.2507 2.75938 20.438 3.36867 20.4561 4.54038ZM24.0701 15.1795L21.5017 9.06319H21.5319L21.7736 8.96945C22.5593 8.58279 23.363 7.75673 23.363 6.16906V3.29251C23.363 0.538987 21.7011 0 19.6524 0H15.6939C15.5126 0 15.3615 0.140605 15.3615 0.316362V15.1561C15.3615 15.3318 15.5066 15.4725 15.6939 15.4725H18.0327C18.214 15.4725 18.3591 15.3318 18.3591 15.1561V9.32683C18.3591 9.15693 18.4074 9.15693 18.4618 9.31511L20.861 15.1795C20.9154 15.3377 21.1088 15.4725 21.2841 15.4725H23.8465C24.0339 15.4783 24.1306 15.3436 24.0701 15.1795Z" fill="#8C9AAC"/>
<path d="M86.7582 15.4788C82.1168 15.4788 81.5366 12.239 81.5366 7.71621C81.5366 3.1934 82.1168 0.00634766 86.7582 0.00634766H87.8097C87.991 0.00634766 88.1421 0.135236 88.1421 0.305134V2.59583C88.1421 2.77159 87.9971 2.91219 87.8158 2.91219H86.7582C84.927 2.91219 84.6309 3.73825 84.6309 7.72207C84.6309 11.7235 84.9331 12.5612 86.7582 12.5612H87.8158C87.9971 12.5612 88.1421 12.7018 88.1421 12.8776V15.1683C88.1421 15.3441 87.9971 15.4847 87.8158 15.4847H86.7582" fill="#8C9AAC"/>
<path d="M75.5657 12.5725C77.3969 12.5725 77.4332 11.7054 77.4332 7.704C77.4332 3.72018 77.3969 2.74181 75.5657 2.74181C73.7406 2.74181 73.6983 3.72018 73.6983 7.704C73.6983 11.7054 73.7346 12.5725 75.5657 12.5725ZM75.5657 0C80.2071 0 80.5274 3.1812 80.5274 7.704C80.5274 12.2268 80.2071 15.4725 75.5657 15.4725C70.9244 15.4725 70.6041 12.2268 70.6041 7.704C70.6041 3.18706 70.9183 0 75.5657 0Z" fill="#8C9AAC"/>
<path d="M98.332 7.16781C98.332 7.02721 98.2474 6.95105 98.06 6.95105H97.7095C97.6853 6.95105 97.6793 6.95691 97.6793 6.98034V7.36701C97.6793 7.38458 97.6853 7.3963 97.7095 7.3963H98.06C98.2474 7.3963 98.332 7.31428 98.332 7.16781ZM97.4436 8.29266C97.4134 8.29266 97.3892 8.27508 97.3892 8.23993V6.75186C97.3892 6.71671 97.4134 6.69913 97.4436 6.69913H98.0661C98.4226 6.69913 98.6341 6.87489 98.6341 7.17367C98.6341 7.39044 98.5072 7.54862 98.3078 7.61892L98.6402 8.24579C98.6583 8.27508 98.6402 8.29852 98.61 8.29852H98.3924C98.3622 8.29852 98.338 8.28094 98.3199 8.24579L98.0117 7.65993H97.7155C97.6914 7.65993 97.6853 7.66579 97.6853 7.68923V8.24579C97.6853 8.28094 97.6611 8.29852 97.6309 8.29852H97.4436V8.29266ZM99.178 7.50175C99.178 6.8163 98.6583 6.31247 97.9573 6.31247C97.2562 6.31247 96.7365 6.8163 96.7365 7.50175C96.7365 8.1872 97.2562 8.6969 97.9573 8.6969C98.6583 8.6969 99.178 8.1872 99.178 7.50175ZM96.4766 7.50175C96.4766 6.68741 97.1233 6.06641 97.9573 6.06641C98.8034 6.06641 99.4379 6.69327 99.4379 7.50175C99.4379 8.32195 98.8034 8.94882 97.9573 8.94882C97.1233 8.94882 96.4766 8.32195 96.4766 7.50175Z" fill="#8C9AAC"/>
</svg>
