<svg width="116" height="24" viewBox="0 0 116 24" fill="none" xmlns="http://www.w3.org/2000/svg">
<g clip-path="url(#clip0_1335_221942)">
<path d="M11.8566 6.76329C13.4053 6.76329 14.8724 7.57825 15.6876 8.71918C15.7283 8.75993 15.7283 8.75993 15.7691 8.80068C15.8098 8.84143 15.8506 8.88218 15.8506 8.92292C16.3804 9.61564 17.2363 10.0231 18.1736 10.0231C19.8038 10.0231 21.1488 8.67844 21.1488 7.04852C21.1488 6.27431 20.8635 5.5816 20.3744 5.05188C18.3366 2.52552 15.8913 1.05859 11.8158 1.05859C5.41722 1.05859 0.608093 5.50011 0.608093 11.7345C0.608093 18.0504 5.41722 22.4919 11.8566 22.4919C15.9728 22.4919 18.3774 21.0658 20.4152 18.7839C20.8635 18.2542 21.1488 17.6022 21.1488 16.8687C21.1488 15.2388 19.8446 13.9349 18.2144 13.9349C17.3178 13.9349 16.5434 14.3424 16.0136 14.9536C15.0355 15.9315 13.9351 16.8687 11.8973 16.8687C8.96293 16.8687 7.29196 14.7499 7.29196 11.7345C7.25121 8.84143 8.88142 6.76329 11.8566 6.76329Z" fill="#8C9AAC"/>
<path d="M39.611 2.40271C38.5921 1.87298 37.8993 1.75074 36.3913 1.87298C33.7015 2.11747 31.6229 3.99187 31.2562 4.4401V4.56234C31.2562 4.52159 31.2562 4.48084 31.2562 4.4401C31.1339 2.72869 29.7074 1.34326 27.955 1.34326C26.121 1.34326 24.6538 2.81018 24.613 4.60309V19.1501C24.6538 20.943 26.121 22.3691 27.955 22.3691C29.789 22.3691 31.2562 20.9022 31.2969 19.1093V15.1568C31.2969 9.77806 34.4351 8.39264 36.1875 8.35189C36.6358 8.35189 37.8178 8.80011 38.7551 8.63712C40.5891 8.31114 41.771 6.55898 41.445 4.76608C41.2004 3.70664 40.5076 2.85093 39.611 2.40271Z" fill="#8C9AAC"/>
<path d="M54.2005 17.0317C57.0941 17.0317 58.8058 14.9129 58.8466 11.8568C58.8466 8.75993 57.0941 6.68179 54.2005 6.68179C51.3068 6.68179 49.5136 8.75993 49.5136 11.8568C49.5136 14.8721 51.3068 17.0317 54.2005 17.0317ZM54.2005 1.05859C60.5583 1.05859 65.4897 5.54085 65.4897 11.816C65.4897 18.0504 60.5583 22.4919 54.2005 22.4919C47.8426 22.4919 42.8705 18.0504 42.8705 11.816C42.8705 5.54085 47.8426 1.05859 54.2005 1.05859Z" fill="#8C9AAC"/>
<path d="M80.1623 6.76329C81.711 6.76329 83.1782 7.57825 83.9933 8.71918C84.0341 8.75993 84.0341 8.75993 84.0748 8.80068C84.1156 8.84143 84.1563 8.88218 84.1563 8.92292C84.6862 9.61564 85.542 10.0231 86.4794 10.0231C88.1096 10.0231 89.4545 8.67844 89.4545 7.04852C89.4545 6.27431 89.1692 5.5816 88.6802 5.05188C86.6424 2.52552 84.1971 1.05859 80.1623 1.05859C73.7638 1.05859 68.9139 5.50011 68.9139 11.7345C68.9139 18.0504 73.723 22.4919 80.1623 22.4919C84.2786 22.4919 86.6832 21.0658 88.7209 18.7839C89.1692 18.2542 89.4545 17.6022 89.4545 16.8687C89.4545 15.2388 88.1504 13.9349 86.5201 13.9349C85.6235 13.9349 84.8492 14.3424 84.3194 14.9536C83.3412 15.9315 82.2409 16.8687 80.1623 16.8687C77.228 16.8687 75.557 14.7499 75.557 11.7345C75.5977 8.84143 77.228 6.76329 80.1623 6.76329Z" fill="#8C9AAC"/>
<path d="M103.026 9.20816C106.001 9.90087 109.751 11.2863 109.751 15.6871C109.751 19.4359 107.795 22.5327 101.315 22.5327C97.3614 22.5327 94.7938 21.3103 93.0005 19.7211C92.9598 19.6803 92.919 19.6396 92.8783 19.5989C92.7968 19.5581 92.756 19.4766 92.7153 19.4359C92.6745 19.3951 92.6337 19.3136 92.593 19.2729C92.5115 19.1914 92.4707 19.1099 92.43 19.0284C92.43 19.0284 92.3892 18.9876 92.3892 18.9469C91.8594 17.9689 91.9817 16.7465 92.7968 15.9315C93.7749 14.9129 95.4051 14.8721 96.424 15.8093L96.3832 15.7686C97.6874 16.7873 99.2361 17.3985 100.907 17.3985C103.026 17.3985 103.719 16.991 103.719 16.1353C103.719 14.9943 102.415 14.9943 99.0731 14.1386C96.261 13.4052 93.1228 11.8568 93.1228 7.57825C93.1228 2.93299 96.6685 1.05859 101.07 1.05859C104.453 1.05859 106.857 2.15879 108.528 3.87019C109.058 4.31842 109.384 5.01113 109.384 5.74459C109.384 7.17077 108.243 8.31171 106.817 8.31171C106.124 8.31171 105.512 8.06722 105.064 7.61899C104.086 6.80404 102.66 6.07058 101.111 6.07058C99.6436 6.07058 98.91 6.47806 98.91 7.29301C98.91 8.43395 100.214 8.59694 103.026 9.20816Z" fill="#8C9AAC"/>
<path d="M111.951 2.07855V1.54883H109.791V2.07855H110.565V4.19744H111.218V2.07855H111.951Z" fill="#8C9AAC"/>
<path d="M114.763 4.19744V2.32304L114.07 4.19744H113.622L112.929 2.32304V4.19744H112.318V1.54883H113.214L113.867 3.30098L114.519 1.54883H115.375V4.19744H114.763Z" fill="#8C9AAC"/>
</g>
<defs>
<clipPath id="clip0_1335_221942">
<rect width="114.93" height="23.2263" fill="white" transform="translate(0.567261)"/>
</clipPath>
</defs>
</svg>
