<svg width="76" height="24" viewBox="0 0 76 24" fill="none" xmlns="http://www.w3.org/2000/svg">
<path fill-rule="evenodd" clip-rule="evenodd" d="M75.2427 1.44424L74.0037 7.25392C73.9311 7.59175 73.6304 7.83458 73.2809 7.83458L72.1694 7.83352C72.0654 7.83476 71.9624 7.81335 71.8672 7.77071C71.772 7.72807 71.6869 7.66519 71.6176 7.58629C71.5482 7.5074 71.4963 7.41431 71.4652 7.31328C71.4341 7.21225 71.4246 7.10562 71.4373 7.00055C71.6779 5.09284 70.7945 3.47758 67.8497 3.47547C63.334 3.47441 60.1663 7.44501 60.1643 11.992C60.1622 16.1052 63.0758 19.2312 68.3464 19.2333C70.3693 19.2333 72.2275 18.6326 73.1296 18.2863C73.3784 18.1913 73.6345 18.4024 73.5858 18.6611L73.0508 21.4514C72.9719 21.8631 72.665 22.1936 72.2575 22.3076C70.6711 22.752 68.3298 23.2271 65.4607 23.2261C55.8923 23.262 52.148 18.3423 52.1501 13.3402C52.1522 8.36772 55.4785 -0.00527616 68.9841 2.49469e-06C71.2445 2.49469e-06 73.5568 0.505699 74.8819 0.862535C75.0038 0.893434 75.1093 0.97108 75.1764 1.07927C75.2434 1.18746 75.2668 1.31784 75.2417 1.44319L75.2427 1.44424ZM53.6567 1.23837L52.4622 6.47796C52.4248 6.63336 52.3367 6.77127 52.2125 6.86923C52.0882 6.96719 51.935 7.01943 51.7779 7.01744H49.9011C49.807 7.01886 49.7135 7.0006 49.6266 6.96379C49.5396 6.92698 49.461 6.8724 49.3956 6.80344C49.3302 6.73447 49.2794 6.65258 49.2463 6.56282C49.2132 6.47306 49.1986 6.37735 49.2033 6.2816C49.2893 4.88698 48.7968 4.06984 47.2052 4.06879L42.1597 4.0709L40.8459 10.0506L47.8864 10.0537C48.3147 10.0537 48.633 10.4454 48.5428 10.8603L47.9155 13.7139C47.8787 13.8721 47.7903 14.0128 47.6646 14.113C47.5389 14.2131 47.3834 14.2667 47.2238 14.265L39.8277 14.264C39.8277 14.264 39.0086 17.9464 38.9785 18.1037C38.6716 19.4297 39.7022 20.0188 40.229 20.2288C40.3949 20.2943 40.4903 20.4674 40.454 20.6406L40.0973 22.3435C40.0603 22.51 39.9684 22.6585 39.8369 22.7644C39.7054 22.8702 39.5422 22.927 39.3746 22.9252L31.2412 22.922C30.7694 22.922 30.4189 22.4892 30.5206 22.0352L34.2471 5.34411C34.665 3.72884 33.5918 3.15136 32.9635 2.95499C32.8525 2.92101 32.7583 2.84549 32.6998 2.74363C32.6413 2.64178 32.6229 2.52114 32.6483 2.40601L32.9853 0.911096C33.024 0.74673 33.1164 0.60062 33.2473 0.496672C33.3782 0.392724 33.5399 0.337094 33.7059 0.338891L52.9382 0.346281C53.4099 0.346281 53.7615 0.781243 53.6578 1.23837H53.6567ZM31.4662 1.22887L31.2163 2.3395C31.181 2.48757 31.1009 2.62066 30.9875 2.72006C30.8741 2.81947 30.7329 2.88021 30.5838 2.89376C29.8632 2.96977 28.5256 3.21892 27.4866 4.03289L19.6684 10.4602L25.6762 18.5186C26.8406 20.042 27.384 20.2785 28.9922 20.3049C29.1788 20.307 29.3178 20.478 29.2804 20.6596L28.9258 22.3382C28.8886 22.5047 28.7964 22.6531 28.6647 22.7588C28.533 22.8644 28.3697 22.9209 28.2021 22.9188L23.6014 22.9083C18.4148 22.9051 16.985 20.6532 12.6684 12.8313L11.4034 18.5365C11.1856 19.5426 12.1811 20.0124 12.7202 20.1898C12.9027 20.25 13.0106 20.4379 12.9691 20.6258L12.5979 22.3213C12.5597 22.4864 12.4674 22.6334 12.3363 22.738C12.2051 22.8426 12.0428 22.8985 11.8762 22.8967L1.33309 22.8861C0.862341 22.884 0.513945 22.4533 0.61245 21.9993L0.896558 20.7081C0.924335 20.5898 0.988306 20.4835 1.07925 20.4046C1.17019 20.3256 1.2834 20.2782 1.40256 20.269C2.41457 20.1729 3.48568 19.587 4.1441 16.4842L6.61087 5.33566C6.9686 3.66339 5.97214 3.15769 5.29298 2.95183C5.1898 2.92274 5.10143 2.85464 5.04592 2.76143C4.99042 2.66822 4.97197 2.55695 4.99436 2.45035L5.33964 0.900541C5.37834 0.736071 5.47069 0.589826 5.60158 0.485702C5.73247 0.381577 5.89418 0.32573 6.06028 0.32728L16.226 0.325166C16.6179 0.325166 16.9093 0.684116 16.8243 1.06312L16.5536 2.27299C16.5151 2.43669 16.4364 2.58775 16.3248 2.71202C16.2133 2.83629 16.0726 2.9297 15.9159 2.9835C15.4338 3.15769 14.7484 3.55781 14.5275 4.4499L13.1485 10.6597L21.1636 4.07512C21.6956 3.64016 21.4872 3.04262 20.7717 2.8927C20.7263 2.88344 20.6832 2.86503 20.6449 2.83855C20.6066 2.81207 20.5738 2.77806 20.5486 2.73852C20.5234 2.69898 20.5062 2.6547 20.498 2.6083C20.4899 2.56189 20.4909 2.51429 20.5011 2.4683C20.5944 2.05234 20.7447 1.3904 20.8536 0.916376C20.8924 0.753686 20.9841 0.609141 21.1138 0.506221C21.2435 0.4033 21.4036 0.348052 21.568 0.34945L30.7445 0.339946C31.2163 0.339946 31.5668 0.772798 31.4641 1.22887" fill="#8C9AAC"/>
</svg>
