<svg width="67" height="35" viewBox="0 0 67 35" fill="none" xmlns="http://www.w3.org/2000/svg">
<path d="M21.9149 23.1263C21.9149 23.1263 24.5723 27.7109 30.3036 27.7109H59.2575L41.2109 9.35222C39.6442 7.77061 37.1256 7.77061 35.5589 9.35222L21.9149 23.1263ZM39.1286 11.5144L45.2763 17.7207H45.2366C45.4944 17.981 45.4548 18.2213 45.1573 18.2813H41.7066L38.9897 20.8439C38.5733 21.2443 38.2163 21.0842 38.2163 20.5036V18.2813V16.2593C38.2163 15.6787 37.8792 15.5185 37.4429 15.9189L34.9639 18.2613H31.1563C30.8588 18.2012 30.8192 17.981 31.0968 17.7007H31.077L37.2247 11.4944C37.7602 10.9739 38.6129 10.9739 39.1286 11.5144Z" fill="#8C9AAC"/>
<path d="M61.7558 30.391H32.2268V30.411C24.6909 30.411 17.6507 24.6251 17.6507 17.3577C17.6507 10.0903 23.7588 4.18429 31.2749 4.18429C33.1986 4.18429 35.0429 4.56468 36.7087 5.26539V5.24537L31.8897 0.320355C24.1158 -1.20119 18.3448 2.78286 12.1376 10.4507C5.93032 18.1185 0.912964 17.4178 0.912964 17.4178V31.352C0.912964 35.0958 4.48262 34.8355 4.48262 34.8355H66.1386L61.7558 30.391Z" fill="#8C9AAC"/>
</svg>
