<svg width="50" height="47" viewBox="0 0 50 47" fill="none" xmlns="http://www.w3.org/2000/svg">
<g clip-path="url(#clip0_1335_221972)">
<path d="M1.00362 0H45.3618V37.4655H1.00362V0Z" fill="#8C9AAC"/>
<path d="M35.1188 21.5436V24.2748C35.1188 24.9946 34.5399 25.5781 33.8259 25.5781C33.1119 25.5781 32.533 24.9946 32.533 24.2748V10.8447H30.0245V26.5312H37.6273V21.5358H35.1188V21.5436ZM16.2779 24.2514C16.2779 24.9828 15.7067 25.5975 14.9889 25.5975C14.2672 25.589 13.6879 24.9945 13.6922 24.267V21.5358H11.1837V23.8002C11.1837 24.9362 12.1716 26.7647 14.9812 26.7647C17.7907 26.7647 18.7787 25.3641 18.7787 23.8002V10.8447H16.2779V24.2514ZM25.6945 10.8447H20.6774V26.5312H25.6945C27.57 26.5312 28.203 25.2785 28.203 24.477V19.7851C28.203 19.116 27.5392 18.2444 26.5512 18.2444C27.5392 18.2444 28.203 16.8595 28.203 16.0814V13.4047C28.203 11.6696 26.6593 10.8447 25.6945 10.8447ZM24.7065 25.2552H23.1859V18.9292H24.7065C25.6945 18.9292 25.6945 19.6528 25.6945 22.1116C25.6945 24.5705 25.6945 25.2552 24.7065 25.2552ZM24.5521 17.6065L23.1859 17.5987V12.3309H24.5521C25.4706 12.3309 25.6945 12.5255 25.6945 14.9843C25.6945 17.443 25.4706 17.6065 24.5521 17.6065ZM12.4418 19.8318C13.2579 19.8467 13.9315 19.1918 13.9464 18.3692C13.9613 17.5464 13.3117 16.8673 12.4956 16.8521C11.6795 16.8371 11.0057 17.4918 10.9907 18.3145V18.3379C10.9822 19.1543 11.6318 19.8233 12.4418 19.8318ZM14.7573 10.8447H10.1263L12.4418 16.2681L14.7573 10.8447Z" fill="#E8EBEE"/>
<path d="M9.51639 40.1274V42.6251H6.68378V40.1274H5.5414V45.7453H6.6915V43.1231H9.52419V45.1383C9.51951 45.2464 9.54352 45.3539 9.59363 45.4496C9.63714 45.5259 9.70137 45.588 9.77887 45.6286C9.84925 45.6732 9.92813 45.7023 10.0104 45.7141C10.0816 45.7289 10.1539 45.7367 10.2265 45.7375H10.6665V40.1196H9.51639V40.1274Z" fill="#8C9AAC"/>
<path d="M31.9156 45.7453V40.1274H30.7964L28.5503 44.2824L26.2657 40.1196H25.131V45.7375H25.7176V41.3801L28.1258 45.7375H28.4268L30.7732 41.419V45.1383C30.7711 45.2471 30.7978 45.3546 30.8505 45.4496C30.8958 45.5264 30.9594 45.5906 31.0357 45.6364C31.106 45.6809 31.185 45.7101 31.2672 45.7219C31.341 45.7367 31.4159 45.7445 31.491 45.7453H31.9156Z" fill="#8C9AAC"/>
<path d="M39.1015 45.7467L36.238 40.0044H35.8984L32.9654 45.7467H33.6368L34.5476 43.9648H36.6239L36.3384 43.3891H34.8409L35.8058 41.4983L37.6968 45.2954C37.7576 45.4324 37.8536 45.5506 37.9747 45.6378C38.103 45.7138 38.2503 45.7517 38.3991 45.7467H39.1015Z" fill="#8C9AAC"/>
<path d="M45.0689 40.1257C45.0327 40.1247 44.9965 40.1273 44.9608 40.1335C44.9199 40.1423 44.8807 40.158 44.845 40.1801C44.8069 40.203 44.7751 40.2351 44.7524 40.2735C44.7262 40.3211 44.713 40.3747 44.7138 40.4292V44.0472L40.9008 40.1257H40.1676V45.7435H40.8391V41.5107L44.7138 45.6035C44.8682 45.7591 45.092 45.7435 45.3004 45.7435H45.3776V40.1257H45.0689Z" fill="#8C9AAC"/>
<path d="M15.0122 40.0044H14.6804L11.7396 45.7467H12.4112L14.58 41.4983L15.5217 43.3891H14.0166L13.7233 43.9571H15.815L16.4788 45.2954C16.5397 45.4324 16.6355 45.5506 16.7566 45.6378C16.886 45.711 17.0331 45.746 17.1812 45.7389H17.8836L15.0122 40.0044Z" fill="#8C9AAC"/>
<path d="M22.3762 45.2922L20.6858 43.1758H20.0992V45.7435H18.9569V40.1256H21.0641C21.0641 40.1256 21.9285 40.1101 22.4997 40.4058C23.0709 40.7014 23.3101 41.1061 23.3101 41.6274C23.3101 42.1486 23.0091 42.7556 21.9208 43.0668L24.1129 45.7435H23.2253C23.0889 45.7389 22.9538 45.7154 22.8238 45.6735C22.6155 45.5879 22.3762 45.2922 22.3762 45.2922ZM20.0992 40.6158V42.74H20.6318C20.6318 42.74 21.1567 42.7478 21.504 42.5455C21.8514 42.3432 22.0906 42.0631 22.0906 41.6507C22.0881 41.2385 21.8377 40.8691 21.4577 40.7169C21.2725 40.6375 21.0722 40.6003 20.8711 40.608H20.0992V40.6158Z" fill="#8C9AAC"/>
<path d="M1.00352 43.1196H1.17325V44.2012C1.34306 44.03 1.49744 43.9366 1.7522 43.9366C2.16897 43.9366 2.4623 44.2634 2.4623 44.738C2.4623 45.2905 2.10725 45.6407 1.56696 45.6407C1.37271 45.6382 1.18096 45.5958 1.00352 45.5161V43.1196ZM1.18105 45.3994C1.30622 45.4501 1.4398 45.4765 1.57467 45.4772C1.95807 45.4904 2.27949 45.1877 2.29249 44.8011C2.29249 44.7855 2.29249 44.7692 2.29249 44.7536C2.29249 44.3646 2.06088 44.0923 1.73677 44.0923C1.5361 44.0923 1.37401 44.1856 1.18105 44.4112V45.3994Z" fill="#8C9AAC"/>
<path d="M2.98722 46.4543H2.81741L3.37313 45.295L2.7016 43.9722H2.87912L3.45799 45.1237L4.01371 43.9722H4.19124L2.98722 46.4543Z" fill="#8C9AAC"/>
</g>
<path fill-rule="evenodd" clip-rule="evenodd" d="M46.8829 29.0131C46.8829 29.2282 46.9602 29.4384 47.1051 29.6172C47.2499 29.796 47.4558 29.9354 47.6966 30.0177C47.9375 30.1 48.2025 30.1215 48.4582 30.0796C48.7139 30.0376 48.9487 29.9341 49.1331 29.782C49.3174 29.6299 49.443 29.4362 49.4938 29.2253C49.5447 29.0143 49.5186 28.7957 49.4188 28.597C49.319 28.3983 49.1501 28.2285 48.9333 28.109C48.7166 27.9896 48.4617 27.9258 48.201 27.9258C47.8515 27.9258 47.5162 28.0403 47.269 28.2443C47.0218 28.4482 46.8829 28.7247 46.8829 29.0131ZM47.1317 29.0131C47.1317 28.8383 47.1946 28.6675 47.3123 28.5222C47.4301 28.3768 47.5974 28.2636 47.7932 28.1968C47.989 28.13 48.2044 28.1125 48.4122 28.1467C48.62 28.1809 48.8108 28.2652 48.9606 28.3889C49.1103 28.5126 49.2121 28.6701 49.2533 28.8416C49.2944 29.0131 49.273 29.1908 49.1916 29.3522C49.1103 29.5136 48.9728 29.6515 48.7965 29.7484C48.6201 29.8453 48.4129 29.8969 48.201 29.8966C48.0604 29.8968 47.9211 29.874 47.7912 29.8297C47.6613 29.7853 47.5432 29.7202 47.4439 29.6382C47.3445 29.5561 47.2658 29.4586 47.2122 29.3513C47.1586 29.2441 47.1313 29.1291 47.1317 29.0131ZM47.6952 29.6275V28.3974H48.2472C48.6162 28.3974 48.8107 28.4994 48.8107 28.759C48.8107 28.9819 48.6459 29.0702 48.4119 29.0892L48.8222 29.6329H48.5355L48.1631 29.1056H47.9457V29.6329L47.6952 29.6275ZM47.9457 28.9289V28.566H48.2472C48.3938 28.566 48.5619 28.5945 48.5619 28.7413C48.5619 28.8881 48.4202 28.9289 48.2439 28.9289H47.9457Z" fill="#8C9AAC"/>
<defs>
<clipPath id="clip0_1335_221972">
<rect width="44.3814" height="46.4525" fill="white" transform="translate(0.999039)"/>
</clipPath>
</defs>
</svg>
