<svg width="48" height="35" viewBox="0 0 48 35" fill="none" xmlns="http://www.w3.org/2000/svg">
<path fill-rule="evenodd" clip-rule="evenodd" d="M9.1842 17.818H3.94793V18.4309H5.42958V32.2135C5.42958 32.2135 5.64777 34.2875 3.94793 34.2875C2.2481 34.2875 2.43371 31.4249 2.43371 31.1433V2.95199C2.43371 2.95199 2.52815 0.596363 3.73627 0.596363C4.94439 0.596363 6.44558 3.8134 6.96335 10.0156V11.0758H7.56578V0.281612H6.95032V1.18941C6.86396 1.25033 6.76226 1.28482 6.65725 1.2888C6.40976 1.2888 5.35469 0 3.81442 0C2.27415 0 0.0760894 0.785209 0.0760894 3.97574V29.7154C0.0760894 29.7154 -0.249554 34.8375 3.93816 34.8375C3.93816 34.8375 5.2049 34.9335 6.56281 33.7706C6.56281 33.7706 7.33457 33.3929 7.33457 34.5558H7.98585V18.4176H9.17443V17.8047L9.1842 17.818Z" fill="#8C9AAC"/>
<path fill-rule="evenodd" clip-rule="evenodd" d="M24.7033 0.562988L28.3081 33.9394L29.6498 33.946V34.5589H24.4135V33.946H25.7323L24.3256 20.6074H21.1831L19.9653 32.5644C19.9653 33.5749 20.6296 33.9129 21.131 33.946H21.4013V34.5589H17.6956V33.9791V33.946H18.0212C18.3633 33.9352 18.6885 33.7921 18.9305 33.5459C19.1725 33.2996 19.3131 32.9688 19.3238 32.6207C19.3238 32.243 22.5801 0.562988 22.5801 0.562988H24.7033ZM22.7591 5.52904L21.2612 19.8914H24.2733L22.7591 5.52904Z" fill="#8C9AAC"/>
<path fill-rule="evenodd" clip-rule="evenodd" d="M38.1305 0.552613H43.3407L43.3375 0.532715C43.3375 0.532715 47.6033 0.552613 47.6033 3.96846V17.6284C47.6033 17.6284 47.499 20.6897 44.3078 20.6897H42.0283V33.9655H43.9268V34.5783H38.2281V33.9655H39.433V1.16557H38.1305V0.552613ZM43.7738 19.9742C43.7738 19.9742 45.1349 19.9543 45.1349 18.089H45.1317V3.339C45.1317 3.339 44.9037 1.20197 43.3375 1.20197H42.035V19.9742H43.7738Z" fill="#8C9AAC"/>
</svg>
