<svg width="52" height="31" viewBox="0 0 52 31" fill="none" xmlns="http://www.w3.org/2000/svg">
<g clip-path="url(#clip0_1335_221915)">
<path d="M41.7238 15.5776C47.1705 13.1043 50.727 9.3901 50.9208 5.26963C50.9208 5.26963 49.4829 4.12622 44.8401 2.36295C40.7631 0.814535 37.6528 0.460152 37.6528 0.460152L37.6671 9.64076C37.6671 11.0126 37.1336 12.4129 36.1263 13.6526C33.0447 12.8845 29.6388 12.4536 26.0667 12.4524H26.0643C22.4898 12.4536 19.0803 12.8858 15.9951 13.655C14.9878 12.4153 14.4531 11.0138 14.4531 9.64076L14.4662 0.460152C14.4662 0.460152 11.3583 0.814535 7.27892 2.36295C2.63611 4.12622 1.20056 5.26963 1.20056 5.26963C1.39316 9.39134 4.95094 13.1068 10.4036 15.5801C4.95572 18.0533 1.39915 21.7676 1.20654 25.8868C1.20654 25.8868 2.64329 27.0315 7.2861 28.7935C11.3643 30.3419 14.4734 30.6963 14.4734 30.6963L14.4591 21.5157C14.4591 20.1438 14.9926 18.7424 16.0011 17.5039C19.0827 18.2731 22.4874 18.7028 26.0595 18.7028H26.0607C29.6364 18.7028 33.047 18.2719 36.1311 17.5002C37.1384 18.7399 37.6719 20.1438 37.6719 21.5157L37.6599 30.6963C37.6599 30.6963 40.7691 30.3419 44.8473 28.7935C49.4901 27.0315 50.9268 25.8868 50.9268 25.8868C50.733 21.7651 47.1753 18.0496 41.7238 15.5776ZM26.0619 17.6434H26.0583L25.9566 17.6409C22.7314 17.6409 20.102 16.826 18.1735 15.5801C20.102 14.3317 22.7326 13.5155 25.9638 13.5155L26.0631 13.5143H26.0679L26.1696 13.5155C29.396 13.5155 32.0242 14.3305 33.9526 15.5764C32.0242 16.8235 29.3936 17.6409 26.1636 17.6409" fill="#8C9AAC"/>
</g>
<defs>
<clipPath id="clip0_1335_221915">
<rect width="50.2819" height="30.9683" fill="white" transform="translate(0.89209)"/>
</clipPath>
</defs>
</svg>
