<svg width="151" height="28" viewBox="0 0 151 28" fill="none" xmlns="http://www.w3.org/2000/svg">
<g clip-path="url(#clip0_1335_221986)">
<path d="M85.7802 21.7511C85.7622 21.719 85.7443 21.6839 85.7279 21.6487L85.181 20.5913C84.0125 18.3573 83.0756 16.4869 82.0431 14.0634C82.168 13.9893 82.2984 13.9254 82.4331 13.8724C84.0648 13.0762 85.1451 11.6368 85.1227 9.13534C85.0435 6.0792 82.3121 4.56488 79.9273 4.56641H70.9918V22.59H75.4835V15.1452H78.0371C78.8903 16.5984 80.6236 20.7273 80.8955 21.3752L81.4245 22.5977H86.206L85.7802 21.7511ZM80.1858 11.9776C79.1309 13.2718 76.9508 13.1771 75.4416 13.1725V6.57124C75.4416 6.57124 79.2892 5.98293 80.3352 7.86857C80.8851 8.92447 80.9523 10.911 80.1858 11.9776Z" fill="#8C9AAC"/>
<path d="M69.2016 7.90548C68.4679 5.70353 66.8646 4.57123 64.5172 4.57276H55.7013V22.5903H60.163V15.9875C60.163 15.9875 66.5374 16.3466 68.3364 13.9139C69.6782 12.3445 69.7544 9.84155 69.2016 7.90548ZM65.0222 12.6838C63.9763 13.9444 61.6722 13.9291 60.1391 13.8206L60.154 6.59592C60.154 6.59592 64.1227 6.02748 65.1716 7.87339C65.7738 8.98124 65.9173 11.4613 65.0222 12.6838Z" fill="#8C9AAC"/>
<path d="M11.9131 5.65106C13.624 7.64978 17.7167 13.2914 17.7167 13.2914C19.8235 16.0695 22.6401 20.6873 25.4269 23.0145V4.56919H22.9375V13.8629C21.1877 11.58 19.1362 8.66747 17.6001 6.81545C16.9232 5.98724 15.175 4.0527 14.6804 3.62636C11.4768 0.432695 5.59853 -0.999108 0.692993 0.76123V0.92779C2.37848 0.559525 4.55406 0.693995 6.69528 1.56805C8.2956 2.1747 10.5922 3.99463 11.9131 5.65106Z" fill="#8C9AAC"/>
<path d="M27.0775 25.5264C25.4772 24.9152 23.1806 23.0999 21.8597 21.4388C20.1488 19.4401 16.0561 13.7985 16.0561 13.7985C13.9493 11.0266 11.1326 6.4179 8.34592 4.08301V22.591H10.8338V13.2316C12.585 15.5145 14.6366 18.427 16.1727 20.279C16.851 21.1073 18.5978 23.0418 19.0924 23.4681C22.296 26.6603 28.1742 28.0921 33.0798 26.3424V26.1652C31.3943 26.535 29.2187 26.4005 27.0775 25.5264Z" fill="#8C9AAC"/>
<path d="M39.982 6.58981L39.9969 4.57275H27.9341V22.5903H39.9909L39.976 20.5747C37.6659 20.6343 34.7641 21.0087 32.3868 20.7703V14.3005C34.4055 14.1961 36.4287 14.2298 38.4429 14.4013V12.262C36.623 12.4989 34.3293 12.4805 32.3868 12.3583V6.3988C34.7701 6.15584 37.6719 6.54549 39.982 6.58981Z" fill="#8C9AAC"/>
<path d="M52.4554 13.8349C50.4173 12.0302 47.9429 11.4603 46.1991 10.2378C44.9724 9.27358 45.1606 8.02515 45.7822 7.35127C47.2496 5.67803 50.3127 6.46804 51.0255 6.63766C51.922 6.90965 52.4121 7.19846 53.2668 7.59117V5.33574C49.6149 4.2447 43.768 3.20561 41.4624 6.96619C40.6152 8.5126 40.3941 11.3212 42.8341 12.9517C45.2936 14.9519 49.3295 15.9085 49.8331 17.5221C50.1424 18.4053 49.7688 19.2488 49.1891 19.8478C47.006 21.9199 43.511 20.6195 41.2428 19.5927V21.8221C43.6903 22.9452 46.7878 23.231 49.5342 22.6259C51.4199 22.1965 53.5298 20.4988 53.8675 18.4053C54.2141 16.3379 53.7868 14.9901 52.4554 13.8349Z" fill="#8C9AAC"/>
<path d="M137.188 4.30061C136.022 4.29144 128.469 4.41827 128.436 13.5103C128.436 22.5366 135.892 22.8942 137.188 22.8865C138.483 22.8789 145.941 22.5366 145.918 13.5103C145.906 4.41827 138.361 4.29144 137.188 4.30061ZM137.216 20.3744H137.152C136.66 20.3744 133.052 20.5272 133.077 13.1634C133.105 6.33142 136.612 6.52395 137.192 6.52548C137.772 6.52701 141.274 6.33142 141.3 13.1634C141.33 20.5303 137.714 20.3744 137.216 20.3744Z" fill="#8C9AAC"/>
<path d="M112.27 13.8349C110.232 12.0302 107.758 11.4603 106.014 10.2378C104.789 9.27358 104.968 8.02515 105.597 7.35127C107.064 5.67803 110.127 6.46804 110.84 6.63766C111.737 6.90965 112.227 7.19846 113.082 7.59117V5.33574C109.431 4.2447 103.583 3.20561 101.277 6.96619C100.43 8.5126 100.21 11.3212 102.649 12.9517C105.11 14.9519 109.144 15.9085 109.648 17.5221C109.957 18.4053 109.584 19.2488 109.004 19.8478C106.821 21.9199 103.326 20.6195 101.059 19.5927V21.8221C103.507 22.9452 106.604 23.231 109.35 22.6259C111.236 22.1965 113.346 20.4988 113.684 18.4053C114.029 16.3379 113.602 14.9901 112.27 13.8349Z" fill="#8C9AAC"/>
<path d="M148.95 20.9979C148.95 20.6465 148.754 20.5395 148.621 20.5197V20.5105C148.736 20.4706 148.834 20.392 148.899 20.2875C148.964 20.1831 148.992 20.0591 148.98 19.9359C148.98 19.5631 148.741 19.3247 148.264 19.3247H147.197V21.5863H147.588V20.6541H148.156C148.515 20.6541 148.605 20.8421 148.605 21.2654C148.595 21.3761 148.613 21.4876 148.657 21.5893H149.069C148.98 21.4992 148.95 21.2638 148.95 20.9979ZM148.218 20.3623H147.588V19.6594H148.218C148.413 19.6594 148.603 19.7205 148.603 20.0016C148.603 20.2324 148.472 20.3623 148.218 20.3623Z" fill="#8C9AAC"/>
<path d="M148.011 18.3389C147.598 18.3413 147.195 18.4688 146.852 18.7054C146.51 18.9419 146.244 19.2769 146.087 19.668C145.931 20.0591 145.891 20.4888 145.973 20.903C146.055 21.3172 146.255 21.6972 146.548 21.9952C146.841 22.2932 147.214 22.4957 147.619 22.5773C148.025 22.6588 148.445 22.6157 148.826 22.4535C149.208 22.2912 149.534 22.017 149.763 21.6655C149.993 21.3139 150.115 20.9008 150.115 20.4782C150.115 20.1962 150.061 19.917 149.955 19.6567C149.849 19.3963 149.694 19.16 149.498 18.9612C149.303 18.7623 149.071 18.605 148.815 18.4982C148.56 18.3914 148.287 18.3373 148.011 18.3389ZM148.011 22.4112C147.637 22.413 147.271 22.3014 146.959 22.0903C146.647 21.8793 146.404 21.5784 146.259 21.2257C146.115 20.873 146.075 20.4844 146.147 20.109C146.218 19.7336 146.397 19.3883 146.66 19.1168C146.924 18.8453 147.26 18.6598 147.627 18.5838C147.993 18.5078 148.373 18.5446 148.719 18.6897C149.065 18.8348 149.362 19.0816 149.57 19.3989C149.779 19.7162 149.891 20.0897 149.892 20.4721C149.891 20.9824 149.692 21.4714 149.34 21.833C148.988 22.1945 148.51 22.3996 148.011 22.4036V22.4112Z" fill="#8C9AAC"/>
<path d="M125.95 13.8349C123.918 12.0302 121.44 11.4603 119.707 10.2378C118.477 9.27358 118.661 8.02515 119.278 7.35127C120.743 5.67803 123.804 6.46804 124.521 6.63766C125.427 6.90965 125.914 7.19846 126.775 7.59117V5.33574C123.114 4.2447 117.27 3.20561 114.97 6.96619C114.105 8.5126 113.89 11.3212 116.347 12.9517C118.812 14.9519 122.849 15.9085 123.338 17.5221C123.655 18.4053 123.29 19.2488 122.691 19.8478C120.518 21.9199 117.013 20.6195 114.758 19.5927L114.743 21.8221C117.198 22.9452 120.291 23.231 123.044 22.6259C124.937 22.1965 127.038 20.4988 127.39 18.4053C127.713 16.3379 127.284 14.9901 125.95 13.8349Z" fill="#8C9AAC"/>
<path d="M87.6947 22.5903H99.7486V20.5747C97.4266 20.6343 94.5278 21.0087 92.1565 20.7703V14.3005C94.1786 14.1962 96.2053 14.2299 98.223 14.4013V12.262C96.3851 12.4989 94.0974 12.4805 92.1505 12.3583C92.1505 11.9763 92.1505 6.3988 92.1505 6.3988C94.5218 6.1482 97.4206 6.53785 99.7426 6.58217V4.57275H87.6947V22.5903Z" fill="#8C9AAC"/>
</g>
<defs>
<clipPath id="clip0_1335_221986">
<rect width="149.422" height="27.0973" fill="white" transform="translate(0.692993)"/>
</clipPath>
</defs>
</svg>
