<svg width="152" height="24" viewBox="0 0 152 24" fill="none" xmlns="http://www.w3.org/2000/svg">
<g clip-path="url(#clip0_1335_221913)">
<path fill-rule="evenodd" clip-rule="evenodd" d="M0.748413 11.6131V23.2263H76.2338H151.719V11.6131V0H76.2338H0.748413V11.6131ZM19.1937 4.71883C19.2735 4.83906 19.3753 4.98543 19.4199 5.04409C19.4646 5.10274 19.5541 5.22751 19.6189 5.32135C19.7803 5.55519 19.7885 5.56675 19.8556 5.65516C19.888 5.69798 19.9146 5.73889 19.9146 5.74604C19.9146 5.75318 19.9494 5.80452 19.992 5.86012C20.0345 5.9157 20.0843 5.98278 20.1026 6.00918C20.1208 6.03558 20.1519 6.07875 20.1716 6.10516C20.1913 6.13156 20.2424 6.20593 20.285 6.27045C20.3278 6.33497 20.3847 6.41655 20.4116 6.45174C20.4384 6.48693 20.5631 6.66449 20.6886 6.84631C20.8141 7.02813 20.9388 7.20569 20.9656 7.24088C20.9925 7.27607 21.066 7.38164 21.1291 7.47548C21.2439 7.64645 21.256 7.66328 21.3681 7.81095C21.4013 7.8547 21.4522 7.92928 21.4811 7.97669C21.5327 8.06139 21.5603 8.0995 21.7164 8.30171C21.7593 8.35732 21.7944 8.40816 21.7944 8.41471C21.7944 8.42672 22.7902 9.85147 22.882 9.97087C22.9091 10.0061 22.9661 10.0876 23.0089 10.1522C23.0863 10.2692 23.0972 10.2844 23.211 10.4343C23.2442 10.478 23.2951 10.5526 23.324 10.6C23.3529 10.6475 23.4037 10.722 23.437 10.7658C23.4702 10.8095 23.51 10.8645 23.5255 10.888C23.541 10.9114 23.572 10.9546 23.5945 10.984C23.6169 11.0133 23.6702 11.0901 23.7128 11.1546C23.7556 11.2191 23.812 11.3007 23.8384 11.3359C23.8647 11.3711 23.9263 11.4559 23.9751 11.5244C24.024 11.593 24.0787 11.6506 24.0966 11.6524C24.1147 11.6543 24.1616 11.6078 24.201 11.5491C24.2405 11.4905 24.3017 11.4041 24.3372 11.3572C24.3727 11.3103 24.4144 11.2479 24.43 11.2186C24.4456 11.1892 24.4962 11.1171 24.5425 11.0582C24.5888 10.9994 24.6617 10.8986 24.7043 10.8343C24.747 10.77 24.7981 10.6958 24.8178 10.6694C24.8375 10.643 24.8702 10.5974 24.8905 10.5681C24.9107 10.5387 24.9439 10.4907 24.9642 10.4614C24.9844 10.4321 25.0166 10.3865 25.0357 10.3601C25.0547 10.3337 25.2306 10.0818 25.4265 9.80024C25.6225 9.51871 25.8046 9.25958 25.8313 9.22439C25.858 9.18919 25.9148 9.10761 25.9575 9.0431C26.0349 8.92603 26.0458 8.91082 26.1597 8.76095C26.1929 8.71721 26.2437 8.64262 26.2726 8.59521C26.3015 8.5478 26.3487 8.47801 26.3775 8.44013C26.4062 8.40225 26.4553 8.33767 26.4865 8.29662C26.5177 8.25556 26.5854 8.15698 26.6369 8.07755C26.6885 7.99811 26.7578 7.89733 26.791 7.85361C26.8243 7.80987 26.8658 7.75488 26.8832 7.73142C26.9136 7.69062 27.4903 6.86373 27.7534 6.48373C27.8224 6.38402 27.8948 6.28086 27.9143 6.25445C27.9338 6.22805 27.9646 6.18488 27.9828 6.15848C28.001 6.13207 28.0431 6.0747 28.0763 6.03096C28.1095 5.98721 28.1604 5.91263 28.1893 5.86522C28.2181 5.8178 28.269 5.74322 28.3022 5.69948C28.3704 5.60968 28.3776 5.59962 28.5403 5.36401C28.6052 5.27016 28.6869 5.15499 28.722 5.10807C28.7571 5.06115 28.8672 4.90516 28.9666 4.76143L29.1473 4.50007L34.3906 4.50549L39.6339 4.51088V11.7091V18.9073H35.7545H31.8751L31.8565 14.4391C31.8463 11.9816 31.8332 9.97567 31.8274 9.98153C31.8217 9.9874 30.6607 11.9981 29.2475 14.4498L26.6781 18.9073L24.1304 18.9128C22.1189 18.9171 21.5754 18.9126 21.5479 18.8915C21.5289 18.8767 21.302 18.4952 21.0438 18.0435C20.7857 17.5919 20.5604 17.2032 20.5432 17.1798C20.526 17.1563 20.4512 17.0267 20.3769 16.8918C20.3025 16.7569 20.2323 16.6322 20.2207 16.6146C20.1778 16.5493 18.3392 13.3808 17.5907 12.0823C17.1647 11.3433 16.8007 10.7195 16.7818 10.696C16.7629 10.6726 16.7045 10.5718 16.6522 10.4721C16.5997 10.3724 16.5411 10.2741 16.5219 10.2538C16.5026 10.2334 16.4868 10.2021 16.4868 10.1841C16.4868 10.1662 16.472 10.1349 16.4539 10.1145C16.4358 10.0942 16.3985 10.0487 16.371 10.0135C16.3286 9.95935 16.3195 10.6365 16.3117 14.4338L16.3023 18.918H12.4139H8.52547V11.7091V4.50022H13.787H19.0486L19.1937 4.71883ZM62.9927 5.92387L62.9833 7.34752L56.7817 7.35291L50.58 7.35831L50.5895 8.76056L50.599 10.1628L56.8003 10.1682L63.0017 10.1736V11.5919V13.0101H56.7911H50.5805V14.5457V16.0812L56.9293 16.0866L63.2781 16.092L63.2876 17.505L63.2971 18.918H53.0319H42.7666V11.7091V4.50022H52.8844H63.0022L62.9927 5.92387ZM87.9088 5.92387L87.8993 7.34752L84.2043 7.35296L80.5093 7.35839V13.1382V18.918H76.6208H72.7324L72.7231 13.1434L72.7138 7.36884L69.028 7.35818L65.3422 7.34752L65.3327 5.92387L65.3232 4.50022H76.6208H87.9183L87.9088 5.92387ZM110.788 4.53249C112.582 4.70636 113.948 5.25005 114.635 6.06431C114.896 6.37304 114.985 6.53317 115.104 6.91029C115.18 7.15115 115.178 10.7875 115.101 11.0479C115.017 11.3373 114.951 11.4601 114.733 11.74C114.473 12.0738 113.8 12.512 113.183 12.7503C112.691 12.9401 111.945 13.1337 111.378 13.2184C111.297 13.2305 111.148 13.2527 111.046 13.2677C110.935 13.2842 110.535 13.2984 110.033 13.3036C109.576 13.3084 109.19 13.3199 109.173 13.3293C109.156 13.3387 109.235 13.4294 109.348 13.5309C109.461 13.6324 109.553 13.7191 109.553 13.7235C109.553 13.728 109.728 13.8904 109.94 14.0846C110.153 14.2787 110.358 14.4691 110.396 14.5076C110.455 14.568 110.683 14.7805 111.157 15.2176C111.546 15.5763 111.714 15.733 111.747 15.7674C111.784 15.8067 112.363 16.3438 112.931 16.866C113.1 17.0218 113.239 17.1542 113.239 17.1601C113.239 17.166 113.256 17.1825 113.277 17.1966C113.314 17.2217 113.545 17.4354 114.125 17.9796C114.282 18.1262 114.561 18.3874 114.746 18.5601C114.931 18.7328 115.082 18.8839 115.082 18.8961C115.082 18.9112 113.676 18.9165 110.619 18.9127L106.156 18.9073L105.99 18.726C105.899 18.6263 105.674 18.3768 105.491 18.1715C105.307 17.9662 105.112 17.7503 105.057 17.6916C105.002 17.633 104.827 17.441 104.67 17.2651C104.342 16.8988 104.039 16.5639 103.84 16.348C103.765 16.2658 103.541 16.0163 103.343 15.7934C103.144 15.5705 102.925 15.3258 102.854 15.2496C102.784 15.1733 102.585 14.9526 102.413 14.759C102.24 14.5655 102.062 14.3687 102.016 14.3218C101.971 14.2749 101.771 14.0541 101.573 13.8312C101.374 13.6084 101.18 13.3995 101.141 13.3671L101.07 13.3082L99.5529 13.3138L98.0353 13.3194L98.026 16.1187L98.0166 18.918H94.1282H90.2398V11.7091V4.50022L100.348 4.50028C109.183 4.50035 110.498 4.5044 110.788 4.53249ZM140.256 4.53829C140.792 4.59253 141.442 4.69887 141.804 4.79139C143.161 5.1378 144.009 5.69954 144.377 6.49439C144.399 6.54132 144.438 6.62769 144.465 6.68635C144.534 6.83948 144.537 16.4459 144.467 16.5986C144.442 16.6543 144.403 16.7455 144.38 16.8012C144.147 17.3697 143.511 17.9384 142.726 18.2799C142.594 18.3372 142.466 18.3938 142.442 18.4058C142.417 18.4177 142.39 18.4274 142.38 18.4274C142.371 18.4274 142.242 18.469 142.093 18.5198C141.631 18.6777 141.029 18.7984 140.312 18.8769C139.957 18.9158 139.624 18.9173 131.395 18.9176C123.894 18.9179 122.808 18.914 122.53 18.8855C121.268 18.7556 120.343 18.4869 119.549 18.0202C119.113 17.7632 118.659 17.3201 118.493 16.9878C118.458 16.9174 118.416 16.8358 118.4 16.8065C118.269 16.5675 118.27 16.6236 118.27 11.6345C118.27 7.68787 118.279 6.75157 118.319 6.66502C118.345 6.60637 118.385 6.51999 118.406 6.47307C118.83 5.55148 119.992 4.91601 121.772 4.63245C122.012 4.59419 122.12 4.58129 122.528 4.54247C122.887 4.50813 123.511 4.50585 131.466 4.50978C137.663 4.51285 140.083 4.5207 140.256 4.53829ZM98.0338 7.36351C98.0241 7.37819 98.0205 8.01402 98.0258 8.7765L98.0353 10.1628L102.477 10.1688C107.066 10.1751 107.379 10.1703 107.696 10.0893C107.891 10.0395 108.03 9.93286 108.098 9.7806C108.176 9.60735 108.178 7.92856 108.101 7.7562C108.029 7.59765 107.953 7.51927 107.811 7.45616C107.533 7.33376 107.667 7.33685 102.652 7.33685C99.0055 7.33685 98.0478 7.34238 98.0338 7.36351ZM126.798 7.38708C126.474 7.44646 126.189 7.60968 126.086 7.79541C126.064 7.83508 126.046 9.29377 126.038 11.6345C126.028 15.0629 126.032 15.4213 126.086 15.5375C126.213 15.8088 126.466 15.9648 126.909 16.0454C127.089 16.0783 127.477 16.0814 131.429 16.0814C136.241 16.0814 135.942 16.0904 136.296 15.9349C136.488 15.8508 136.642 15.6988 136.714 15.5212C136.743 15.4484 136.755 14.3596 136.755 11.6778C136.755 7.60467 136.764 7.79116 136.552 7.61395C136.419 7.50342 136.244 7.4359 135.948 7.38126C135.766 7.34775 126.983 7.35332 126.798 7.38708Z" fill="#8C9AAC"/>
</g>
<defs>
<clipPath id="clip0_1335_221913">
<rect width="150.971" height="23.2263" fill="white" transform="translate(0.748413)"/>
</clipPath>
</defs>
</svg>
