<svg width="137" height="24" viewBox="0 0 137 24" fill="none" xmlns="http://www.w3.org/2000/svg">
<g clip-path="url(#clip0_1335_221901)">
<path d="M0.5 21.5384V1.37354H9.24779C12.1988 1.4041 15.0445 1.55439 17.0207 4.11958C17.574 4.84303 18.3381 6.17275 18.3381 8.40423C18.3381 11.2114 17.0734 12.9003 16.2039 13.6875C14.6493 15.1929 12.5677 15.3458 10.5125 15.4375H6.69196V21.5384H0.5ZM9.06335 10.7605C10.0909 10.7351 11.2503 10.6816 11.9881 9.95558C12.1988 9.7416 12.5414 9.3111 12.5414 8.61058C12.515 7.91515 12.1988 7.48209 12.0144 7.26811C11.1186 6.32814 9.66937 6.43512 8.48367 6.43512H6.771V10.7605H9.06335Z" fill="#8C9AAC"/>
<path d="M28.3773 21.5595L28.1402 20.217C27.3497 20.8157 25.9006 21.9874 23.292 21.9874C22.8441 21.9874 20.8943 21.9289 19.5505 20.8462C18.9708 20.3597 17.9696 19.1879 17.9696 17.2494C17.9696 16.7908 18.1013 16.0114 18.8654 15.0408C19.9457 13.6423 21.2368 13.2628 22.8968 12.8883L25.6898 12.552C26.0059 12.4654 26.3485 12.3814 26.7174 12.3253C26.7964 12.2948 27.2443 12.2362 27.4815 12.0655C27.7186 11.8948 27.9031 11.2376 27.9031 10.9217C27.9031 10.3511 27.1389 9.88496 25.9533 9.88496C24.8993 9.88496 24.3987 10.2543 24.1352 10.6262C24.0034 10.8249 23.9507 10.9956 23.9244 11.4541L18.6283 11.4236C18.8654 10.2543 19.1026 9.3118 19.9721 8.34127C21.0524 7.16948 22.7651 6.4282 26.1113 6.4282C26.7437 6.4282 29.3259 6.17092 31.223 7.39874C31.9871 7.88529 32.4877 8.45844 32.8303 9.22774C33.41 10.4275 33.2519 11.8795 33.2519 13.1379V17.1628C33.2255 19.6744 33.41 20.1304 33.8842 21.5595H28.3773ZM27.824 15.0841C27.0599 15.3414 26.2694 15.5707 25.479 15.8279L24.8993 15.9986C24.6095 16.0547 23.7136 16.2432 23.7136 17.3283C23.7136 17.8149 24.0034 18.6988 25.1628 18.6988C25.3209 18.6988 26.0323 18.6326 26.4012 18.518C27.4551 18.2326 27.5342 17.5703 27.824 17.2825V15.0841Z" fill="#8C9AAC"/>
<path d="M44.3175 21.5739V14.4311C44.3175 15.2819 44.5546 11.6417 43.7642 11.2825C43.5007 11.1577 43.0001 10.9106 42.394 10.9234C41.709 10.9361 40.9448 11.2571 40.6814 11.8455C40.3915 12.5639 40.2861 13.2236 40.3125 14.7189V21.5789H34.6211V6.7941H39.9963L40.0753 8.51101C40.8131 7.63727 41.6826 6.50879 44.8445 6.50879C47.1632 6.50879 48.9285 7.29083 49.6399 9.56052C49.798 10.1337 49.8771 10.689 49.9298 11.8659V21.5739H44.3175Z" fill="#8C9AAC"/>
<path d="M75.9365 11.0692C75.8311 10.5062 75.4096 9.57389 73.9604 9.57389C73.328 9.57389 72.8537 9.73947 72.6166 9.88212C72.4849 9.93562 72.2741 10.305 72.2741 10.7278C72.2741 10.8399 72.3795 11.1762 72.722 11.3749C72.9328 11.4895 73.4334 11.6296 74.0131 11.6933L76.2527 12.2563C77.8336 12.6435 79.2038 12.916 80.3104 13.9859C80.8638 14.4928 81.1536 15.15 81.2326 15.4175C81.4961 16.1817 81.3644 16.7804 81.3644 17.0351C81.3644 18.7775 80.4949 19.827 79.9942 20.2779C78.9139 21.2357 77.2013 21.9591 74.0658 21.9591C71.4573 21.9591 69.8236 21.2968 68.8487 20.7491C66.7672 19.5824 66.6618 17.435 66.53 16.76L71.9579 16.7422C72.0106 17.2491 72.0896 17.6286 72.5112 17.9929C72.8537 18.3037 73.2226 18.5177 74.1975 18.5177C75.3569 18.5177 76.0156 17.9776 76.0419 17.486C76.0683 17.4274 76.0683 17.0325 75.9102 16.8364C75.6467 16.4135 74.9353 16.2352 73.9077 15.9805C73.9077 15.9805 70.7458 15.3233 70.5087 15.2137C69.7973 14.8979 66.9253 14.2738 66.9253 11.1762C66.9253 9.43378 67.8475 8.504 68.3744 8.0251C69.3494 7.2074 70.9566 6.44829 73.8286 6.44829C74.461 6.44829 77.1486 6.42027 79.1511 7.74489C79.7044 8.10916 80.1523 8.56004 80.4949 9.09498C80.9691 9.8541 81.0482 10.761 81.1009 11.0692H75.9365Z" fill="#8C9AAC"/>
<path d="M95.514 19.8819C94.5918 20.7862 92.6947 21.9733 89.5592 21.9733C88.5579 21.9733 85.7913 21.9172 83.7625 19.5991C82.9193 18.6108 81.8917 16.9703 81.8917 14.0281C81.8917 13.5186 81.8917 12.3596 82.3923 11.0884C83.5253 7.86603 86.6081 6.3962 89.849 6.42422C90.7185 6.42422 93.4325 6.50829 95.3823 8.43154C96.3572 9.39189 97.5956 11.1445 97.5692 14.2548C97.5692 15.0165 97.5165 17.9026 95.514 19.8819ZM91.2982 10.956C90.7976 10.5025 90.0335 10.4108 89.77 10.4108C89.1113 10.4108 88.637 10.7802 88.4789 10.8923C87.7938 11.4298 87.2932 12.2475 87.2932 14.0841C87.2932 15.5259 87.6357 17.9383 89.7436 17.9383C90.3497 17.9383 90.9293 17.7854 91.2982 17.3626C91.7988 16.8251 92.3258 15.8545 92.2995 14.158C92.2995 14.0739 92.3258 11.9724 91.2982 10.956Z" fill="#8C9AAC"/>
<path d="M114.827 6.74762H120.413V21.6012H114.827V6.74762ZM114.827 1.24023H120.413V5.10458H114.827V1.24023Z" fill="#8C9AAC"/>
<path d="M131.163 12.4293C130.742 10.6462 129.846 10.557 128.844 10.557C128.028 10.557 127.764 10.8245 127.501 11.0461C126.789 11.632 126.552 12.358 126.552 14.1692C126.552 14.3067 126.473 16.7267 127.843 17.6463C128.238 17.8985 128.423 17.9138 128.897 17.9138C129.055 17.9138 129.529 17.9291 129.951 17.7355C130.504 17.4858 131.084 17.0273 131.189 15.7714L136.591 15.7281C136.538 16.0644 136.327 17.2489 135.801 18.2245C134.457 20.8152 131.716 21.8953 128.95 21.8953C127.817 21.8953 127.026 21.7297 126.552 21.6457C124.365 21.1158 122.442 19.6383 121.599 17.5215C121.361 16.8821 121.045 15.9065 121.045 14.2889C121.045 13.6215 121.072 11.8944 122.046 10.1673C122.178 9.8896 122.626 9.19163 123.258 8.55223C125.314 6.60096 128.37 6.54492 129.108 6.54492C131.954 6.54492 133.719 7.5766 134.588 8.35609C134.852 8.60828 135.379 9.28078 135.801 10.2004C136.143 10.9518 136.327 11.6218 136.459 12.4293H131.163Z" fill="#8C9AAC"/>
<path d="M66.0037 17.2441V13.2269C66.0037 11.9711 66.0037 10.2822 65.4503 9.08493C65.0815 8.31308 64.818 7.88512 64.0539 7.40113C62.1567 6.1733 59.3638 6.40511 58.7314 6.40511C55.3851 6.40511 53.6724 7.25848 52.5921 8.43026C51.7226 9.40081 51.5382 10.351 51.3011 11.5227H56.5972C56.6235 11.0642 56.7026 10.8936 56.8079 10.6923C57.0978 10.3229 57.5194 9.85678 58.5733 9.85678C59.759 9.85678 60.5231 10.4401 60.5231 11.0107C60.5231 11.324 60.4968 11.8361 60.2596 12.0067C60.0225 12.18 59.4165 12.3838 59.3111 12.4118C59.0476 12.4551 58.7051 12.5315 58.2835 12.6385L55.5169 12.9773C53.8569 13.3492 52.5658 13.6753 51.4855 15.0738C50.695 16.0443 50.695 16.9308 50.695 17.3868C50.695 19.3278 51.5645 20.4487 52.1442 20.9352C53.488 22.0179 55.4115 21.9771 55.8857 21.9771C58.4943 21.9771 59.8644 20.869 60.6812 20.2704L60.9184 21.6714H66.636C66.3199 20.7009 65.9773 20.1939 66.0037 17.2441ZM59.0212 18.6069C58.6524 18.7216 58.02 18.6961 57.8619 18.6885C56.9133 18.6273 56.4127 17.7918 56.4127 17.3052C56.4127 16.2201 57.3086 16.0443 57.5984 15.9883L58.2044 15.8252C58.9685 15.568 59.759 15.3514 60.5231 15.0941L60.5495 16.9817C60.3123 17.4071 60.0488 18.3216 59.0212 18.6069Z" fill="#8C9AAC"/>
<path d="M108.083 21.5494V14.3608C108.083 15.2116 108.346 11.6173 107.556 11.2556C107.292 11.1358 106.791 10.8862 106.212 10.8989C105.527 10.9117 104.736 11.2327 104.499 11.8211C104.183 12.5394 104.025 13.0285 104.051 14.5213L103.998 21.5775L98.4389 21.5545V6.76968H103.788L103.867 8.48661C104.604 7.61286 105.474 6.48438 108.662 6.48438C110.955 6.48438 112.72 7.4269 113.431 9.6966C113.589 10.2697 113.616 10.6442 113.695 11.8211V21.5545L108.083 21.5494Z" fill="#8C9AAC"/>
</g>
<defs>
<clipPath id="clip0_1335_221901">
<rect width="136.091" height="23.2263" fill="white" transform="translate(0.5)"/>
</clipPath>
</defs>
</svg>
