<svg width="33" height="35" viewBox="0 0 33 35" fill="none" xmlns="http://www.w3.org/2000/svg">
<path d="M29.736 32.9604C27.0876 34.4514 22.544 34.8776 16.2589 34.8776C9.97383 34.8776 5.43029 34.4514 2.78189 32.9604C1.1923 32.0676 0.387665 30.8504 0.387665 29.9778C0.387665 29.4808 0.652779 29.1966 1.24314 29.1966H31.2742C31.8651 29.1966 32.1297 29.4808 32.1297 29.9778C32.1302 30.8504 31.3256 32.0676 29.736 32.9604ZM31.2742 9.83021H1.24314C0.652779 9.83021 0.387665 9.5259 0.387665 8.97827C0.387665 5.73162 5.28763 0 16.2589 0C27.1286 0 32.1302 5.73162 32.1302 8.97827C32.1302 9.5259 31.8651 9.83021 31.2742 9.83021Z" fill="#8C9AAC"/>
<path d="M6.78425 23.2225C6.69246 23.0804 6.68258 22.989 6.68258 22.9487C6.68258 22.8371 6.74383 22.756 6.86571 22.6444C7.15108 22.3804 7.85403 21.7212 8.24101 21.1229C8.5362 20.6662 8.65865 20.2503 8.65865 19.9057C8.65865 19.0233 7.85403 18.333 6.97777 18.333C6.41748 18.333 5.88784 18.6477 5.5314 19.2258C5.05256 19.9966 4.48188 20.8893 4.11567 21.2448C4.02383 21.3363 3.97297 21.3564 3.90195 21.3564C3.77948 21.3564 3.72864 21.2753 3.72864 21.1436V20.1289C3.72864 19.1349 3.13774 18.333 2.068 18.333C0.988407 18.333 0.407349 19.1343 0.407349 20.1289V26.3782C0.407349 27.3722 0.987862 28.1741 2.068 28.1741C3.13774 28.1741 3.72864 27.3728 3.72864 26.3782V24.9378C3.72864 24.8159 3.77948 24.7249 3.90195 24.7249C4.06481 24.7249 4.1058 24.8872 4.14627 24.9683C4.38078 25.5263 5.06295 26.713 5.69483 27.413C6.12286 27.8796 6.65255 28.1741 7.21284 28.1741C8.16012 28.1741 8.95492 27.3521 8.95492 26.4696C8.95492 25.922 8.72041 25.516 8.27218 25.0293C7.7015 24.4093 7.02915 23.5976 6.78425 23.2225Z" fill="#8C9AAC"/>
<path d="M19.4884 17.7519C21.0879 17.7519 22.0964 16.7372 22.0964 15.2565C22.0964 14.3131 21.5257 13.6637 20.3849 13.6637H20.0591C19.4578 13.6637 18.9894 13.9479 18.9894 14.5869C18.9894 15.1553 19.4884 15.4291 19.8656 15.4291C20.0591 15.4291 20.1816 15.4901 20.1816 15.6321C20.1816 15.8145 19.9678 15.9364 19.7229 15.9364C18.9588 15.9364 18.4395 15.3986 18.4395 14.3942C18.4395 13.2783 19.1528 12.8728 19.7027 12.8728C20.3751 12.8728 20.4871 13.2179 20.9556 13.2179C21.4957 13.2179 21.8624 12.7715 21.8624 12.305C21.8624 11.9598 21.7094 11.6964 21.4754 11.5135C21.0474 11.1988 20.4467 10.9658 19.5502 10.9658C17.971 10.9658 16.4328 12.0007 16.4328 14.3948C16.4323 16.6866 17.9705 17.7519 19.4884 17.7519Z" fill="#8C9AAC"/>
<path d="M1.57933 17.6921H3.01586C4.37092 17.6921 5.1958 16.7889 5.1958 15.6632C5.1958 14.7601 4.65572 14.3442 4.53384 14.243C4.48298 14.2022 4.43217 14.1618 4.43217 14.121C4.43217 14.0704 4.46277 14.0503 4.51363 13.9893C4.70709 13.7661 4.90061 13.4112 4.90061 12.8935C4.90061 11.6762 4.07521 11.0269 2.79174 11.0269H1.57933C0.774691 11.0269 0.38768 11.4939 0.38768 12.1226V16.5963C0.38768 17.2255 0.774691 17.6921 1.57933 17.6921ZM2.18061 12.7721C2.18061 12.6404 2.26206 12.5385 2.43534 12.5385H2.56762C3.00547 12.5385 3.1383 12.8429 3.1383 13.1068C3.1383 13.3502 3.00601 13.6954 2.56762 13.6954H2.43534C2.26206 13.6954 2.18061 13.5941 2.18061 13.4618V12.7721ZM2.18061 15.1461C2.18061 15.0143 2.26206 14.9125 2.43534 14.9125H2.61846C3.10769 14.9125 3.24981 15.237 3.24981 15.5315C3.24981 15.7955 3.10714 16.1706 2.61846 16.1706H2.43534C2.26206 16.1706 2.18061 16.0693 2.18061 15.9371V15.1461Z" fill="#8C9AAC"/>
<path d="M28.1775 17.7421C28.8296 17.7421 29.186 17.255 29.186 16.6464V15.5712C29.186 15.4395 29.2472 15.3785 29.3489 15.3785C29.4713 15.3785 29.5118 15.4493 29.532 15.5712C29.6238 16.0884 29.8682 16.7884 30.1432 17.1439C30.4897 17.6006 30.8155 17.7427 31.1413 17.7427C31.6709 17.7427 32.1296 17.3268 32.1296 16.8091C32.1296 16.464 31.9869 16.2103 31.8038 15.9773C31.4572 15.5413 31.2435 15.2571 31.1112 14.9022C31.0806 14.8211 31.1008 14.7498 31.1927 14.679C31.5086 14.4357 31.8754 13.8978 31.8754 13.0459C31.8754 11.7574 30.8056 11.0269 29.5118 11.0269H28.3606C27.5559 11.0269 27.1689 11.4933 27.1689 12.1226V16.6474C27.1689 17.2555 27.5253 17.7421 28.1775 17.7421ZM29.0739 12.9441C29.0739 12.8124 29.1554 12.7106 29.3287 12.7106H29.4713C29.8993 12.7106 30.0316 13.0149 30.0316 13.2789C30.0316 13.5326 29.8993 13.8673 29.4713 13.8673H29.3287C29.1554 13.8673 29.0739 13.7661 29.0739 13.6338V12.9441Z" fill="#8C9AAC"/>
<path d="M11.4299 18.333C10.2891 18.333 9.66757 19.1849 9.66757 20.2502V26.2563C9.66757 27.3216 10.2891 28.1735 11.4299 28.1735C12.5707 28.1735 13.1922 27.3216 13.1922 26.2563V20.2502C13.1922 19.1855 12.5712 18.333 11.4299 18.333Z" fill="#8C9AAC"/>
<path d="M29.5432 22.2394H29.0441C28.1477 22.2394 27.4551 22.6553 27.4551 23.5682C27.4551 24.4 28.2089 24.7957 28.7692 24.7957C29.0441 24.7957 29.2377 24.8768 29.2377 25.0897C29.2377 25.3537 28.9119 25.5257 28.5653 25.5257C27.4141 25.5257 26.6297 24.7445 26.6297 23.2938C26.6297 21.6808 27.6994 21.0924 28.5243 21.0924C29.5328 21.0924 29.6957 21.5998 30.3987 21.5998C31.2137 21.5998 31.7636 20.9405 31.7636 20.2709C31.7636 19.7739 31.5395 19.3885 31.1831 19.1245C30.5616 18.6678 29.6246 18.333 28.3002 18.333C25.9268 18.333 23.614 19.824 23.614 23.2938C23.614 26.6112 25.9262 28.1632 28.2084 28.1632C30.602 28.1632 32.12 26.6923 32.12 24.5415C32.1205 23.1827 31.2651 22.2394 29.5432 22.2394Z" fill="#8C9AAC"/>
<path d="M25.692 17.6931C26.2626 17.6931 26.7109 17.3584 26.7109 16.7498C26.7109 16.151 26.2626 15.8162 25.692 15.8162H24.7753C24.602 15.8162 24.5205 15.7149 24.5205 15.5826V15.3899C24.5205 15.2582 24.602 15.1564 24.7753 15.1564H25.4783C25.9675 15.1564 26.3545 14.8625 26.3545 14.3447C26.3545 13.8276 25.9675 13.5331 25.4783 13.5331H24.7753C24.602 13.5331 24.5205 13.4319 24.5205 13.2996V13.1374C24.5205 13.0056 24.602 12.9038 24.7753 12.9038H25.692C26.2626 12.9038 26.7109 12.569 26.7109 11.9604C26.7109 11.3616 26.2626 11.0269 25.692 11.0269H23.7667C22.9621 11.0269 22.5751 11.4933 22.5751 12.1226V16.5962C22.5751 17.225 22.9621 17.6921 23.7667 17.6921H25.692V17.6931Z" fill="#8C9AAC"/>
<path d="M8.19074 17.7443C9.84097 17.7443 10.7172 16.7601 10.7172 15.5227V12.1041C10.7172 11.4955 10.3608 11.0083 9.7087 11.0083C9.05661 11.0083 8.70017 11.4955 8.70017 12.1041V15.4111C8.70017 15.6545 8.55751 15.9387 8.19074 15.9387C7.82396 15.9387 7.70152 15.6545 7.70152 15.4111V12.1041C7.70152 11.4955 7.33469 11.0083 6.6826 11.0083C6.03046 11.0083 5.67407 11.4955 5.67407 12.1041V15.5227C5.67459 16.7606 6.54046 17.7443 8.19074 17.7443Z" fill="#8C9AAC"/>
<path d="M15.3431 17.7427C15.8728 17.7427 16.3314 17.3268 16.3314 16.8091C16.3314 16.464 16.1888 16.2103 16.0056 15.9773C15.7104 15.5919 15.4453 15.2571 15.3131 14.9022C15.2825 14.8211 15.3027 14.7498 15.3945 14.679C15.7104 14.4357 16.0773 13.8978 16.0773 13.0459C16.0773 11.7574 15.0075 11.0269 13.7136 11.0269H12.5619C11.7573 11.0269 11.3702 11.4933 11.3702 12.1226V16.6474C11.3702 17.2561 11.7266 17.7433 12.3788 17.7433C13.0309 17.7433 13.3873 17.2561 13.3873 16.6474V15.5723C13.3873 15.4406 13.4485 15.3796 13.5502 15.3796C13.6727 15.3796 13.7131 15.4504 13.7333 15.5723C13.8251 16.0894 14.0695 16.7895 14.3444 17.145C14.691 17.6006 15.0168 17.7427 15.3431 17.7427ZM13.6721 13.8673H13.5294C13.3561 13.8673 13.2747 13.7661 13.2747 13.6338V12.9447C13.2747 12.8129 13.3561 12.7111 13.5294 12.7111H13.6721C14.1001 12.7111 14.2324 13.0154 14.2324 13.2794C14.2324 13.5326 14.1001 13.8673 13.6721 13.8673Z" fill="#8C9AAC"/>
<path d="M21.2 18.333C20.1505 18.333 19.5804 19.1142 19.5804 20.0984V22.2895C19.5804 22.4718 19.5192 22.5535 19.4071 22.5535C19.3256 22.5535 19.2644 22.5028 19.1934 22.3608L17.7776 19.6215C17.2375 18.5763 16.6772 18.333 16.0355 18.333C14.9657 18.333 14.3748 19.1343 14.3748 20.1386V26.4087C14.3748 27.3929 14.9455 28.1741 15.9945 28.1741C17.044 28.1741 17.6142 27.3929 17.6142 26.4087V24.2176C17.6142 24.0352 17.6754 23.9536 17.7874 23.9536C17.8689 23.9536 17.9301 24.0042 18.0011 24.1463L19.4169 26.8856C19.957 27.9307 20.5375 28.1741 21.159 28.1741C22.2288 28.1741 22.8197 27.3728 22.8197 26.3684V20.0984C22.8197 19.1142 22.2495 18.333 21.2 18.333Z" fill="#8C9AAC"/>
<path d="M30.9871 28.4027C30.9871 28.1299 31.1991 27.9019 31.49 27.9019C31.7808 27.9019 31.9929 28.1299 31.9929 28.4027C31.9929 28.6955 31.7808 28.9067 31.49 28.9067C31.1991 28.9073 30.9871 28.6923 30.9871 28.4027ZM31.8835 28.4027C31.8835 28.1507 31.6851 28.0042 31.49 28.0042C31.2948 28.0042 31.0964 28.1507 31.0964 28.4027C31.0964 28.6651 31.2948 28.8044 31.49 28.8044C31.6851 28.8044 31.8835 28.6651 31.8835 28.4027ZM31.3156 28.6177V28.192C31.3156 28.1648 31.3396 28.1376 31.367 28.1376H31.5107C31.6234 28.1376 31.702 28.2056 31.702 28.2976C31.702 28.376 31.6578 28.444 31.555 28.4609L31.6676 28.5872C31.678 28.5976 31.6846 28.6111 31.6846 28.6209C31.6846 28.6515 31.6638 28.6721 31.6332 28.6721C31.6124 28.6721 31.5987 28.6618 31.5889 28.6482L31.4386 28.4713H31.4216V28.6177C31.4216 28.6449 31.3976 28.6689 31.367 28.6689C31.3396 28.6683 31.3156 28.6449 31.3156 28.6177ZM31.4971 28.3755C31.5588 28.3755 31.5927 28.345 31.5927 28.3041C31.5927 28.2601 31.5621 28.2361 31.5074 28.2361H31.4222V28.376H31.4971V28.3755Z" fill="#8C9AAC"/>
</svg>
